M48
; DRILL file KiCad 10.0.6 date 2026-09-30T18:09:34
; FORMAT={-:-/ absolute / metric / decimal}
; #@! TF.CreationDate,2026-09-30T18:09:34+05:30
; #@! TF.GenerationSoftware,Kicad,Pcbnew,10.0.6
; #@! TF.FileFunction,Plated,1,4,PTH
FMAT,2
METRIC
; #@! TA.AperFunction,Plated,PTH,ViaDrill
T1C0.250
; #@! TA.AperFunction,Plated,PTH,ViaDrill
T2C0.300
; #@! TA.AperFunction,Plated,PTH,ViaDrill
T3C0.400
; #@! TA.AperFunction,Plated,PTH,ComponentDrill
T4C0.400
; #@! TA.AperFunction,Plated,PTH,ComponentDrill
T5C0.750
; #@! TA.AperFunction,Plated,PTH,ComponentDrill
T6C1.100
; #@! TA.AperFunction,Plated,PTH,ComponentDrill
T7C2.200
%
G90
G05
T1
X20.425Y17.095
X20.435Y17.995
X22.435Y14.985
X23.195Y18.745
X24.505Y15.865
X24.995Y21.585
X25.055Y12.385
X25.395Y13.165
X26.961Y13.318
X29.105Y11.695
X30.145Y11.445
X32.205Y20.285
X34.025Y11.895
X34.285Y10.545
X36.718Y21.165
X39.718Y21.155
X41.822Y20.27
X41.832Y18.81
X44.495Y17.045
X44.665Y22.035
X45.84Y21.97
X45.945Y16.925
X47.195Y21.965
X47.195Y17.135
T2
X0.945Y44.245
X0.99Y43.07
X1.055Y55.755
X1.055Y51.005
X1.055Y50.005
X1.055Y49.005
X1.055Y48.185
X1.055Y47.005
X1.055Y46.005
X1.055Y41.005
X1.055Y40.005
X1.055Y39.085
X1.425Y23.005
X1.425Y22.005
X1.425Y21.005
X1.425Y20.005
X1.425Y19.005
X1.425Y18.005
X1.425Y17.005
X1.425Y16.005
X1.425Y15.005
X1.425Y14.005
X1.425Y13.005
X1.425Y12.005
X1.425Y11.005
X1.425Y10.005
X1.425Y9.005
X1.425Y8.005
X1.425Y7.005
X1.425Y6.005
X1.425Y1.005
X1.625Y37.815
X1.975Y45.145
X2.055Y42.085
X2.425Y47.005
X2.425Y1.005
X2.555Y47.985
X2.775Y34.245
X3.125Y22.68
X3.125Y19.715
X3.345Y42.045
X3.365Y45.115
X3.425Y47.005
X3.425Y40.005
X3.425Y16.005
X3.425Y13.505
X3.425Y11.005
X3.425Y8.505
X3.425Y1.005
X4.425Y47.985
X4.425Y47.005
X4.425Y27.395
X4.425Y1.005
X5.025Y55.905
X5.085Y18.605
X5.425Y51.005
X5.425Y50.005
X5.425Y49.005
X5.425Y48.005
X5.425Y47.005
X5.425Y12.005
X5.425Y9.005
X5.425Y7.005
X5.425Y1.005
X5.925Y41.005
X5.925Y13.505
X6.125Y11.005
X6.175Y51.795
X6.215Y18.615
X6.425Y55.905
X6.425Y54.005
X6.425Y47.985
X6.425Y2.005
X6.425Y1.005
X6.507Y27.395
X6.555Y48.905
X6.905Y46.005
X6.905Y43.635
X6.905Y41.005
X7.125Y16.825
X7.175Y51.795
X7.425Y55.905
X7.425Y3.505
X7.425Y1.005
X7.625Y18.705
X7.955Y35.69
X7.955Y32.69
X7.985Y38.915
X8.425Y55.905
X8.425Y55.005
X8.425Y49.105
X8.425Y47.005
X8.425Y41.005
X8.425Y27.505
X8.425Y1.005
X8.485Y33.625
X8.575Y34.795
X8.785Y18.705
X8.955Y35.69
X8.955Y32.69
X9.335Y37.825
X9.415Y3.375
X9.425Y55.905
X9.425Y55.005
X9.425Y1.005
X9.505Y34.795
X9.515Y33.565
X9.775Y48.905
X9.78Y9.245
X9.83Y11.545
X9.83Y7.445
X9.955Y35.69
X9.955Y32.69
X10.015Y18.625
X10.315Y14.115
X10.355Y2.425
X10.425Y55.905
X10.425Y55.005
X10.425Y29.505
X10.425Y1.005
X10.535Y15.795
X10.885Y27.785
X10.925Y47.005
X10.925Y41.005
X11.075Y49.105
X11.255Y31.285
X11.355Y3.365
X11.425Y55.905
X11.425Y55.005
X11.425Y1.005
X11.505Y17.505
X11.535Y21.865
X11.795Y50.375
X12.275Y28.005
X12.425Y55.905
X12.425Y55.005
X12.425Y29.355
X12.425Y11.505
X12.425Y9.005
X12.425Y3.505
X12.425Y2.005
X12.425Y1.005
X12.56Y7.445
X12.72Y33.535
X12.825Y20.255
X12.825Y19.255
X13.025Y16.175
X13.375Y55.065
X13.425Y55.905
X13.425Y48.505
X13.425Y47.005
X13.425Y41.005
X13.425Y39.005
X13.425Y1.005
X13.635Y27.795
X13.785Y3.465
X13.825Y20.255
X13.825Y19.255
X13.925Y37.505
X14.075Y29.355
X14.205Y2.665
X14.425Y55.905
X14.425Y55.005
X14.425Y46.005
X14.425Y1.005
X14.545Y27.99
X14.925Y32.605
X15.425Y55.905
X15.425Y55.005
X15.425Y11.505
X15.425Y1.005
X15.645Y2.455
X15.675Y22.205
X15.725Y30.035
X16.125Y14.675
X16.425Y55.905
X16.425Y55.005
X16.425Y47.005
X16.425Y45.005
X16.425Y1.005
X16.525Y22.205
X16.735Y29.705
X17.375Y26.86
X17.425Y55.905
X17.425Y55.005
X17.425Y1.005
X17.512Y4.665
X17.665Y8.085
X17.695Y10.455
X17.755Y9.695
X17.755Y8.765
X18.425Y55.905
X18.425Y55.005
X18.425Y53.505
X18.425Y51.005
X18.425Y21.005
X18.425Y17.005
X18.425Y16.005
X18.425Y1.005
X19.095Y13.945
X19.425Y55.905
X19.425Y55.005
X19.425Y46.005
X19.425Y21.005
X19.425Y19.005
X19.425Y1.005
X19.505Y25.905
X19.525Y4.505
X19.535Y52.435
X19.595Y30.125
X19.745Y39.985
X19.875Y41.985
X19.915Y39.115
X19.975Y38.005
X20.045Y36.925
X20.115Y35.445
X20.425Y55.905
X20.425Y55.005
X20.425Y33.005
X20.425Y15.005
X20.425Y1.005
X20.622Y2.426
X20.925Y53.505
X20.925Y51.005
X21.095Y26.015
X21.132Y6.37
X21.425Y55.905
X21.425Y55.005
X21.425Y46.005
X21.425Y44.005
X21.425Y42.005
X21.425Y40.005
X21.425Y32.005
X21.425Y21.005
X21.425Y20.005
X21.425Y1.005
X21.505Y22.635
X21.735Y9.505
X21.805Y2.285
X21.975Y4.077
X22.155Y33.315
X22.185Y29.225
X22.215Y6.155
X22.325Y36.535
X22.425Y55.905
X22.425Y55.005
X22.425Y1.005
X22.665Y31.595
X22.668Y8.141
X22.945Y34.175
X23.115Y6.395
X23.425Y55.905
X23.425Y55.005
X23.425Y46.005
X23.425Y40.005
X23.425Y1.005
X23.515Y38.225
X23.535Y34.695
X23.725Y20.775
X23.875Y29.265
X24.425Y55.905
X24.425Y55.005
X24.425Y44.005
X24.425Y42.005
X24.425Y1.005
X24.535Y24.195
X25.065Y30.485
X25.425Y55.905
X25.425Y55.005
X25.425Y46.005
X25.425Y40.005
X25.425Y1.005
X26.175Y34.06
X26.425Y55.905
X26.425Y55.005
X26.425Y42.005
X26.425Y1.005
X26.635Y22.555
X26.705Y2.305
X26.755Y19.355
X26.775Y16.835
X27.033Y26.63
X27.155Y39.315
X27.215Y18.425
X27.255Y17.465
X27.425Y55.905
X27.425Y55.005
X27.425Y1.005
X27.825Y33.105
X27.825Y2.095
X27.935Y19.335
X28.005Y16.825
X28.095Y28.635
X28.115Y29.805
X28.304Y4.096
X28.325Y6.005
X28.395Y22.505
X28.425Y55.905
X28.425Y55.005
X28.425Y42.005
X28.425Y1.005
X28.825Y2.105
X28.885Y40.335
X28.885Y18.445
X28.915Y7.455
X28.925Y17.485
X28.955Y21.905
X28.955Y6.725
X28.995Y8.455
X29.055Y29.815
X29.175Y19.335
X29.175Y16.785
X29.254Y24.006
X29.275Y28.555
X29.425Y55.905
X29.425Y55.005
X29.425Y1.005
X29.825Y33.625
X29.925Y26.505
X30.015Y29.785
X30.075Y28.555
X30.273Y21.905
X30.315Y24.375
X30.39Y4.545
X30.425Y55.905
X30.425Y55.005
X30.425Y42.005
X30.425Y1.005
X30.625Y39.33
X30.665Y15.375
X31.225Y23.905
X31.425Y55.905
X31.425Y55.005
X31.425Y1.005
X32.025Y36.505
X32.053Y22.938
X32.275Y18.845
X32.425Y55.905
X32.425Y55.005
X32.425Y42.005
X32.425Y21.245
X32.425Y14.715
X32.425Y1.005
X32.435Y2.625
X32.625Y13.795
X32.805Y25.445
X32.875Y32.265
X32.888Y17.283
X33.135Y16.495
X33.425Y55.905
X33.425Y55.005
X33.425Y1.005
X33.575Y2.545
X34.42Y25.5
X34.425Y55.905
X34.425Y55.005
X34.425Y21.005
X34.425Y1.005
X34.47Y27.98
X34.575Y18.845
X34.625Y7.465
X34.625Y6.605
X34.63Y30.66
X34.975Y36.505
X34.975Y24.185
X35.425Y55.905
X35.425Y55.005
X35.425Y5.005
X35.425Y3.005
X35.425Y1.005
X35.445Y13.205
X35.789Y17.019
X35.84Y6.725
X35.965Y33.585
X36.075Y34.725
X36.425Y55.905
X36.425Y55.005
X36.425Y1.005
X36.725Y32.145
X37.055Y16.27
X37.425Y55.905
X37.425Y55.005
X37.425Y5.005
X37.425Y3.005
X37.425Y1.005
X38.425Y55.905
X38.425Y55.005
X38.425Y53.005
X38.425Y51.005
X38.425Y48.005
X38.425Y46.005
X38.425Y44.005
X38.425Y42.005
X38.425Y33.005
X38.425Y1.005
X39.425Y55.905
X39.425Y55.005
X39.425Y37.005
X39.425Y35.005
X39.425Y6.005
X39.425Y3.005
X39.425Y1.005
X39.605Y18.055
X39.925Y4.505
X40.125Y26.067
X40.425Y55.905
X40.425Y55.005
X40.425Y53.005
X40.425Y52.005
X40.425Y44.005
X40.425Y33.005
X40.425Y1.005
X40.575Y22.555
X40.705Y50.325
X40.715Y46.455
X40.925Y3.005
X40.965Y17.245
X41.025Y30.145
X41.425Y55.905
X41.425Y55.005
X41.425Y37.005
X41.425Y35.005
X41.425Y24.005
X41.425Y22.005
X41.425Y6.005
X41.425Y1.005
X41.775Y29.195
X42.315Y49.955
X42.365Y46.695
X42.425Y55.905
X42.425Y55.005
X42.425Y53.005
X42.425Y52.005
X42.425Y44.005
X42.425Y33.005
X42.425Y23.005
X42.425Y16.005
X42.425Y5.005
X42.425Y3.005
X42.425Y1.005
X42.525Y48.355
X43.245Y42.495
X43.425Y55.905
X43.425Y55.005
X43.425Y37.005
X43.425Y9.005
X43.425Y7.005
X43.425Y1.005
X44.425Y55.905
X44.425Y24.005
X44.425Y15.005
X44.425Y13.005
X44.425Y1.005
X45.22Y34.89
X45.275Y43.115
X45.425Y55.905
X45.425Y47.005
X45.425Y45.005
X45.425Y41.005
X45.425Y37.005
X45.425Y10.005
X45.425Y1.005
X46.425Y55.905
X46.425Y15.005
X46.425Y13.005
X46.425Y11.005
X46.425Y1.005
X47.425Y55.905
X47.425Y1.005
X48.425Y55.905
X48.425Y55.005
X48.425Y51.005
X48.425Y50.005
X48.425Y49.005
X48.425Y48.005
X48.425Y47.005
X48.425Y46.005
X48.425Y45.005
X48.425Y44.005
X48.425Y43.005
X48.425Y42.005
X48.425Y41.005
X48.425Y40.005
X48.425Y39.005
X48.425Y38.005
X48.425Y37.005
X48.425Y36.005
X48.425Y35.005
X48.425Y31.5
X48.425Y29.005
X48.425Y26.005
X48.425Y25.005
X48.425Y24.005
X48.425Y23.005
X48.425Y22.005
X48.425Y21.005
X48.425Y20.005
X48.425Y19.005
X48.425Y18.005
X48.425Y17.005
X48.425Y16.005
X48.425Y15.005
X48.425Y14.005
X48.425Y13.005
X48.425Y12.005
X48.425Y11.005
X48.425Y10.005
X48.425Y9.005
X48.425Y8.005
X48.425Y7.005
X48.425Y6.005
X48.425Y5.005
X48.425Y2.005
X48.425Y1.005
T3
X24.665Y19.897
X26.215Y10.545
X36.365Y10.215
X37.675Y6.455
X39.137Y14.554
X43.605Y11.005
T4
X1.585Y53.515
X1.715Y3.805
X2.068Y54.682
X2.068Y52.348
X2.198Y4.972
X2.198Y2.638
X3.235Y55.165
X3.235Y51.865
X3.365Y5.455
X3.365Y2.155
X4.402Y54.682
X4.402Y52.348
X4.532Y4.972
X4.532Y2.638
X4.885Y53.515
X5.015Y3.805
X44.315Y52.945
X44.315Y3.775
X44.798Y54.112
X44.798Y51.778
X44.798Y4.942
X44.798Y2.608
X45.965Y54.595
X45.965Y51.295
X45.965Y5.425
X45.965Y2.125
X47.132Y54.112
X47.132Y51.778
X47.132Y4.942
X47.132Y2.608
X47.615Y52.945
X47.615Y3.775
T5
X7.33Y10.245
X7.33Y8.245
T6
X9.775Y53.065
X9.775Y50.525
X45.215Y32.905
X45.215Y30.365
X45.215Y27.825
T7
X3.235Y53.515
X3.365Y3.805
X45.965Y52.945
X45.965Y3.775
M30
