%TF.GenerationSoftware,KiCad,Pcbnew,10.0.6*%
%TF.CreationDate,2026-09-30T18:09:34+05:30*%
%TF.ProjectId,BLE-CAN-module,42797465-6265-4616-9d2d-424c452d4341,A*%
%TF.SameCoordinates,PX60de958PY69dcd48*%
%TF.FileFunction,Copper,L2,Inr*%
%TF.FilePolarity,Positive*%
%FSLAX46Y46*%
G04 Gerber Fmt 4.6, Leading zero omitted, Abs format (unit mm)*
G04 Created by KiCad (PCBNEW 10.0.6) date 2026-09-30 18:09:34*
%MOMM*%
%LPD*%
G01*
G04 APERTURE LIST*
G04 Aperture macros list*
%AMRoundRect*
0 Rectangle with rounded corners*
0 $1 Rounding radius*
0 $2 $3 $4 $5 $6 $7 $8 $9 X,Y pos of 4 corners*
0 Add a 4 corners polygon primitive as box body*
4,1,4,$2,$3,$4,$5,$6,$7,$8,$9,$2,$3,0*
0 Add four circle primitives for the rounded corners*
1,1,$1+$1,$2,$3*
1,1,$1+$1,$4,$5*
1,1,$1+$1,$6,$7*
1,1,$1+$1,$8,$9*
0 Add four rect primitives between the rounded corners*
20,1,$1+$1,$2,$3,$4,$5,0*
20,1,$1+$1,$4,$5,$6,$7,0*
20,1,$1+$1,$6,$7,$8,$9,0*
20,1,$1+$1,$8,$9,$2,$3,0*%
G04 Aperture macros list end*
%TA.AperFunction,ComponentPad*%
%ADD10RoundRect,0.249999X0.850001X-0.850001X0.850001X0.850001X-0.850001X0.850001X-0.850001X-0.850001X0*%
%TD*%
%TA.AperFunction,ComponentPad*%
%ADD11C,2.200000*%
%TD*%
%TA.AperFunction,ComponentPad*%
%ADD12C,0.700000*%
%TD*%
%TA.AperFunction,ComponentPad*%
%ADD13C,4.400000*%
%TD*%
%TA.AperFunction,ComponentPad*%
%ADD14RoundRect,0.250000X0.625000X-0.350000X0.625000X0.350000X-0.625000X0.350000X-0.625000X-0.350000X0*%
%TD*%
%TA.AperFunction,ComponentPad*%
%ADD15O,1.750000X1.200000*%
%TD*%
%TA.AperFunction,ComponentPad*%
%ADD16RoundRect,0.249999X-0.850001X0.850001X-0.850001X-0.850001X0.850001X-0.850001X0.850001X0.850001X0*%
%TD*%
%TA.AperFunction,ViaPad*%
%ADD17C,0.900000*%
%TD*%
%TA.AperFunction,ViaPad*%
%ADD18C,0.650000*%
%TD*%
%TA.AperFunction,ViaPad*%
%ADD19C,0.600000*%
%TD*%
G04 APERTURE END LIST*
D10*
%TO.N,/03_CAN_Interface/CAN_BUS_N*%
%TO.C,J301*%
X45215000Y27825000D03*
D11*
%TO.N,/03_CAN_Interface/CAN_BUS_P*%
X45215000Y30365000D03*
%TO.N,GND*%
X45215000Y32905000D03*
%TD*%
D12*
%TO.N,GND*%
%TO.C,H1*%
X1585000Y53515000D03*
X2068274Y54681726D03*
X2068274Y52348274D03*
X3235000Y55165000D03*
D13*
X3235000Y53515000D03*
D12*
X3235000Y51865000D03*
X4401726Y54681726D03*
X4401726Y52348274D03*
X4885000Y53515000D03*
%TD*%
D14*
%TO.N,/04_Power_Back-up/VBAT_CONN*%
%TO.C,J401*%
X7330000Y8245000D03*
D15*
%TO.N,GND*%
X7330000Y10245000D03*
%TD*%
D12*
%TO.N,GND*%
%TO.C,H2*%
X44315000Y52945000D03*
X44798274Y54111726D03*
X44798274Y51778274D03*
X45965000Y54595000D03*
D13*
X45965000Y52945000D03*
D12*
X45965000Y51295000D03*
X47131726Y54111726D03*
X47131726Y51778274D03*
X47615000Y52945000D03*
%TD*%
%TO.N,GND*%
%TO.C,H3*%
X44315000Y3775000D03*
X44798274Y4941726D03*
X44798274Y2608274D03*
X45965000Y5425000D03*
D13*
X45965000Y3775000D03*
D12*
X45965000Y2125000D03*
X47131726Y4941726D03*
X47131726Y2608274D03*
X47615000Y3775000D03*
%TD*%
%TO.N,GND*%
%TO.C,H4*%
X1715000Y3805000D03*
X2198274Y4971726D03*
X2198274Y2638274D03*
X3365000Y5455000D03*
D13*
X3365000Y3805000D03*
D12*
X3365000Y2155000D03*
X4531726Y4971726D03*
X4531726Y2638274D03*
X5015000Y3805000D03*
%TD*%
D16*
%TO.N,/01_POWER_INPUT/VIN_RAW*%
%TO.C,J101*%
X9775000Y53065000D03*
D11*
%TO.N,GND*%
X9775000Y50525000D03*
%TD*%
D17*
%TO.N,/02_MCU_BLE_Controller/RST_N*%
X26215000Y10545000D03*
X37675000Y6455000D03*
D18*
%TO.N,GND*%
X41832500Y18810000D03*
D19*
X15425000Y55005000D03*
X12425000Y11505000D03*
X21425000Y42005000D03*
X1055000Y50005000D03*
X37425000Y55905000D03*
X40715000Y46455000D03*
X8425000Y27505000D03*
X3425000Y47005000D03*
X48425000Y43005000D03*
X32435000Y2625000D03*
D18*
X39717500Y21155000D03*
D19*
X10315000Y14115000D03*
X28095000Y28635000D03*
X3425000Y16005000D03*
X32875000Y32265000D03*
X22425000Y55005000D03*
X36075000Y34725000D03*
X48425000Y18005000D03*
X27215000Y18425000D03*
D18*
X24505000Y15865000D03*
D19*
X1055000Y41005000D03*
X14425000Y46005000D03*
X18425000Y17005000D03*
X40425000Y33005000D03*
X19745000Y39985000D03*
X4425000Y47985000D03*
X14205000Y2665000D03*
X3425000Y13505000D03*
X48425000Y47005000D03*
X36425000Y1005000D03*
X36725000Y32145000D03*
X47425000Y55905000D03*
X12425000Y2005000D03*
X15645000Y2455000D03*
X4425000Y27395000D03*
D18*
X25395000Y13165000D03*
D19*
X6905000Y43635000D03*
X3425000Y1005000D03*
D18*
X25055000Y12385000D03*
D19*
X24425000Y42005000D03*
X15425000Y55905000D03*
X1055000Y46005000D03*
X45425000Y55905000D03*
X38425000Y48005000D03*
X12425000Y9005000D03*
X21425000Y20005000D03*
X5425000Y1005000D03*
X39425000Y1005000D03*
D18*
X34025000Y11895000D03*
D19*
X19425000Y21005000D03*
X7625000Y18705000D03*
X48425000Y38005000D03*
X27425000Y55005000D03*
X35788658Y17018658D03*
X42425000Y23005000D03*
X11505000Y17505000D03*
X1055000Y39085000D03*
X4425000Y1005000D03*
X7425000Y3505000D03*
X32425000Y1005000D03*
X1425000Y19005000D03*
X3125000Y19715000D03*
X28425000Y1005000D03*
X48425000Y22005000D03*
X43425000Y55905000D03*
X48425000Y5005000D03*
X23425000Y1005000D03*
X1055000Y47005000D03*
X1425000Y13005000D03*
X2555000Y47985000D03*
X32425000Y42005000D03*
X14425000Y1005000D03*
X14545000Y27990000D03*
X28115000Y29805000D03*
X34425000Y21005000D03*
X23875000Y29265000D03*
X42425000Y55005000D03*
X1425000Y10005000D03*
X28425000Y55905000D03*
X24535000Y24195000D03*
X35425000Y1005000D03*
X4425000Y47005000D03*
X30425000Y55905000D03*
X11075000Y49105000D03*
X35425000Y3005000D03*
X8955000Y32690000D03*
X34425000Y55905000D03*
X7175000Y51795000D03*
X17695000Y10455000D03*
X29175000Y19335000D03*
X17512500Y4665000D03*
X16425000Y55005000D03*
X46425000Y15005000D03*
X48425000Y14005000D03*
X23425000Y55005000D03*
X48425000Y2005000D03*
X6555000Y48905000D03*
X1055000Y55755000D03*
X8785000Y18705000D03*
X21131937Y6370242D03*
X9425000Y55905000D03*
X48425000Y10005000D03*
X30075000Y28555000D03*
X13425000Y55905000D03*
X43245000Y42495000D03*
X39425000Y6005000D03*
X23425000Y55905000D03*
X20925000Y51005000D03*
X22155000Y33315000D03*
X30425000Y42005000D03*
X1055000Y48185000D03*
X5025000Y55905000D03*
X40965000Y17245000D03*
X20425000Y15005000D03*
X37425000Y3005000D03*
X11425000Y55905000D03*
X45425000Y45005000D03*
D18*
X20425000Y17095000D03*
D19*
X19915000Y39115000D03*
X31425000Y1005000D03*
X13025000Y16175000D03*
X1975000Y45145000D03*
X13825000Y19255000D03*
X27425000Y55905000D03*
X3425000Y8505000D03*
X26775000Y16835000D03*
X19425000Y19005000D03*
X46425000Y1005000D03*
X25425000Y1005000D03*
X48425000Y46005000D03*
X40425000Y55905000D03*
X46425000Y11005000D03*
X17425000Y55005000D03*
X8575000Y34795000D03*
X48425000Y20005000D03*
X43425000Y7005000D03*
X29275000Y28555000D03*
X16425000Y1005000D03*
X6905000Y41005000D03*
X10425000Y55905000D03*
X18425000Y16005000D03*
X18425000Y53505000D03*
X48425000Y26005000D03*
X2055000Y42085000D03*
X28304070Y4096338D03*
X9515000Y33565000D03*
X42425000Y5005000D03*
X1425000Y8005000D03*
X40425000Y44005000D03*
X32425000Y55905000D03*
X14425000Y55005000D03*
X18425000Y21005000D03*
X1425000Y6005000D03*
X48425000Y50005000D03*
X1425000Y12005000D03*
X13635000Y27795000D03*
X1055000Y51005000D03*
D18*
X29105000Y11695000D03*
D19*
X3425000Y11005000D03*
X28955000Y6725000D03*
X48425000Y11005000D03*
X41425000Y22005000D03*
X12825000Y19255000D03*
X13925000Y37505000D03*
X21425000Y46005000D03*
X21425000Y40005000D03*
X40705000Y50325000D03*
X19525000Y4505000D03*
X17665000Y8085000D03*
X11795000Y50375000D03*
X48425000Y37005000D03*
X16425000Y55905000D03*
X44425000Y55905000D03*
X34630000Y30660000D03*
X21425000Y44005000D03*
X11425000Y55005000D03*
X38425000Y53005000D03*
X25425000Y55905000D03*
X27425000Y1005000D03*
X42425000Y55905000D03*
X12560000Y7445000D03*
X48425000Y29005000D03*
X26425000Y42005000D03*
X40425000Y52005000D03*
X48425000Y16005000D03*
X12425000Y55005000D03*
X22425000Y55905000D03*
X17755000Y9695000D03*
X23535000Y34695000D03*
D18*
X41822500Y20270000D03*
D19*
X9830000Y11545000D03*
X7425000Y55905000D03*
X48425000Y6005000D03*
X1425000Y17005000D03*
X2425000Y1005000D03*
X20925000Y53505000D03*
X9415000Y3375000D03*
X27935000Y19335000D03*
D18*
X26961074Y13318391D03*
D19*
X38425000Y1005000D03*
X22668088Y8141188D03*
X12425000Y1005000D03*
X38425000Y55905000D03*
X13425000Y41005000D03*
X42425000Y3005000D03*
X3425000Y40005000D03*
X8425000Y49105000D03*
X46425000Y13005000D03*
X16425000Y45005000D03*
D18*
X44665000Y22035000D03*
D19*
X36425000Y55005000D03*
X20045000Y36925000D03*
X48425000Y1005000D03*
X28995000Y8455000D03*
X37055000Y16270000D03*
X1425000Y15005000D03*
X1425000Y23005000D03*
X2425000Y47005000D03*
X29175000Y16785000D03*
X12425000Y55905000D03*
X41425000Y1005000D03*
X48425000Y51005000D03*
X5425000Y7005000D03*
X33575000Y2545000D03*
X39425000Y35005000D03*
X11255000Y31285000D03*
X19975000Y38005000D03*
X48425000Y21005000D03*
X40425000Y1005000D03*
X14925000Y32605000D03*
X38425000Y33005000D03*
X48425000Y35005000D03*
X27825000Y2095000D03*
X23425000Y40005000D03*
X30015000Y29785000D03*
X945000Y44245000D03*
X38425000Y55005000D03*
X42315000Y49955000D03*
X44425000Y24005000D03*
X26705000Y2305000D03*
X9830000Y7445000D03*
X9505000Y34795000D03*
X21505000Y22635000D03*
X1425000Y9005000D03*
X10885000Y27785000D03*
X36425000Y55905000D03*
X13375000Y55065000D03*
X19425000Y55005000D03*
X39425000Y55905000D03*
X48425000Y40005000D03*
X39925000Y4505000D03*
X6425000Y2005000D03*
X24425000Y55905000D03*
X48425000Y25005000D03*
X3345000Y42045000D03*
X37425000Y5005000D03*
X28925000Y17485000D03*
X45425000Y47005000D03*
X9780000Y9245000D03*
X21975000Y4077500D03*
X1055000Y40005000D03*
X34470000Y27980000D03*
X48425000Y9005000D03*
X48425000Y12005000D03*
X5925000Y13505000D03*
X37425000Y55005000D03*
X8425000Y55905000D03*
X28915000Y7455000D03*
D18*
X45840000Y21970000D03*
D19*
X5425000Y48005000D03*
X6905000Y46005000D03*
X19425000Y1005000D03*
X7425000Y1005000D03*
X1425000Y7005000D03*
X6125000Y11005000D03*
X5425000Y12005000D03*
X8425000Y55005000D03*
X19425000Y55905000D03*
X23425000Y46005000D03*
X30390000Y4545000D03*
X43425000Y1005000D03*
X45425000Y1005000D03*
X12825000Y20255000D03*
X24425000Y55005000D03*
X7955000Y32690000D03*
X5425000Y9005000D03*
X40425000Y53005000D03*
X48425000Y42005000D03*
X42425000Y1005000D03*
X41425000Y37005000D03*
X26755000Y19355000D03*
X44425000Y15005000D03*
X31425000Y55005000D03*
X10015000Y18625000D03*
X1425000Y14005000D03*
X20425000Y33005000D03*
X17425000Y1005000D03*
X19095000Y13945000D03*
X22215000Y6155000D03*
D18*
X32205000Y20285000D03*
D19*
X32425000Y55005000D03*
X8485000Y33625000D03*
X39425000Y37005000D03*
X33135000Y16495000D03*
X25425000Y46005000D03*
X6425000Y1005000D03*
X18425000Y51005000D03*
X42425000Y33005000D03*
X11535000Y21865000D03*
X1425000Y18005000D03*
D18*
X24995000Y21585000D03*
D19*
X42425000Y16005000D03*
X48425000Y45005000D03*
X17375000Y26860000D03*
X8955000Y35690000D03*
X40575000Y22555000D03*
X38425000Y42005000D03*
X34425000Y55005000D03*
X48425000Y8005000D03*
X25425000Y55005000D03*
X21425000Y55005000D03*
X45425000Y10005000D03*
X24425000Y44005000D03*
X20425000Y55005000D03*
X28425000Y55005000D03*
X1425000Y22005000D03*
X46425000Y55905000D03*
X42365000Y46695000D03*
X30425000Y1005000D03*
X16425000Y47005000D03*
D18*
X45945000Y16925000D03*
D19*
X35425000Y5005000D03*
D18*
X34285000Y10545000D03*
D19*
X18425000Y55905000D03*
X48425000Y15005000D03*
X30425000Y55005000D03*
X48425000Y17005000D03*
X35840000Y6725000D03*
X10535000Y15795000D03*
X9775000Y48905000D03*
X10425000Y55005000D03*
X13425000Y47005000D03*
X15725000Y30035000D03*
X41425000Y6005000D03*
X9955000Y35690000D03*
X5425000Y50005000D03*
X13785000Y3465000D03*
X43425000Y9005000D03*
X21425000Y1005000D03*
X35425000Y55005000D03*
X29425000Y55005000D03*
X38425000Y44005000D03*
X10925000Y47005000D03*
X16735000Y29705000D03*
X6425000Y47985000D03*
X41425000Y24005000D03*
X20622331Y2426152D03*
X41425000Y55905000D03*
X38425000Y51005000D03*
X48425000Y55005000D03*
X48425000Y23005000D03*
X19875000Y41985000D03*
X35425000Y55905000D03*
X17755000Y8765000D03*
X11355000Y3365000D03*
X48425000Y31500000D03*
X41775000Y29195000D03*
X22945000Y34175000D03*
X1425000Y16005000D03*
X48425000Y55905000D03*
X41425000Y55005000D03*
X1055000Y49005000D03*
X990000Y43070000D03*
X9955000Y32690000D03*
X48425000Y49005000D03*
X21425000Y55905000D03*
X21095000Y26015000D03*
X11425000Y1005000D03*
X22665000Y31595000D03*
X42525000Y48355000D03*
X14425000Y55905000D03*
X33425000Y1005000D03*
D18*
X44495000Y17045000D03*
D19*
X1425000Y21005000D03*
X28885000Y40335000D03*
X27255000Y17465000D03*
X47425000Y1005000D03*
X6175000Y51795000D03*
X5085000Y18605000D03*
X10925000Y41005000D03*
X33425000Y55005000D03*
X20425000Y1005000D03*
X19425000Y46005000D03*
X9425000Y55005000D03*
X19535000Y52435000D03*
X48425000Y19005000D03*
X8425000Y47005000D03*
X26425000Y55005000D03*
X31425000Y55905000D03*
X40425000Y55005000D03*
X21805000Y2285000D03*
X43425000Y55005000D03*
X22185000Y29225000D03*
X26175000Y34060000D03*
X12425000Y29355000D03*
X1425000Y11005000D03*
X42425000Y52005000D03*
X5425000Y49005000D03*
X25425000Y40005000D03*
X12425000Y3505000D03*
X13425000Y39005000D03*
X48425000Y36005000D03*
D18*
X36717500Y21165000D03*
D19*
X10425000Y1005000D03*
X30625000Y39330000D03*
X35965000Y33585000D03*
X19505000Y25905000D03*
X48425000Y39005000D03*
X28425000Y42005000D03*
X7125000Y16825000D03*
X15425000Y1005000D03*
X33425000Y55905000D03*
X5925000Y41005000D03*
X12275000Y28005000D03*
X8425000Y1005000D03*
X7985000Y38915000D03*
X17425000Y55905000D03*
X26425000Y55905000D03*
X18425000Y55005000D03*
X10355000Y2425000D03*
X39425000Y55005000D03*
X34575000Y18845000D03*
X45425000Y41005000D03*
X48425000Y48005000D03*
X37425000Y1005000D03*
X13425000Y48505000D03*
X6215000Y18615000D03*
X43425000Y37005000D03*
X42425000Y53005000D03*
D18*
X20435000Y17995000D03*
D19*
X10425000Y29505000D03*
X23515000Y38225000D03*
X41425000Y35005000D03*
X20425000Y55905000D03*
X9335000Y37825000D03*
X30315000Y24375000D03*
X29055000Y29815000D03*
X1425000Y1005000D03*
X48425000Y24005000D03*
X6425000Y54005000D03*
X45275000Y43115000D03*
X9425000Y1005000D03*
X45220000Y34890000D03*
X21425000Y32005000D03*
X42425000Y44005000D03*
X28005000Y16825000D03*
X6425000Y55905000D03*
X15425000Y11505000D03*
X8425000Y41005000D03*
X44425000Y13005000D03*
X44425000Y1005000D03*
X29425000Y1005000D03*
X48425000Y7005000D03*
X45425000Y37005000D03*
X39425000Y3005000D03*
X38425000Y46005000D03*
X32425000Y14715000D03*
X27155000Y39315000D03*
X13825000Y20255000D03*
X7955000Y35690000D03*
D17*
X43605000Y11005000D03*
D19*
X21425000Y21005000D03*
X6507500Y27395000D03*
X39605000Y18055000D03*
X26425000Y1005000D03*
X22425000Y1005000D03*
X48425000Y44005000D03*
X28885000Y18445000D03*
D18*
X47195000Y21965000D03*
D19*
X5425000Y47005000D03*
X48425000Y41005000D03*
D18*
X30145000Y11445000D03*
D19*
X20115000Y35445000D03*
X5425000Y51005000D03*
X29825000Y33625000D03*
X18425000Y1005000D03*
X24425000Y1005000D03*
X48425000Y13005000D03*
X34975000Y36505000D03*
X29425000Y55905000D03*
X40925000Y3005000D03*
X3365000Y45115000D03*
X34425000Y1005000D03*
X22325000Y36535000D03*
X1425000Y20005000D03*
X13425000Y1005000D03*
D18*
X47195000Y17135000D03*
D19*
%TO.N,CAN_RST*%
X25065000Y30485000D03*
X28955000Y21905000D03*
%TO.N,+6V5_CAN*%
X15675000Y22205000D03*
X19595000Y30125000D03*
X3125000Y22680000D03*
X1625000Y37815000D03*
X16525000Y22205000D03*
X32025000Y36505000D03*
%TO.N,/01_POWER_INPUT/BUCK_EN*%
X12720000Y33535000D03*
X14075000Y29355000D03*
%TO.N,/03_CAN_Interface/CAN_BUS_P*%
X41025000Y30145000D03*
X40125000Y26067500D03*
%TO.N,+3V3_VEH*%
X16125000Y14675000D03*
X21735000Y9505000D03*
X28825000Y2105000D03*
X2775000Y34245000D03*
%TO.N,/02_MCU_BLE_Controller/VDDR*%
X32625000Y13795000D03*
X32888233Y17283000D03*
X32425000Y21245000D03*
%TO.N,+3V3_SYS*%
X26635000Y22555000D03*
X34975000Y24185000D03*
X34420000Y25500000D03*
X27825000Y33105000D03*
D17*
X36365000Y10215000D03*
D19*
X34625000Y6605000D03*
X31225000Y23905000D03*
D18*
X23195000Y18745000D03*
D19*
X34625000Y7465000D03*
X30665000Y15375000D03*
D18*
X22435000Y14985000D03*
D19*
X32275000Y18845000D03*
%TO.N,CAN_nWKRQ*%
X27033235Y26630000D03*
X29254087Y24005913D03*
%TO.N,CAN_nINT*%
X30273000Y21905000D03*
X32805000Y25445000D03*
%TO.N,/04_Power_Back-up/+3V0_BAT*%
X23115000Y6395000D03*
X28325000Y6005000D03*
%TO.N,Net-(J202-SWDIO)*%
X23725000Y20775000D03*
X35445000Y13205000D03*
D17*
%TO.N,Net-(J202-SWCLK)*%
X39137500Y14554308D03*
X24665001Y19897185D03*
D19*
%TO.N,CAN_SPI_nCS*%
X28395000Y22505000D03*
X29925000Y26505000D03*
X32052500Y22937500D03*
%TD*%
%TA.AperFunction,Conductor*%
%TO.N,GND*%
G36*
X48982826Y56327826D02*
G01*
X49004500Y56275500D01*
X49004500Y574500D01*
X48982826Y522174D01*
X48930500Y500500D01*
X574500Y500500D01*
X522174Y522174D01*
X500500Y574500D01*
X500500Y2184060D01*
X28224500Y2184060D01*
X28224500Y2025941D01*
X28265421Y1873221D01*
X28265422Y1873219D01*
X28265423Y1873216D01*
X28344480Y1736284D01*
X28456284Y1624480D01*
X28593216Y1545423D01*
X28745940Y1504501D01*
X28745941Y1504500D01*
X28745943Y1504500D01*
X28904059Y1504500D01*
X28904059Y1504501D01*
X29056784Y1545423D01*
X29193716Y1624480D01*
X29305520Y1736284D01*
X29384577Y1873216D01*
X29425499Y2025941D01*
X29425500Y2025941D01*
X29425500Y2184059D01*
X29425499Y2184060D01*
X29384578Y2336780D01*
X29384577Y2336784D01*
X29305520Y2473716D01*
X29193716Y2585520D01*
X29056784Y2664577D01*
X29056781Y2664578D01*
X29056779Y2664579D01*
X28904059Y2705500D01*
X28904057Y2705500D01*
X28745943Y2705500D01*
X28745941Y2705500D01*
X28593220Y2664579D01*
X28593214Y2664576D01*
X28456283Y2585520D01*
X28344480Y2473717D01*
X28265424Y2336786D01*
X28265421Y2336780D01*
X28224500Y2184060D01*
X500500Y2184060D01*
X500500Y6474060D01*
X22514500Y6474060D01*
X22514500Y6315941D01*
X22555421Y6163221D01*
X22555422Y6163219D01*
X22555423Y6163216D01*
X22634480Y6026284D01*
X22746284Y5914480D01*
X22883216Y5835423D01*
X23035940Y5794501D01*
X23035941Y5794500D01*
X23035943Y5794500D01*
X23194059Y5794500D01*
X23194059Y5794501D01*
X23346784Y5835423D01*
X23483716Y5914480D01*
X23595520Y6026284D01*
X23628877Y6084060D01*
X27724500Y6084060D01*
X27724500Y5925941D01*
X27765421Y5773221D01*
X27765422Y5773219D01*
X27765423Y5773216D01*
X27844480Y5636284D01*
X27956284Y5524480D01*
X28093216Y5445423D01*
X28245940Y5404501D01*
X28245941Y5404500D01*
X28245943Y5404500D01*
X28404059Y5404500D01*
X28404059Y5404501D01*
X28556784Y5445423D01*
X28693716Y5524480D01*
X28805520Y5636284D01*
X28884577Y5773216D01*
X28925499Y5925941D01*
X28925500Y5925941D01*
X28925500Y6084059D01*
X28925499Y6084060D01*
X28914286Y6125906D01*
X28884577Y6236784D01*
X28805520Y6373716D01*
X28693716Y6485520D01*
X28556784Y6564577D01*
X28556781Y6564578D01*
X28556779Y6564579D01*
X28404059Y6605500D01*
X28404057Y6605500D01*
X28245943Y6605500D01*
X28245941Y6605500D01*
X28093220Y6564579D01*
X28093214Y6564576D01*
X27956283Y6485520D01*
X27844480Y6373717D01*
X27765424Y6236786D01*
X27765421Y6236780D01*
X27724500Y6084060D01*
X23628877Y6084060D01*
X23674577Y6163216D01*
X23715499Y6315941D01*
X23715500Y6315941D01*
X23715500Y6474059D01*
X23715499Y6474060D01*
X23712428Y6485520D01*
X23674577Y6626784D01*
X23595520Y6763716D01*
X23483716Y6875520D01*
X23346784Y6954577D01*
X23346781Y6954578D01*
X23346779Y6954579D01*
X23194059Y6995500D01*
X23194057Y6995500D01*
X23035943Y6995500D01*
X23035941Y6995500D01*
X22883220Y6954579D01*
X22883214Y6954576D01*
X22746283Y6875520D01*
X22634480Y6763717D01*
X22555424Y6626786D01*
X22555421Y6626780D01*
X22514500Y6474060D01*
X500500Y6474060D01*
X500500Y10370001D01*
X6060272Y10370001D01*
X6060273Y10370000D01*
X6975265Y10370000D01*
X6955000Y10294370D01*
X6955000Y10195630D01*
X6975265Y10120000D01*
X6060272Y10120000D01*
X6093427Y9953318D01*
X6093430Y9953307D01*
X6168809Y9771325D01*
X6278246Y9607541D01*
X6417540Y9468247D01*
X6581324Y9358810D01*
X6752596Y9287867D01*
X6792645Y9247819D01*
X6792645Y9191182D01*
X6752597Y9151133D01*
X6724278Y9145500D01*
X6661896Y9145500D01*
X6573436Y9134877D01*
X6432658Y9079362D01*
X6312078Y8987923D01*
X6312077Y8987922D01*
X6220638Y8867342D01*
X6183858Y8774073D01*
X6165123Y8726564D01*
X6154500Y8638102D01*
X6154500Y7851898D01*
X6154500Y7851896D01*
X6154499Y7851896D01*
X6165123Y7763437D01*
X6220638Y7622659D01*
X6280243Y7544059D01*
X6312078Y7502078D01*
X6432658Y7410639D01*
X6573436Y7355123D01*
X6644764Y7346558D01*
X6661896Y7344500D01*
X6661898Y7344500D01*
X7998104Y7344500D01*
X8013722Y7346376D01*
X8086564Y7355123D01*
X8227342Y7410639D01*
X8347922Y7502078D01*
X8379758Y7544060D01*
X34024500Y7544060D01*
X34024500Y7385941D01*
X34065421Y7233221D01*
X34065422Y7233219D01*
X34065423Y7233216D01*
X34121081Y7136813D01*
X34144480Y7096284D01*
X34153438Y7087326D01*
X34175112Y7035000D01*
X34153438Y6982674D01*
X34144480Y6973717D01*
X34065424Y6836786D01*
X34065421Y6836780D01*
X34024500Y6684060D01*
X34024500Y6525941D01*
X34065421Y6373221D01*
X34065422Y6373219D01*
X34065423Y6373216D01*
X34144480Y6236284D01*
X34256284Y6124480D01*
X34393216Y6045423D01*
X34545940Y6004501D01*
X34545941Y6004500D01*
X34545943Y6004500D01*
X34704059Y6004500D01*
X34704059Y6004501D01*
X34856784Y6045423D01*
X34993716Y6124480D01*
X35105520Y6236284D01*
X35184577Y6373216D01*
X35225499Y6525941D01*
X35225500Y6525941D01*
X35225500Y6684059D01*
X35225499Y6684060D01*
X35184578Y6836780D01*
X35184577Y6836784D01*
X35105520Y6973716D01*
X35096562Y6982674D01*
X35074888Y7035000D01*
X35096562Y7087326D01*
X35105520Y7096284D01*
X35184577Y7233216D01*
X35225499Y7385941D01*
X35225500Y7385941D01*
X35225500Y7544059D01*
X35225499Y7544060D01*
X35184578Y7696780D01*
X35184577Y7696784D01*
X35105520Y7833716D01*
X34993716Y7945520D01*
X34856784Y8024577D01*
X34856781Y8024578D01*
X34856779Y8024579D01*
X34704059Y8065500D01*
X34704057Y8065500D01*
X34545943Y8065500D01*
X34545941Y8065500D01*
X34393220Y8024579D01*
X34393214Y8024576D01*
X34256283Y7945520D01*
X34144480Y7833717D01*
X34065424Y7696786D01*
X34065421Y7696780D01*
X34024500Y7544060D01*
X8379758Y7544060D01*
X8439361Y7622658D01*
X8494877Y7763436D01*
X8505500Y7851898D01*
X8505500Y8638102D01*
X8494877Y8726564D01*
X8439361Y8867342D01*
X8347922Y8987922D01*
X8344101Y8990820D01*
X8227341Y9079362D01*
X8142079Y9112985D01*
X8086564Y9134877D01*
X8057076Y9138418D01*
X7998104Y9145500D01*
X7998102Y9145500D01*
X7935722Y9145500D01*
X7883396Y9167174D01*
X7861722Y9219500D01*
X7883396Y9271826D01*
X7907404Y9287867D01*
X8078675Y9358810D01*
X8242459Y9468247D01*
X8358272Y9584060D01*
X21134500Y9584060D01*
X21134500Y9425941D01*
X21175421Y9273221D01*
X21175422Y9273219D01*
X21175423Y9273216D01*
X21254480Y9136284D01*
X21366284Y9024480D01*
X21503216Y8945423D01*
X21655940Y8904501D01*
X21655941Y8904500D01*
X21655943Y8904500D01*
X21814059Y8904500D01*
X21814059Y8904501D01*
X21966784Y8945423D01*
X22103716Y9024480D01*
X22215520Y9136284D01*
X22294577Y9273216D01*
X22335499Y9425941D01*
X22335500Y9425941D01*
X22335500Y9584059D01*
X22335499Y9584060D01*
X22323184Y9630019D01*
X22294577Y9736784D01*
X22215520Y9873716D01*
X22103716Y9985520D01*
X21966784Y10064577D01*
X21966781Y10064578D01*
X21966779Y10064579D01*
X21814059Y10105500D01*
X21814057Y10105500D01*
X21655943Y10105500D01*
X21655941Y10105500D01*
X21503220Y10064579D01*
X21503214Y10064576D01*
X21366283Y9985520D01*
X21254480Y9873717D01*
X21175424Y9736786D01*
X21175421Y9736780D01*
X21134500Y9584060D01*
X8358272Y9584060D01*
X8381753Y9607541D01*
X8396773Y9630019D01*
X8491190Y9771325D01*
X8566569Y9953307D01*
X8566572Y9953318D01*
X8599727Y10120000D01*
X7684735Y10120000D01*
X7705000Y10195630D01*
X7705000Y10294370D01*
X7684735Y10370000D01*
X8599727Y10370000D01*
X8599727Y10370001D01*
X8566572Y10536683D01*
X8566569Y10536694D01*
X8542735Y10594235D01*
X8532511Y10618918D01*
X25464500Y10618918D01*
X25464500Y10471082D01*
X25471893Y10433918D01*
X25493340Y10326093D01*
X25493343Y10326083D01*
X25549915Y10189506D01*
X25632048Y10066585D01*
X25736584Y9962049D01*
X25859505Y9879916D01*
X25976285Y9831544D01*
X25996087Y9823342D01*
X26141082Y9794500D01*
X26141084Y9794500D01*
X26288916Y9794500D01*
X26288918Y9794500D01*
X26433913Y9823342D01*
X26570495Y9879916D01*
X26693416Y9962049D01*
X26797951Y10066584D01*
X26880084Y10189505D01*
X26921262Y10288917D01*
X35614500Y10288917D01*
X35614500Y10141084D01*
X35643340Y9996093D01*
X35643343Y9996083D01*
X35699915Y9859506D01*
X35780737Y9738548D01*
X35782049Y9736584D01*
X35886584Y9632049D01*
X36009505Y9549916D01*
X36146087Y9493342D01*
X36291082Y9464500D01*
X36291084Y9464500D01*
X36362979Y9464500D01*
X36415305Y9442826D01*
X36436979Y9390500D01*
X36422846Y9347006D01*
X36389026Y9300457D01*
X36311603Y9193894D01*
X36311600Y9193888D01*
X36208132Y8990822D01*
X36208130Y8990818D01*
X36137706Y8774073D01*
X36137703Y8774060D01*
X36102050Y8548958D01*
X36102050Y8321043D01*
X36137703Y8095941D01*
X36137706Y8095928D01*
X36208130Y7879183D01*
X36208132Y7879179D01*
X36311600Y7676113D01*
X36311603Y7676107D01*
X36438043Y7502078D01*
X36445566Y7491724D01*
X36606724Y7330566D01*
X36606727Y7330564D01*
X36606728Y7330563D01*
X36740715Y7233215D01*
X36791109Y7196602D01*
X36987113Y7096733D01*
X36994178Y7093133D01*
X36994182Y7093131D01*
X37073748Y7067279D01*
X37116815Y7030497D01*
X37121259Y6974034D01*
X37103209Y6944577D01*
X37092050Y6933419D01*
X37092048Y6933416D01*
X37009915Y6810495D01*
X36953343Y6673918D01*
X36953340Y6673908D01*
X36931593Y6564577D01*
X36924500Y6528918D01*
X36924500Y6381082D01*
X36926064Y6373221D01*
X36953340Y6236093D01*
X36953343Y6236083D01*
X37009915Y6099506D01*
X37058841Y6026284D01*
X37092049Y5976584D01*
X37196584Y5872049D01*
X37319505Y5789916D01*
X37456087Y5733342D01*
X37601082Y5704500D01*
X37601084Y5704500D01*
X37748916Y5704500D01*
X37748918Y5704500D01*
X37893913Y5733342D01*
X38030495Y5789916D01*
X38153416Y5872049D01*
X38257951Y5976584D01*
X38340084Y6099505D01*
X38396658Y6236087D01*
X38425500Y6381082D01*
X38425500Y6528918D01*
X38396658Y6673913D01*
X38340084Y6810495D01*
X38257951Y6933416D01*
X38172815Y7018552D01*
X38151141Y7070878D01*
X38172815Y7123204D01*
X38191539Y7136809D01*
X38308891Y7196602D01*
X38493276Y7330566D01*
X38654434Y7491724D01*
X38788398Y7676109D01*
X38891868Y7879180D01*
X38913423Y7945520D01*
X38962293Y8095928D01*
X38962293Y8095931D01*
X38962296Y8095938D01*
X38997950Y8321044D01*
X38997950Y8548956D01*
X38997950Y8548958D01*
X39277050Y8548958D01*
X39277050Y8321043D01*
X39312703Y8095941D01*
X39312706Y8095928D01*
X39383130Y7879183D01*
X39383132Y7879179D01*
X39486600Y7676113D01*
X39486603Y7676107D01*
X39613043Y7502078D01*
X39620566Y7491724D01*
X39781724Y7330566D01*
X39781727Y7330564D01*
X39781728Y7330563D01*
X39915715Y7233215D01*
X39966109Y7196602D01*
X40162113Y7096733D01*
X40169178Y7093133D01*
X40169182Y7093131D01*
X40385927Y7022707D01*
X40385933Y7022706D01*
X40385938Y7022704D01*
X40498491Y7004877D01*
X40611042Y6987050D01*
X40611044Y6987050D01*
X40838958Y6987050D01*
X40928998Y7001312D01*
X41064062Y7022704D01*
X41064069Y7022707D01*
X41064072Y7022707D01*
X41280817Y7093131D01*
X41280817Y7093132D01*
X41280820Y7093132D01*
X41483891Y7196602D01*
X41668276Y7330566D01*
X41829434Y7491724D01*
X41963398Y7676109D01*
X42066868Y7879180D01*
X42088423Y7945520D01*
X42137293Y8095928D01*
X42137293Y8095931D01*
X42137296Y8095938D01*
X42172950Y8321044D01*
X42172950Y8548956D01*
X42137296Y8774062D01*
X42137294Y8774067D01*
X42137293Y8774073D01*
X42066869Y8990818D01*
X42066867Y8990822D01*
X42021754Y9079361D01*
X41963398Y9193891D01*
X41935531Y9232246D01*
X41829437Y9378272D01*
X41829436Y9378273D01*
X41829434Y9378276D01*
X41668276Y9539434D01*
X41668273Y9539437D01*
X41668271Y9539438D01*
X41483893Y9673397D01*
X41483887Y9673400D01*
X41280821Y9776868D01*
X41280817Y9776870D01*
X41064072Y9847294D01*
X41064059Y9847297D01*
X40838958Y9882950D01*
X40838956Y9882950D01*
X40611044Y9882950D01*
X40611042Y9882950D01*
X40385940Y9847297D01*
X40385927Y9847294D01*
X40169182Y9776870D01*
X40169178Y9776868D01*
X39966112Y9673400D01*
X39966106Y9673397D01*
X39781728Y9539438D01*
X39620562Y9378272D01*
X39486603Y9193894D01*
X39486600Y9193888D01*
X39383132Y8990822D01*
X39383130Y8990818D01*
X39312706Y8774073D01*
X39312703Y8774060D01*
X39277050Y8548958D01*
X38997950Y8548958D01*
X38962296Y8774062D01*
X38962294Y8774067D01*
X38962293Y8774073D01*
X38891869Y8990818D01*
X38891867Y8990822D01*
X38846754Y9079361D01*
X38788398Y9193891D01*
X38760531Y9232246D01*
X38654437Y9378272D01*
X38654436Y9378273D01*
X38654434Y9378276D01*
X38493276Y9539434D01*
X38493273Y9539437D01*
X38493271Y9539438D01*
X38308893Y9673397D01*
X38308887Y9673400D01*
X38105821Y9776868D01*
X38105817Y9776870D01*
X37889072Y9847294D01*
X37889059Y9847297D01*
X37663958Y9882950D01*
X37663956Y9882950D01*
X37436044Y9882950D01*
X37436042Y9882950D01*
X37210940Y9847297D01*
X37210934Y9847295D01*
X37148775Y9827099D01*
X37126131Y9828882D01*
X37103502Y9826952D01*
X37098645Y9831046D01*
X37092313Y9831544D01*
X37077562Y9848816D01*
X37060195Y9863453D01*
X37059939Y9869449D01*
X37055530Y9874612D01*
X37055383Y9919885D01*
X37056333Y9922878D01*
X37086658Y9996087D01*
X37094088Y10033440D01*
X41874200Y10033440D01*
X41874200Y9884560D01*
X41879184Y9859506D01*
X41903243Y9738548D01*
X41903245Y9738541D01*
X41960218Y9600995D01*
X42032149Y9493344D01*
X42042932Y9477206D01*
X42148206Y9371932D01*
X42271994Y9289219D01*
X42409541Y9232245D01*
X42555560Y9203200D01*
X42555561Y9203200D01*
X42704439Y9203200D01*
X42704440Y9203200D01*
X42850459Y9232245D01*
X42988006Y9289219D01*
X43111794Y9371932D01*
X43217068Y9477206D01*
X43299781Y9600994D01*
X43356755Y9738541D01*
X43385800Y9884560D01*
X43385800Y10033440D01*
X43356755Y10179459D01*
X43299781Y10317006D01*
X43217068Y10440794D01*
X43111794Y10546068D01*
X43075237Y10570495D01*
X42988005Y10628782D01*
X42850459Y10685755D01*
X42850452Y10685757D01*
X42740450Y10707638D01*
X42704440Y10714800D01*
X42555560Y10714800D01*
X42526674Y10709055D01*
X42409547Y10685757D01*
X42409540Y10685755D01*
X42271994Y10628782D01*
X42148209Y10546071D01*
X42042929Y10440791D01*
X41960218Y10317006D01*
X41903245Y10179460D01*
X41903243Y10179453D01*
X41880393Y10064576D01*
X41874200Y10033440D01*
X37094088Y10033440D01*
X37115500Y10141082D01*
X37115500Y10226156D01*
X37137174Y10278482D01*
X37189500Y10300156D01*
X37217813Y10294525D01*
X37329541Y10248245D01*
X37475560Y10219200D01*
X37475561Y10219200D01*
X37624439Y10219200D01*
X37624440Y10219200D01*
X37770459Y10248245D01*
X37908006Y10305219D01*
X38031794Y10387932D01*
X38137068Y10493206D01*
X38219781Y10616994D01*
X38276755Y10754541D01*
X38305800Y10900560D01*
X38305800Y11049440D01*
X38276755Y11195459D01*
X38219781Y11333006D01*
X38137068Y11456794D01*
X38031794Y11562068D01*
X38031790Y11562071D01*
X37908005Y11644782D01*
X37770459Y11701755D01*
X37770452Y11701757D01*
X37660450Y11723638D01*
X37624440Y11730800D01*
X37475560Y11730800D01*
X37446674Y11725055D01*
X37329547Y11701757D01*
X37329540Y11701755D01*
X37191994Y11644782D01*
X37068209Y11562071D01*
X36962929Y11456791D01*
X36880218Y11333006D01*
X36823245Y11195460D01*
X36823243Y11195453D01*
X36794200Y11049440D01*
X36794200Y10960304D01*
X36772526Y10907978D01*
X36720200Y10886304D01*
X36691882Y10891937D01*
X36583917Y10936657D01*
X36583907Y10936660D01*
X36465039Y10960304D01*
X36438918Y10965500D01*
X36291082Y10965500D01*
X36264961Y10960304D01*
X36146092Y10936660D01*
X36146082Y10936657D01*
X36009505Y10880085D01*
X35886584Y10797952D01*
X35886583Y10797950D01*
X35782050Y10693417D01*
X35782048Y10693416D01*
X35699915Y10570495D01*
X35643343Y10433918D01*
X35643340Y10433908D01*
X35621893Y10326083D01*
X35615585Y10294370D01*
X35614500Y10288917D01*
X26921262Y10288917D01*
X26936658Y10326087D01*
X26965500Y10471082D01*
X26965500Y10618918D01*
X26936658Y10763913D01*
X26888538Y10880084D01*
X26880084Y10900495D01*
X26797951Y11023416D01*
X26693415Y11127952D01*
X26570494Y11210085D01*
X26433917Y11266657D01*
X26433907Y11266660D01*
X26336811Y11285974D01*
X26288918Y11295500D01*
X26141082Y11295500D01*
X26099977Y11287324D01*
X25996092Y11266660D01*
X25996082Y11266657D01*
X25859505Y11210085D01*
X25736584Y11127952D01*
X25736583Y11127950D01*
X25632050Y11023417D01*
X25632048Y11023416D01*
X25549915Y10900495D01*
X25493343Y10763918D01*
X25493340Y10763908D01*
X25479319Y10693417D01*
X25464500Y10618918D01*
X8532511Y10618918D01*
X8491190Y10718676D01*
X8381753Y10882460D01*
X8242459Y11021754D01*
X8078675Y11131191D01*
X7896693Y11206570D01*
X7896682Y11206573D01*
X7703490Y11245000D01*
X7455000Y11245000D01*
X7455000Y10599735D01*
X7379370Y10620000D01*
X7280630Y10620000D01*
X7205000Y10599735D01*
X7205000Y11245000D01*
X6956510Y11245000D01*
X6763317Y11206573D01*
X6763306Y11206570D01*
X6581324Y11131191D01*
X6417540Y11021754D01*
X6278246Y10882460D01*
X6168809Y10718676D01*
X6093430Y10536694D01*
X6093427Y10536683D01*
X6060272Y10370001D01*
X500500Y10370001D01*
X500500Y12065440D01*
X41874200Y12065440D01*
X41874200Y11916561D01*
X41903243Y11770548D01*
X41903245Y11770541D01*
X41960218Y11632995D01*
X42042929Y11509210D01*
X42042932Y11509206D01*
X42148206Y11403932D01*
X42271994Y11321219D01*
X42409541Y11264245D01*
X42555560Y11235200D01*
X42555561Y11235200D01*
X42704439Y11235200D01*
X42704440Y11235200D01*
X42850459Y11264245D01*
X42988006Y11321219D01*
X43111794Y11403932D01*
X43217068Y11509206D01*
X43299781Y11632994D01*
X43356755Y11770541D01*
X43385800Y11916560D01*
X43385800Y12065440D01*
X43356755Y12211459D01*
X43299781Y12349006D01*
X43217068Y12472794D01*
X43111794Y12578068D01*
X43072236Y12604500D01*
X42988005Y12660782D01*
X42850459Y12717755D01*
X42850452Y12717757D01*
X42740450Y12739638D01*
X42704440Y12746800D01*
X42555560Y12746800D01*
X42526674Y12741055D01*
X42409547Y12717757D01*
X42409540Y12717755D01*
X42271994Y12660782D01*
X42148209Y12578071D01*
X42042929Y12472791D01*
X41960218Y12349006D01*
X41903245Y12211460D01*
X41903243Y12211453D01*
X41874200Y12065440D01*
X500500Y12065440D01*
X500500Y13874060D01*
X32024500Y13874060D01*
X32024500Y13715941D01*
X32065421Y13563221D01*
X32065422Y13563219D01*
X32065423Y13563216D01*
X32144480Y13426284D01*
X32256284Y13314480D01*
X32393216Y13235423D01*
X32545940Y13194501D01*
X32545941Y13194500D01*
X32545943Y13194500D01*
X32704059Y13194500D01*
X32704059Y13194501D01*
X32856784Y13235423D01*
X32941027Y13284060D01*
X34844500Y13284060D01*
X34844500Y13125941D01*
X34885421Y12973221D01*
X34885422Y12973219D01*
X34885423Y12973216D01*
X34964480Y12836284D01*
X35076284Y12724480D01*
X35213216Y12645423D01*
X35365940Y12604501D01*
X35365941Y12604500D01*
X35365943Y12604500D01*
X35524059Y12604500D01*
X35524059Y12604501D01*
X35676784Y12645423D01*
X35813716Y12724480D01*
X35925520Y12836284D01*
X36004577Y12973216D01*
X36029855Y13067559D01*
X36064333Y13112490D01*
X36120485Y13119883D01*
X36165419Y13085404D01*
X36171711Y13071271D01*
X36208130Y12959183D01*
X36208132Y12959179D01*
X36311600Y12756113D01*
X36311603Y12756107D01*
X36445562Y12571729D01*
X36445566Y12571724D01*
X36606724Y12410566D01*
X36791109Y12276602D01*
X36918971Y12211453D01*
X36994178Y12173133D01*
X36994182Y12173131D01*
X37210927Y12102707D01*
X37210933Y12102706D01*
X37210938Y12102704D01*
X37323491Y12084877D01*
X37436042Y12067050D01*
X37436044Y12067050D01*
X37663958Y12067050D01*
X37753998Y12081312D01*
X37889062Y12102704D01*
X37889069Y12102707D01*
X37889072Y12102707D01*
X38105817Y12173131D01*
X38105817Y12173132D01*
X38105820Y12173132D01*
X38308891Y12276602D01*
X38493276Y12410566D01*
X38654434Y12571724D01*
X38788398Y12756109D01*
X38891868Y12959180D01*
X38962296Y13175938D01*
X38997950Y13401044D01*
X38997950Y13628956D01*
X38983761Y13718538D01*
X38996982Y13773610D01*
X39045273Y13803203D01*
X39059946Y13803633D01*
X39059946Y13803808D01*
X39215054Y13803808D01*
X39215054Y13802494D01*
X39265091Y13787318D01*
X39291792Y13737370D01*
X39291238Y13718537D01*
X39277050Y13628958D01*
X39277050Y13401043D01*
X39312703Y13175941D01*
X39312706Y13175928D01*
X39383130Y12959183D01*
X39383132Y12959179D01*
X39486600Y12756113D01*
X39486603Y12756107D01*
X39620562Y12571729D01*
X39620566Y12571724D01*
X39781724Y12410566D01*
X39966109Y12276602D01*
X40093971Y12211453D01*
X40169178Y12173133D01*
X40169182Y12173131D01*
X40385927Y12102707D01*
X40385933Y12102706D01*
X40385938Y12102704D01*
X40498491Y12084877D01*
X40611042Y12067050D01*
X40611044Y12067050D01*
X40838958Y12067050D01*
X40928998Y12081312D01*
X41064062Y12102704D01*
X41064069Y12102707D01*
X41064072Y12102707D01*
X41177167Y12139453D01*
X41280817Y12173131D01*
X41280817Y12173132D01*
X41280820Y12173132D01*
X41483891Y12276602D01*
X41668276Y12410566D01*
X41829434Y12571724D01*
X41963398Y12756109D01*
X42066868Y12959180D01*
X42137296Y13175938D01*
X42172950Y13401044D01*
X42172950Y13628956D01*
X42158761Y13718537D01*
X42145283Y13803633D01*
X42137296Y13854062D01*
X42137294Y13854067D01*
X42137293Y13854073D01*
X42066869Y14070818D01*
X42066867Y14070822D01*
X42044142Y14115423D01*
X41963398Y14273891D01*
X41962214Y14275520D01*
X41829437Y14458272D01*
X41829436Y14458273D01*
X41829434Y14458276D01*
X41668276Y14619434D01*
X41668273Y14619437D01*
X41668271Y14619438D01*
X41483893Y14753397D01*
X41483887Y14753400D01*
X41280821Y14856868D01*
X41280817Y14856870D01*
X41064072Y14927294D01*
X41064059Y14927297D01*
X40838958Y14962950D01*
X40838956Y14962950D01*
X40611044Y14962950D01*
X40611042Y14962950D01*
X40385940Y14927297D01*
X40385927Y14927294D01*
X40169185Y14856871D01*
X39966108Y14753398D01*
X39963637Y14751883D01*
X39963134Y14752703D01*
X39911072Y14740208D01*
X39862784Y14769805D01*
X39854288Y14784978D01*
X39841676Y14815425D01*
X39802584Y14909803D01*
X39720451Y15032724D01*
X39615916Y15137259D01*
X39607003Y15143215D01*
X39492994Y15219393D01*
X39356417Y15275965D01*
X39356407Y15275968D01*
X39255984Y15295943D01*
X39211418Y15304808D01*
X39063582Y15304808D01*
X39022477Y15296632D01*
X38918592Y15275968D01*
X38918582Y15275965D01*
X38782005Y15219393D01*
X38659084Y15137260D01*
X38659083Y15137258D01*
X38554550Y15032725D01*
X38554548Y15032724D01*
X38472416Y14909804D01*
X38420711Y14784977D01*
X38380662Y14744929D01*
X38324025Y14744929D01*
X38311436Y14751981D01*
X38311373Y14751877D01*
X38308892Y14753397D01*
X38308891Y14753398D01*
X38294757Y14760600D01*
X38105821Y14856868D01*
X38105817Y14856870D01*
X37889072Y14927294D01*
X37889059Y14927297D01*
X37663958Y14962950D01*
X37663956Y14962950D01*
X37436044Y14962950D01*
X37436042Y14962950D01*
X37210940Y14927297D01*
X37210927Y14927294D01*
X36994182Y14856870D01*
X36994178Y14856868D01*
X36791112Y14753400D01*
X36791106Y14753397D01*
X36606728Y14619438D01*
X36445562Y14458272D01*
X36311603Y14273894D01*
X36311600Y14273888D01*
X36208132Y14070822D01*
X36208130Y14070818D01*
X36137706Y13854073D01*
X36137703Y13854060D01*
X36102050Y13628958D01*
X36102050Y13544128D01*
X36080376Y13491802D01*
X36028050Y13470128D01*
X35975724Y13491802D01*
X35963964Y13507128D01*
X35942602Y13544128D01*
X35925520Y13573716D01*
X35813716Y13685520D01*
X35676784Y13764577D01*
X35676781Y13764578D01*
X35676779Y13764579D01*
X35524059Y13805500D01*
X35524057Y13805500D01*
X35365943Y13805500D01*
X35365941Y13805500D01*
X35213220Y13764579D01*
X35213214Y13764576D01*
X35076283Y13685520D01*
X34964480Y13573717D01*
X34885424Y13436786D01*
X34885421Y13436780D01*
X34844500Y13284060D01*
X32941027Y13284060D01*
X32993716Y13314480D01*
X33105520Y13426284D01*
X33184577Y13563216D01*
X33225499Y13715941D01*
X33225500Y13715941D01*
X33225500Y13874059D01*
X33225499Y13874060D01*
X33184578Y14026780D01*
X33184577Y14026784D01*
X33105520Y14163716D01*
X32993716Y14275520D01*
X32856784Y14354577D01*
X32856781Y14354578D01*
X32856779Y14354579D01*
X32704059Y14395500D01*
X32704057Y14395500D01*
X32545943Y14395500D01*
X32545941Y14395500D01*
X32393220Y14354579D01*
X32393214Y14354576D01*
X32256283Y14275520D01*
X32144480Y14163717D01*
X32065424Y14026786D01*
X32065421Y14026780D01*
X32024500Y13874060D01*
X500500Y13874060D01*
X500500Y14754060D01*
X15524500Y14754060D01*
X15524500Y14595941D01*
X15565421Y14443221D01*
X15565422Y14443219D01*
X15565423Y14443216D01*
X15644480Y14306284D01*
X15756284Y14194480D01*
X15893216Y14115423D01*
X16045940Y14074501D01*
X16045941Y14074500D01*
X16045943Y14074500D01*
X16204059Y14074500D01*
X16204059Y14074501D01*
X16356784Y14115423D01*
X16493716Y14194480D01*
X16605520Y14306284D01*
X16684577Y14443216D01*
X16725499Y14595941D01*
X16725500Y14595941D01*
X16725500Y14754059D01*
X16725499Y14754060D01*
X16709056Y14815425D01*
X16684577Y14906784D01*
X16605520Y15043716D01*
X16602630Y15046606D01*
X21809500Y15046606D01*
X21809500Y14923394D01*
X21812804Y14906785D01*
X21833535Y14802555D01*
X21833537Y14802548D01*
X21880688Y14688715D01*
X21942678Y14595941D01*
X21949142Y14586267D01*
X22036267Y14499142D01*
X22138714Y14430689D01*
X22252548Y14383537D01*
X22373394Y14359500D01*
X22496606Y14359500D01*
X22617452Y14383537D01*
X22731286Y14430689D01*
X22833733Y14499142D01*
X22920858Y14586267D01*
X22989311Y14688714D01*
X23036463Y14802548D01*
X23060500Y14923394D01*
X23060500Y15046606D01*
X23036463Y15167452D01*
X22989311Y15281286D01*
X22920858Y15383733D01*
X22850531Y15454060D01*
X30064500Y15454060D01*
X30064500Y15295941D01*
X30105421Y15143221D01*
X30105422Y15143219D01*
X30105423Y15143216D01*
X30184480Y15006284D01*
X30296284Y14894480D01*
X30433216Y14815423D01*
X30585940Y14774501D01*
X30585941Y14774500D01*
X30585943Y14774500D01*
X30744059Y14774500D01*
X30744059Y14774501D01*
X30896784Y14815423D01*
X31033716Y14894480D01*
X31145520Y15006284D01*
X31224577Y15143216D01*
X31265499Y15295941D01*
X31265500Y15295941D01*
X31265500Y15454059D01*
X31265499Y15454060D01*
X31224578Y15606780D01*
X31224577Y15606784D01*
X31145520Y15743716D01*
X31033716Y15855520D01*
X30896784Y15934577D01*
X30896781Y15934578D01*
X30896779Y15934579D01*
X30744059Y15975500D01*
X30744057Y15975500D01*
X30585943Y15975500D01*
X30585941Y15975500D01*
X30433220Y15934579D01*
X30433214Y15934576D01*
X30296283Y15855520D01*
X30184480Y15743717D01*
X30105424Y15606786D01*
X30105421Y15606780D01*
X30064500Y15454060D01*
X22850531Y15454060D01*
X22833733Y15470858D01*
X22731286Y15539311D01*
X22731287Y15539311D01*
X22731285Y15539312D01*
X22617452Y15586463D01*
X22617445Y15586465D01*
X22496606Y15610500D01*
X22373394Y15610500D01*
X22252554Y15586465D01*
X22252547Y15586463D01*
X22138714Y15539312D01*
X22036270Y15470861D01*
X21949139Y15383730D01*
X21880688Y15281286D01*
X21833537Y15167453D01*
X21833535Y15167446D01*
X21827531Y15137259D01*
X21809500Y15046606D01*
X16602630Y15046606D01*
X16493716Y15155520D01*
X16356784Y15234577D01*
X16356781Y15234578D01*
X16356779Y15234579D01*
X16204059Y15275500D01*
X16204057Y15275500D01*
X16045943Y15275500D01*
X16045941Y15275500D01*
X15893220Y15234579D01*
X15893214Y15234576D01*
X15756283Y15155520D01*
X15644480Y15043717D01*
X15565424Y14906786D01*
X15565421Y14906780D01*
X15524500Y14754060D01*
X500500Y14754060D01*
X500500Y17362060D01*
X32287733Y17362060D01*
X32287733Y17203941D01*
X32328654Y17051221D01*
X32328655Y17051219D01*
X32328656Y17051216D01*
X32407713Y16914284D01*
X32519517Y16802480D01*
X32656449Y16723423D01*
X32809173Y16682501D01*
X32809174Y16682500D01*
X32809176Y16682500D01*
X32967292Y16682500D01*
X32967292Y16682501D01*
X33120017Y16723423D01*
X33256949Y16802480D01*
X33368753Y16914284D01*
X33447810Y17051216D01*
X33488732Y17203941D01*
X33488733Y17203941D01*
X33488733Y17362059D01*
X33488732Y17362060D01*
X33447811Y17514780D01*
X33447810Y17514784D01*
X33368753Y17651716D01*
X33256949Y17763520D01*
X33120017Y17842577D01*
X33120014Y17842578D01*
X33120012Y17842579D01*
X32967292Y17883500D01*
X32967290Y17883500D01*
X32809176Y17883500D01*
X32809174Y17883500D01*
X32656453Y17842579D01*
X32656447Y17842576D01*
X32519516Y17763520D01*
X32407713Y17651717D01*
X32328657Y17514786D01*
X32328654Y17514780D01*
X32287733Y17362060D01*
X500500Y17362060D01*
X500500Y18806606D01*
X22569500Y18806606D01*
X22569500Y18683395D01*
X22593535Y18562555D01*
X22593537Y18562548D01*
X22640688Y18448715D01*
X22696972Y18364480D01*
X22709142Y18346267D01*
X22796267Y18259142D01*
X22898714Y18190689D01*
X23012548Y18143537D01*
X23133394Y18119500D01*
X23256606Y18119500D01*
X23377452Y18143537D01*
X23491286Y18190689D01*
X23593733Y18259142D01*
X23680858Y18346267D01*
X23749311Y18448714D01*
X23796463Y18562548D01*
X23820500Y18683394D01*
X23820500Y18806606D01*
X23799045Y18914472D01*
X23797138Y18924060D01*
X31674500Y18924060D01*
X31674500Y18765941D01*
X31715421Y18613221D01*
X31715422Y18613219D01*
X31715423Y18613216D01*
X31794480Y18476284D01*
X31906284Y18364480D01*
X32043216Y18285423D01*
X32195940Y18244501D01*
X32195941Y18244500D01*
X32195943Y18244500D01*
X32354059Y18244500D01*
X32354059Y18244501D01*
X32506784Y18285423D01*
X32643716Y18364480D01*
X32755520Y18476284D01*
X32834577Y18613216D01*
X32835055Y18615000D01*
X44850000Y18615000D01*
X46940000Y18615000D01*
X46940000Y20515000D01*
X44850000Y20515000D01*
X44850000Y18615000D01*
X32835055Y18615000D01*
X32875499Y18765941D01*
X32875500Y18765941D01*
X32875500Y18924059D01*
X32875499Y18924060D01*
X32834578Y19076780D01*
X32834577Y19076784D01*
X32755520Y19213716D01*
X32643716Y19325520D01*
X32506784Y19404577D01*
X32506781Y19404578D01*
X32506779Y19404579D01*
X32354059Y19445500D01*
X32354057Y19445500D01*
X32195943Y19445500D01*
X32195941Y19445500D01*
X32043220Y19404579D01*
X32043214Y19404576D01*
X31906283Y19325520D01*
X31794480Y19213717D01*
X31715424Y19076786D01*
X31715421Y19076780D01*
X31674500Y18924060D01*
X23797138Y18924060D01*
X23796465Y18927444D01*
X23796463Y18927448D01*
X23796463Y18927452D01*
X23749311Y19041286D01*
X23680858Y19143733D01*
X23593733Y19230858D01*
X23491286Y19299311D01*
X23491287Y19299311D01*
X23491285Y19299312D01*
X23377452Y19346463D01*
X23377445Y19346465D01*
X23256606Y19370500D01*
X23133394Y19370500D01*
X23012554Y19346465D01*
X23012547Y19346463D01*
X22898714Y19299312D01*
X22796270Y19230861D01*
X22709139Y19143730D01*
X22640688Y19041286D01*
X22593537Y18927453D01*
X22593535Y18927446D01*
X22569500Y18806606D01*
X500500Y18806606D01*
X500500Y20854060D01*
X23124500Y20854060D01*
X23124500Y20695941D01*
X23165421Y20543221D01*
X23165422Y20543219D01*
X23165423Y20543216D01*
X23244480Y20406284D01*
X23356284Y20294480D01*
X23493216Y20215423D01*
X23645940Y20174501D01*
X23645941Y20174500D01*
X23645943Y20174500D01*
X23804058Y20174500D01*
X23820926Y20179020D01*
X23848508Y20186411D01*
X23904660Y20179020D01*
X23939139Y20134087D01*
X23940239Y20100496D01*
X23914501Y19971102D01*
X23914501Y19823269D01*
X23943341Y19678278D01*
X23943344Y19678268D01*
X23999916Y19541691D01*
X23999917Y19541690D01*
X24082050Y19418769D01*
X24186585Y19314234D01*
X24309506Y19232101D01*
X24446088Y19175527D01*
X24591083Y19146685D01*
X24591085Y19146685D01*
X24738917Y19146685D01*
X24738919Y19146685D01*
X24883914Y19175527D01*
X25020496Y19232101D01*
X25143417Y19314234D01*
X25247952Y19418769D01*
X25330085Y19541690D01*
X25386659Y19678272D01*
X25415501Y19823267D01*
X25415501Y19971103D01*
X25386659Y20116098D01*
X25345516Y20215425D01*
X25330085Y20252680D01*
X25247952Y20375601D01*
X25143419Y20480134D01*
X25143417Y20480136D01*
X25137448Y20484125D01*
X25020495Y20562270D01*
X24883918Y20618842D01*
X24883908Y20618845D01*
X24786812Y20638159D01*
X24738919Y20647685D01*
X24591083Y20647685D01*
X24549978Y20639509D01*
X24446093Y20618845D01*
X24446088Y20618843D01*
X24425840Y20610456D01*
X24369203Y20610457D01*
X24329155Y20650507D01*
X24326511Y20690916D01*
X24324867Y20691132D01*
X24325500Y20695941D01*
X24325500Y20854059D01*
X24325499Y20854060D01*
X24284578Y21006780D01*
X24284577Y21006784D01*
X24205520Y21143716D01*
X24093716Y21255520D01*
X23956784Y21334577D01*
X23956781Y21334578D01*
X23956779Y21334579D01*
X23804059Y21375500D01*
X23804057Y21375500D01*
X23645943Y21375500D01*
X23645941Y21375500D01*
X23493220Y21334579D01*
X23493214Y21334576D01*
X23356283Y21255520D01*
X23244480Y21143717D01*
X23165424Y21006786D01*
X23165421Y21006780D01*
X23124500Y20854060D01*
X500500Y20854060D01*
X500500Y22759060D01*
X2524500Y22759060D01*
X2524500Y22600941D01*
X2565421Y22448221D01*
X2565422Y22448219D01*
X2565423Y22448216D01*
X2644480Y22311284D01*
X2756284Y22199480D01*
X2893216Y22120423D01*
X3045940Y22079501D01*
X3045941Y22079500D01*
X3045943Y22079500D01*
X3204059Y22079500D01*
X3204059Y22079501D01*
X3356784Y22120423D01*
X3493716Y22199480D01*
X3578296Y22284060D01*
X15074500Y22284060D01*
X15074500Y22125941D01*
X15115421Y21973221D01*
X15115422Y21973219D01*
X15115423Y21973216D01*
X15194480Y21836284D01*
X15306284Y21724480D01*
X15443216Y21645423D01*
X15595940Y21604501D01*
X15595941Y21604500D01*
X15595943Y21604500D01*
X15754059Y21604500D01*
X15754059Y21604501D01*
X15906784Y21645423D01*
X16043716Y21724480D01*
X16047674Y21728438D01*
X16100000Y21750112D01*
X16152326Y21728438D01*
X16156284Y21724480D01*
X16293216Y21645423D01*
X16445940Y21604501D01*
X16445941Y21604500D01*
X16445943Y21604500D01*
X16604059Y21604500D01*
X16604059Y21604501D01*
X16756784Y21645423D01*
X16893716Y21724480D01*
X17005520Y21836284D01*
X17084577Y21973216D01*
X17125499Y22125941D01*
X17125500Y22125941D01*
X17125500Y22284059D01*
X17125499Y22284060D01*
X17118204Y22311284D01*
X17084577Y22436784D01*
X17005520Y22573716D01*
X16945176Y22634060D01*
X26034500Y22634060D01*
X26034500Y22475941D01*
X26075421Y22323221D01*
X26075422Y22323219D01*
X26075423Y22323216D01*
X26154480Y22186284D01*
X26266284Y22074480D01*
X26403216Y21995423D01*
X26555940Y21954501D01*
X26555941Y21954500D01*
X26555943Y21954500D01*
X26714059Y21954500D01*
X26714059Y21954501D01*
X26866784Y21995423D01*
X27003716Y22074480D01*
X27115520Y22186284D01*
X27194577Y22323216D01*
X27235499Y22475941D01*
X27235500Y22475941D01*
X27235500Y22584060D01*
X27794500Y22584060D01*
X27794500Y22425941D01*
X27835421Y22273221D01*
X27835422Y22273219D01*
X27835423Y22273216D01*
X27914480Y22136284D01*
X28026284Y22024480D01*
X28163216Y21945423D01*
X28299653Y21908865D01*
X28344586Y21874387D01*
X28354500Y21837387D01*
X28354500Y21825941D01*
X28395421Y21673221D01*
X28395422Y21673219D01*
X28395423Y21673216D01*
X28474480Y21536284D01*
X28586284Y21424480D01*
X28723216Y21345423D01*
X28875940Y21304501D01*
X28875941Y21304500D01*
X28875943Y21304500D01*
X29034059Y21304500D01*
X29034059Y21304501D01*
X29186784Y21345423D01*
X29323716Y21424480D01*
X29435520Y21536284D01*
X29514577Y21673216D01*
X29542522Y21777507D01*
X29577000Y21822440D01*
X29633153Y21829832D01*
X29678086Y21795354D01*
X29685478Y21777507D01*
X29713421Y21673221D01*
X29713422Y21673219D01*
X29713423Y21673216D01*
X29792480Y21536284D01*
X29904284Y21424480D01*
X30041216Y21345423D01*
X30193940Y21304501D01*
X30193941Y21304500D01*
X30193943Y21304500D01*
X30352059Y21304500D01*
X30352059Y21304501D01*
X30425055Y21324060D01*
X31824500Y21324060D01*
X31824500Y21165941D01*
X31865421Y21013221D01*
X31865422Y21013219D01*
X31865423Y21013216D01*
X31944480Y20876284D01*
X32056284Y20764480D01*
X32193216Y20685423D01*
X32345940Y20644501D01*
X32345941Y20644500D01*
X32345943Y20644500D01*
X32504059Y20644500D01*
X32504059Y20644501D01*
X32656784Y20685423D01*
X32793716Y20764480D01*
X32905520Y20876284D01*
X32984577Y21013216D01*
X33025499Y21165941D01*
X33025500Y21165941D01*
X33025500Y21324059D01*
X33025499Y21324060D01*
X33022680Y21334579D01*
X32984577Y21476784D01*
X32905520Y21613716D01*
X32793716Y21725520D01*
X32656784Y21804577D01*
X32656781Y21804578D01*
X32656779Y21804579D01*
X32504059Y21845500D01*
X32504057Y21845500D01*
X32345943Y21845500D01*
X32345941Y21845500D01*
X32193220Y21804579D01*
X32193214Y21804576D01*
X32056283Y21725520D01*
X31944480Y21613717D01*
X31865424Y21476786D01*
X31865421Y21476780D01*
X31824500Y21324060D01*
X30425055Y21324060D01*
X30504784Y21345423D01*
X30641716Y21424480D01*
X30753520Y21536284D01*
X30832577Y21673216D01*
X30873499Y21825941D01*
X30873500Y21825941D01*
X30873500Y21984059D01*
X30873499Y21984060D01*
X30832578Y22136780D01*
X30832577Y22136784D01*
X30753520Y22273716D01*
X30641716Y22385520D01*
X30504784Y22464577D01*
X30504781Y22464578D01*
X30504779Y22464579D01*
X30352059Y22505500D01*
X30352057Y22505500D01*
X30193943Y22505500D01*
X30193941Y22505500D01*
X30041220Y22464579D01*
X30041214Y22464576D01*
X29904283Y22385520D01*
X29792480Y22273717D01*
X29713424Y22136786D01*
X29713421Y22136780D01*
X29685478Y22032494D01*
X29651000Y21987561D01*
X29594847Y21980169D01*
X29549914Y22014647D01*
X29542522Y22032494D01*
X29514578Y22136780D01*
X29514577Y22136784D01*
X29435520Y22273716D01*
X29323716Y22385520D01*
X29186784Y22464577D01*
X29186781Y22464578D01*
X29186779Y22464579D01*
X29050347Y22501136D01*
X29005414Y22535614D01*
X28995500Y22572614D01*
X28995500Y22584059D01*
X28995499Y22584060D01*
X28982102Y22634057D01*
X28954577Y22736784D01*
X28875520Y22873716D01*
X28763716Y22985520D01*
X28626784Y23064577D01*
X28626781Y23064578D01*
X28626779Y23064579D01*
X28474059Y23105500D01*
X28474057Y23105500D01*
X28315943Y23105500D01*
X28315941Y23105500D01*
X28163220Y23064579D01*
X28163214Y23064576D01*
X28026283Y22985520D01*
X27914480Y22873717D01*
X27835424Y22736786D01*
X27835421Y22736780D01*
X27794500Y22584060D01*
X27235500Y22584060D01*
X27235500Y22634059D01*
X27235499Y22634060D01*
X27228578Y22659888D01*
X27194577Y22786784D01*
X27115520Y22923716D01*
X27003716Y23035520D01*
X26866784Y23114577D01*
X26866781Y23114578D01*
X26866779Y23114579D01*
X26714059Y23155500D01*
X26714057Y23155500D01*
X26555943Y23155500D01*
X26555941Y23155500D01*
X26403220Y23114579D01*
X26403214Y23114576D01*
X26266283Y23035520D01*
X26154480Y22923717D01*
X26075424Y22786786D01*
X26075421Y22786780D01*
X26034500Y22634060D01*
X16945176Y22634060D01*
X16893716Y22685520D01*
X16756784Y22764577D01*
X16756781Y22764578D01*
X16756779Y22764579D01*
X16604059Y22805500D01*
X16604057Y22805500D01*
X16445943Y22805500D01*
X16445941Y22805500D01*
X16293220Y22764579D01*
X16293214Y22764576D01*
X16156283Y22685520D01*
X16152326Y22681562D01*
X16100000Y22659888D01*
X16047674Y22681562D01*
X16043716Y22685520D01*
X16008735Y22705716D01*
X15906784Y22764577D01*
X15906781Y22764578D01*
X15906779Y22764579D01*
X15754059Y22805500D01*
X15754057Y22805500D01*
X15595943Y22805500D01*
X15595941Y22805500D01*
X15443220Y22764579D01*
X15443214Y22764576D01*
X15306283Y22685520D01*
X15194480Y22573717D01*
X15115424Y22436786D01*
X15115421Y22436780D01*
X15074500Y22284060D01*
X3578296Y22284060D01*
X3605520Y22311284D01*
X3684577Y22448216D01*
X3725499Y22600941D01*
X3725500Y22600941D01*
X3725500Y22759059D01*
X3725499Y22759060D01*
X3718071Y22786780D01*
X3684577Y22911784D01*
X3605520Y23048716D01*
X3493716Y23160520D01*
X3356784Y23239577D01*
X3356781Y23239578D01*
X3356779Y23239579D01*
X3204059Y23280500D01*
X3204057Y23280500D01*
X3045943Y23280500D01*
X3045941Y23280500D01*
X2893220Y23239579D01*
X2893214Y23239576D01*
X2756283Y23160520D01*
X2644480Y23048717D01*
X2565424Y22911786D01*
X2565421Y22911780D01*
X2524500Y22759060D01*
X500500Y22759060D01*
X500500Y24084973D01*
X28653587Y24084973D01*
X28653587Y23926854D01*
X28694508Y23774134D01*
X28694509Y23774132D01*
X28694510Y23774129D01*
X28773567Y23637197D01*
X28885371Y23525393D01*
X29022303Y23446336D01*
X29175027Y23405414D01*
X29175028Y23405413D01*
X29175030Y23405413D01*
X29333146Y23405413D01*
X29333146Y23405414D01*
X29485871Y23446336D01*
X29622803Y23525393D01*
X29734607Y23637197D01*
X29813664Y23774129D01*
X29854586Y23926854D01*
X29854587Y23926854D01*
X29854587Y23984060D01*
X30624500Y23984060D01*
X30624500Y23825941D01*
X30665421Y23673221D01*
X30665422Y23673219D01*
X30665423Y23673216D01*
X30744480Y23536284D01*
X30856284Y23424480D01*
X30993216Y23345423D01*
X31145940Y23304501D01*
X31145941Y23304500D01*
X31145943Y23304500D01*
X31304059Y23304500D01*
X31304059Y23304501D01*
X31447277Y23342876D01*
X31503430Y23335484D01*
X31537908Y23290551D01*
X31530516Y23234399D01*
X31492925Y23169289D01*
X31492921Y23169280D01*
X31452000Y23016560D01*
X31452000Y22858441D01*
X31492921Y22705721D01*
X31492922Y22705719D01*
X31492923Y22705716D01*
X31571980Y22568784D01*
X31683784Y22456980D01*
X31820716Y22377923D01*
X31973440Y22337001D01*
X31973441Y22337000D01*
X31973443Y22337000D01*
X32131559Y22337000D01*
X32131559Y22337001D01*
X32284284Y22377923D01*
X32421216Y22456980D01*
X32533020Y22568784D01*
X32612077Y22705716D01*
X32652999Y22858441D01*
X32653000Y22858441D01*
X32653000Y23016559D01*
X32652999Y23016560D01*
X32640132Y23064579D01*
X32612077Y23169284D01*
X32533020Y23306216D01*
X32421216Y23418020D01*
X32284284Y23497077D01*
X32284281Y23497078D01*
X32284279Y23497079D01*
X32131559Y23538000D01*
X32131557Y23538000D01*
X31973443Y23538000D01*
X31830221Y23499624D01*
X31774069Y23507017D01*
X31739590Y23551951D01*
X31746982Y23608100D01*
X31784577Y23673216D01*
X31825499Y23825941D01*
X31825500Y23825941D01*
X31825500Y23984059D01*
X31825499Y23984060D01*
X31784578Y24136780D01*
X31784577Y24136784D01*
X31711095Y24264060D01*
X34374500Y24264060D01*
X34374500Y24105941D01*
X34415421Y23953221D01*
X34415422Y23953219D01*
X34415423Y23953216D01*
X34494480Y23816284D01*
X34606284Y23704480D01*
X34743216Y23625423D01*
X34895940Y23584501D01*
X34895941Y23584500D01*
X34895943Y23584500D01*
X35054059Y23584500D01*
X35054059Y23584501D01*
X35206784Y23625423D01*
X35343716Y23704480D01*
X35455520Y23816284D01*
X35534577Y23953216D01*
X35575499Y24105941D01*
X35575500Y24105941D01*
X35575500Y24264059D01*
X35575499Y24264060D01*
X35572911Y24273717D01*
X35534577Y24416784D01*
X35455520Y24553716D01*
X35343716Y24665520D01*
X35206784Y24744577D01*
X35206781Y24744578D01*
X35206779Y24744579D01*
X35054059Y24785500D01*
X35054057Y24785500D01*
X34895943Y24785500D01*
X34895941Y24785500D01*
X34743220Y24744579D01*
X34743214Y24744576D01*
X34606283Y24665520D01*
X34494480Y24553717D01*
X34415424Y24416786D01*
X34415421Y24416780D01*
X34374500Y24264060D01*
X31711095Y24264060D01*
X31705520Y24273716D01*
X31593716Y24385520D01*
X31456784Y24464577D01*
X31456781Y24464578D01*
X31456779Y24464579D01*
X31304059Y24505500D01*
X31304057Y24505500D01*
X31145943Y24505500D01*
X31145941Y24505500D01*
X30993220Y24464579D01*
X30993214Y24464576D01*
X30856283Y24385520D01*
X30744480Y24273717D01*
X30665424Y24136786D01*
X30665421Y24136780D01*
X30624500Y23984060D01*
X29854587Y23984060D01*
X29854587Y24084972D01*
X29854586Y24084973D01*
X29840704Y24136780D01*
X29813664Y24237697D01*
X29734607Y24374629D01*
X29622803Y24486433D01*
X29485871Y24565490D01*
X29485868Y24565491D01*
X29485866Y24565492D01*
X29333146Y24606413D01*
X29333144Y24606413D01*
X29175030Y24606413D01*
X29175028Y24606413D01*
X29022307Y24565492D01*
X29022301Y24565489D01*
X28885370Y24486433D01*
X28773567Y24374630D01*
X28694511Y24237699D01*
X28694508Y24237693D01*
X28653587Y24084973D01*
X500500Y24084973D01*
X500500Y25524060D01*
X32204500Y25524060D01*
X32204500Y25365941D01*
X32245421Y25213221D01*
X32245422Y25213219D01*
X32245423Y25213216D01*
X32324480Y25076284D01*
X32436284Y24964480D01*
X32573216Y24885423D01*
X32725940Y24844501D01*
X32725941Y24844500D01*
X32725943Y24844500D01*
X32884059Y24844500D01*
X32884059Y24844501D01*
X33036784Y24885423D01*
X33173716Y24964480D01*
X33285520Y25076284D01*
X33364577Y25213216D01*
X33405499Y25365941D01*
X33405500Y25365941D01*
X33405500Y25524056D01*
X33394595Y25564754D01*
X33394595Y25564757D01*
X33390762Y25579060D01*
X33819500Y25579060D01*
X33819500Y25420941D01*
X33860421Y25268221D01*
X33860422Y25268219D01*
X33860423Y25268216D01*
X33939480Y25131284D01*
X34051284Y25019480D01*
X34188216Y24940423D01*
X34340940Y24899501D01*
X34340941Y24899500D01*
X34340943Y24899500D01*
X34499059Y24899500D01*
X34499059Y24899501D01*
X34651784Y24940423D01*
X34788716Y25019480D01*
X34900520Y25131284D01*
X34979577Y25268216D01*
X35020499Y25420941D01*
X35020500Y25420941D01*
X35020500Y25579059D01*
X35020499Y25579060D01*
X34979578Y25731780D01*
X34979577Y25731784D01*
X34900520Y25868716D01*
X34788716Y25980520D01*
X34651784Y26059577D01*
X34651781Y26059578D01*
X34651779Y26059579D01*
X34575831Y26079929D01*
X34499059Y26100500D01*
X34499057Y26100500D01*
X34340943Y26100500D01*
X34340941Y26100500D01*
X34188220Y26059579D01*
X34188214Y26059576D01*
X34051283Y25980520D01*
X33939480Y25868717D01*
X33860424Y25731786D01*
X33860421Y25731780D01*
X33819500Y25579060D01*
X33390762Y25579060D01*
X33364578Y25676780D01*
X33364577Y25676784D01*
X33285520Y25813716D01*
X33173716Y25925520D01*
X33036784Y26004577D01*
X33036781Y26004578D01*
X33036779Y26004579D01*
X32884059Y26045500D01*
X32884057Y26045500D01*
X32725943Y26045500D01*
X32725941Y26045500D01*
X32573220Y26004579D01*
X32573214Y26004576D01*
X32436283Y25925520D01*
X32324480Y25813717D01*
X32245424Y25676786D01*
X32245421Y25676780D01*
X32204500Y25524060D01*
X500500Y25524060D01*
X500500Y26709060D01*
X26432735Y26709060D01*
X26432735Y26550941D01*
X26473656Y26398221D01*
X26473657Y26398219D01*
X26473658Y26398216D01*
X26552715Y26261284D01*
X26664519Y26149480D01*
X26801451Y26070423D01*
X26954175Y26029501D01*
X26954176Y26029500D01*
X26954178Y26029500D01*
X27112294Y26029500D01*
X27112294Y26029501D01*
X27265019Y26070423D01*
X27401951Y26149480D01*
X27513755Y26261284D01*
X27592812Y26398216D01*
X27633734Y26550941D01*
X27633735Y26550941D01*
X27633735Y26584060D01*
X29324500Y26584060D01*
X29324500Y26425941D01*
X29365421Y26273221D01*
X29365422Y26273219D01*
X29365423Y26273216D01*
X29444480Y26136284D01*
X29556284Y26024480D01*
X29693216Y25945423D01*
X29845940Y25904501D01*
X29845941Y25904500D01*
X29845943Y25904500D01*
X30004059Y25904500D01*
X30004059Y25904501D01*
X30156784Y25945423D01*
X30293716Y26024480D01*
X30405520Y26136284D01*
X30411453Y26146560D01*
X39524500Y26146560D01*
X39524500Y25988441D01*
X39565421Y25835721D01*
X39565422Y25835719D01*
X39565423Y25835716D01*
X39644480Y25698784D01*
X39756284Y25586980D01*
X39893216Y25507923D01*
X40045940Y25467001D01*
X40045941Y25467000D01*
X40045943Y25467000D01*
X40204059Y25467000D01*
X40204059Y25467001D01*
X40356784Y25507923D01*
X40493716Y25586980D01*
X40605520Y25698784D01*
X40684577Y25835716D01*
X40725499Y25988441D01*
X40725500Y25988441D01*
X40725500Y26146559D01*
X40725499Y26146560D01*
X40724716Y26149481D01*
X40684577Y26299284D01*
X40605520Y26436216D01*
X40493716Y26548020D01*
X40356784Y26627077D01*
X40356781Y26627078D01*
X40356779Y26627079D01*
X40204059Y26668000D01*
X40204057Y26668000D01*
X40045943Y26668000D01*
X40045941Y26668000D01*
X39893220Y26627079D01*
X39893214Y26627076D01*
X39756283Y26548020D01*
X39644480Y26436217D01*
X39565424Y26299286D01*
X39565421Y26299280D01*
X39524500Y26146560D01*
X30411453Y26146560D01*
X30484577Y26273216D01*
X30525499Y26425941D01*
X30525500Y26425941D01*
X30525500Y26584059D01*
X30525499Y26584060D01*
X30503007Y26668000D01*
X30484577Y26736784D01*
X30405520Y26873716D01*
X30293716Y26985520D01*
X30156784Y27064577D01*
X30156781Y27064578D01*
X30156779Y27064579D01*
X30004059Y27105500D01*
X30004057Y27105500D01*
X29845943Y27105500D01*
X29845941Y27105500D01*
X29693220Y27064579D01*
X29693214Y27064576D01*
X29556283Y26985520D01*
X29444480Y26873717D01*
X29365424Y26736786D01*
X29365421Y26736780D01*
X29324500Y26584060D01*
X27633735Y26584060D01*
X27633735Y26709059D01*
X27633734Y26709060D01*
X27626306Y26736780D01*
X27592812Y26861784D01*
X27513755Y26998716D01*
X27401951Y27110520D01*
X27265019Y27189577D01*
X27265016Y27189578D01*
X27265014Y27189579D01*
X27112294Y27230500D01*
X27112292Y27230500D01*
X26954178Y27230500D01*
X26954176Y27230500D01*
X26801455Y27189579D01*
X26801449Y27189576D01*
X26664518Y27110520D01*
X26552715Y26998717D01*
X26473659Y26861786D01*
X26473656Y26861780D01*
X26432735Y26709060D01*
X500500Y26709060D01*
X500500Y29434060D01*
X13474500Y29434060D01*
X13474500Y29275941D01*
X13515421Y29123221D01*
X13515422Y29123219D01*
X13515423Y29123216D01*
X13594480Y28986284D01*
X13706284Y28874480D01*
X13843216Y28795423D01*
X13995940Y28754501D01*
X13995941Y28754500D01*
X13995943Y28754500D01*
X14154059Y28754500D01*
X14154059Y28754501D01*
X14306784Y28795423D01*
X14443716Y28874480D01*
X14555520Y28986284D01*
X14634577Y29123216D01*
X14675499Y29275941D01*
X14675500Y29275941D01*
X14675500Y29434059D01*
X14675499Y29434060D01*
X14634578Y29586780D01*
X14634577Y29586784D01*
X14555520Y29723716D01*
X14443716Y29835520D01*
X14306784Y29914577D01*
X14306781Y29914578D01*
X14306779Y29914579D01*
X14154059Y29955500D01*
X14154057Y29955500D01*
X13995943Y29955500D01*
X13995941Y29955500D01*
X13843220Y29914579D01*
X13843214Y29914576D01*
X13706283Y29835520D01*
X13594480Y29723717D01*
X13515424Y29586786D01*
X13515421Y29586780D01*
X13474500Y29434060D01*
X500500Y29434060D01*
X500500Y30204060D01*
X18994500Y30204060D01*
X18994500Y30045941D01*
X19035421Y29893221D01*
X19035422Y29893219D01*
X19035423Y29893216D01*
X19114480Y29756284D01*
X19226284Y29644480D01*
X19363216Y29565423D01*
X19515940Y29524501D01*
X19515941Y29524500D01*
X19515943Y29524500D01*
X19674059Y29524500D01*
X19674059Y29524501D01*
X19826784Y29565423D01*
X19963716Y29644480D01*
X20075520Y29756284D01*
X20154577Y29893216D01*
X20195499Y30045941D01*
X20195500Y30045941D01*
X20195500Y30204059D01*
X20195499Y30204060D01*
X20182326Y30253221D01*
X20154577Y30356784D01*
X20075520Y30493716D01*
X20005176Y30564060D01*
X24464500Y30564060D01*
X24464500Y30405941D01*
X24505421Y30253221D01*
X24505422Y30253219D01*
X24505423Y30253216D01*
X24584480Y30116284D01*
X24696284Y30004480D01*
X24833216Y29925423D01*
X24985940Y29884501D01*
X24985941Y29884500D01*
X24985943Y29884500D01*
X25144059Y29884500D01*
X25144059Y29884501D01*
X25296784Y29925423D01*
X25433716Y30004480D01*
X25545520Y30116284D01*
X25607744Y30224060D01*
X40424500Y30224060D01*
X40424500Y30065941D01*
X40465421Y29913221D01*
X40465422Y29913219D01*
X40465423Y29913216D01*
X40544480Y29776284D01*
X40656284Y29664480D01*
X40793216Y29585423D01*
X40945940Y29544501D01*
X40945941Y29544500D01*
X40945943Y29544500D01*
X41104059Y29544500D01*
X41104059Y29544501D01*
X41256784Y29585423D01*
X41393716Y29664480D01*
X41505520Y29776284D01*
X41584577Y29913216D01*
X41625499Y30065941D01*
X41625500Y30065941D01*
X41625500Y30224059D01*
X41625499Y30224060D01*
X41617685Y30253221D01*
X41584577Y30376784D01*
X41505520Y30513716D01*
X41393716Y30625520D01*
X41256784Y30704577D01*
X41256781Y30704578D01*
X41256779Y30704579D01*
X41104059Y30745500D01*
X41104057Y30745500D01*
X40945943Y30745500D01*
X40945941Y30745500D01*
X40793220Y30704579D01*
X40793214Y30704576D01*
X40656283Y30625520D01*
X40544480Y30513717D01*
X40465424Y30376786D01*
X40465421Y30376780D01*
X40424500Y30224060D01*
X25607744Y30224060D01*
X25624577Y30253216D01*
X25665499Y30405941D01*
X25665500Y30405941D01*
X25665500Y30564059D01*
X25665499Y30564060D01*
X25630963Y30692949D01*
X25624577Y30716784D01*
X25545520Y30853716D01*
X25433716Y30965520D01*
X25296784Y31044577D01*
X25296781Y31044578D01*
X25296779Y31044579D01*
X25144059Y31085500D01*
X25144057Y31085500D01*
X24985943Y31085500D01*
X24985941Y31085500D01*
X24833220Y31044579D01*
X24833214Y31044576D01*
X24696283Y30965520D01*
X24584480Y30853717D01*
X24505424Y30716786D01*
X24505421Y30716780D01*
X24464500Y30564060D01*
X20005176Y30564060D01*
X19963716Y30605520D01*
X19826784Y30684577D01*
X19826781Y30684578D01*
X19826779Y30684579D01*
X19674059Y30725500D01*
X19674057Y30725500D01*
X19515943Y30725500D01*
X19515941Y30725500D01*
X19363220Y30684579D01*
X19363214Y30684576D01*
X19226283Y30605520D01*
X19114480Y30493717D01*
X19035424Y30356786D01*
X19035421Y30356780D01*
X18994500Y30204060D01*
X500500Y30204060D01*
X500500Y33614060D01*
X12119500Y33614060D01*
X12119500Y33455941D01*
X12160421Y33303221D01*
X12160422Y33303219D01*
X12160423Y33303216D01*
X12239480Y33166284D01*
X12351284Y33054480D01*
X12488216Y32975423D01*
X12640940Y32934501D01*
X12640941Y32934500D01*
X12640943Y32934500D01*
X12799059Y32934500D01*
X12799059Y32934501D01*
X12951784Y32975423D01*
X13088716Y33054480D01*
X13200520Y33166284D01*
X13210783Y33184060D01*
X27224500Y33184060D01*
X27224500Y33025941D01*
X27265421Y32873221D01*
X27265422Y32873219D01*
X27265423Y32873216D01*
X27344480Y32736284D01*
X27456284Y32624480D01*
X27593216Y32545423D01*
X27745940Y32504501D01*
X27745941Y32504500D01*
X27745943Y32504500D01*
X27904059Y32504500D01*
X27904059Y32504501D01*
X28056784Y32545423D01*
X28193716Y32624480D01*
X28305520Y32736284D01*
X28384577Y32873216D01*
X28424725Y33023054D01*
X43715000Y33023054D01*
X43715000Y32786947D01*
X43751934Y32553752D01*
X43751937Y32553739D01*
X43824892Y32329208D01*
X43932084Y32118829D01*
X44066728Y31933508D01*
X44747666Y32614446D01*
X44774890Y32567292D01*
X44877292Y32464890D01*
X44924443Y32437668D01*
X44243506Y31756730D01*
X44413292Y31633373D01*
X44442885Y31585082D01*
X44429663Y31530010D01*
X44413292Y31513639D01*
X44302639Y31433246D01*
X44302635Y31433242D01*
X44146758Y31277365D01*
X44146755Y31277362D01*
X44146755Y31277361D01*
X44017186Y31099025D01*
X44017186Y31099024D01*
X43917103Y30902603D01*
X43848987Y30692962D01*
X43848984Y30692949D01*
X43814500Y30475224D01*
X43814500Y30254777D01*
X43848984Y30037052D01*
X43848987Y30037039D01*
X43917103Y29827398D01*
X43917104Y29827395D01*
X43917105Y29827394D01*
X44010305Y29644480D01*
X44017186Y29630977D01*
X44017186Y29630976D01*
X44050118Y29585649D01*
X44146758Y29452635D01*
X44146762Y29452631D01*
X44146763Y29452630D01*
X44262010Y29337383D01*
X44283684Y29285057D01*
X44262010Y29232731D01*
X44236831Y29216216D01*
X44092657Y29159362D01*
X43972077Y29067924D01*
X43972076Y29067923D01*
X43880638Y28947343D01*
X43825123Y28806565D01*
X43814500Y28718106D01*
X43814500Y26931897D01*
X43814501Y26931895D01*
X43825121Y26843442D01*
X43825122Y26843438D01*
X43880638Y26702658D01*
X43970576Y26584057D01*
X43972077Y26582077D01*
X44092657Y26490639D01*
X44233435Y26435123D01*
X44321897Y26424500D01*
X46108102Y26424501D01*
X46108103Y26424501D01*
X46108103Y26424502D01*
X46178907Y26433003D01*
X46196558Y26435122D01*
X46196559Y26435123D01*
X46196565Y26435123D01*
X46337343Y26490639D01*
X46457923Y26582077D01*
X46549361Y26702657D01*
X46604877Y26843435D01*
X46615500Y26931897D01*
X46615499Y27904827D01*
X46944500Y27904827D01*
X46944500Y27745174D01*
X46975645Y27588593D01*
X46975648Y27588582D01*
X47036743Y27441085D01*
X47036744Y27441084D01*
X47125443Y27308336D01*
X47238336Y27195443D01*
X47371084Y27106744D01*
X47518586Y27045647D01*
X47675173Y27014500D01*
X47675174Y27014500D01*
X47834826Y27014500D01*
X47834827Y27014500D01*
X47991414Y27045647D01*
X48138916Y27106744D01*
X48271664Y27195443D01*
X48384557Y27308336D01*
X48473256Y27441084D01*
X48534353Y27588586D01*
X48565500Y27745173D01*
X48565500Y27904827D01*
X48534353Y28061414D01*
X48473256Y28208916D01*
X48384557Y28341664D01*
X48271664Y28454557D01*
X48138916Y28543256D01*
X48138917Y28543256D01*
X48138915Y28543257D01*
X47991418Y28604352D01*
X47991407Y28604355D01*
X47873443Y28627819D01*
X47834827Y28635500D01*
X47675173Y28635500D01*
X47644196Y28629339D01*
X47518592Y28604355D01*
X47518581Y28604352D01*
X47371084Y28543257D01*
X47238336Y28454558D01*
X47238335Y28454556D01*
X47125444Y28341665D01*
X47125442Y28341664D01*
X47036743Y28208916D01*
X46975648Y28061419D01*
X46975645Y28061408D01*
X46944500Y27904827D01*
X46615499Y27904827D01*
X46615499Y28718102D01*
X46604877Y28806565D01*
X46549361Y28947343D01*
X46457923Y29067923D01*
X46337343Y29159361D01*
X46337342Y29159362D01*
X46265611Y29187649D01*
X46196565Y29214877D01*
X46196562Y29214878D01*
X46193168Y29216216D01*
X46152441Y29255575D01*
X46151474Y29312204D01*
X46167987Y29337381D01*
X46283242Y29452635D01*
X46412815Y29630978D01*
X46512895Y29827394D01*
X46562831Y29981084D01*
X46581012Y30037039D01*
X46581012Y30037042D01*
X46581015Y30037049D01*
X46610635Y30224060D01*
X46615500Y30254777D01*
X46615500Y30444827D01*
X46944500Y30444827D01*
X46944500Y30285174D01*
X46975645Y30128593D01*
X46975648Y30128582D01*
X47036743Y29981085D01*
X47125442Y29848337D01*
X47238336Y29735443D01*
X47371084Y29646744D01*
X47409151Y29630976D01*
X47518586Y29585647D01*
X47675173Y29554500D01*
X47675174Y29554500D01*
X47834826Y29554500D01*
X47834827Y29554500D01*
X47991414Y29585647D01*
X48138916Y29646744D01*
X48271664Y29735443D01*
X48384557Y29848336D01*
X48473256Y29981084D01*
X48534353Y30128586D01*
X48565500Y30285173D01*
X48565500Y30444827D01*
X48534353Y30601414D01*
X48473256Y30748916D01*
X48384557Y30881664D01*
X48271664Y30994557D01*
X48196804Y31044577D01*
X48138915Y31083257D01*
X47991418Y31144352D01*
X47991407Y31144355D01*
X47873443Y31167819D01*
X47834827Y31175500D01*
X47675173Y31175500D01*
X47644196Y31169339D01*
X47518592Y31144355D01*
X47518581Y31144352D01*
X47371084Y31083257D01*
X47238336Y30994558D01*
X47238335Y30994556D01*
X47125444Y30881665D01*
X47125442Y30881664D01*
X47036743Y30748916D01*
X46975648Y30601419D01*
X46975645Y30601408D01*
X46944500Y30444827D01*
X46615500Y30444827D01*
X46615500Y30475224D01*
X46581015Y30692949D01*
X46581012Y30692962D01*
X46512896Y30902603D01*
X46512895Y30902604D01*
X46512895Y30902606D01*
X46412815Y31099022D01*
X46283242Y31277365D01*
X46127365Y31433242D01*
X46016706Y31513640D01*
X45987114Y31561930D01*
X46000336Y31617002D01*
X46016707Y31633373D01*
X46186492Y31756730D01*
X45505556Y32437668D01*
X45552708Y32464890D01*
X45655110Y32567292D01*
X45682333Y32614445D01*
X46363270Y31933508D01*
X46497915Y32118830D01*
X46605107Y32329208D01*
X46678062Y32553739D01*
X46678065Y32553752D01*
X46715000Y32786947D01*
X46715000Y32984827D01*
X46944500Y32984827D01*
X46944500Y32825174D01*
X46975645Y32668593D01*
X46975648Y32668582D01*
X47036743Y32521085D01*
X47122673Y32392482D01*
X47125443Y32388336D01*
X47238336Y32275443D01*
X47371084Y32186744D01*
X47518586Y32125647D01*
X47675173Y32094500D01*
X47675174Y32094500D01*
X47834826Y32094500D01*
X47834827Y32094500D01*
X47991414Y32125647D01*
X48138916Y32186744D01*
X48271664Y32275443D01*
X48384557Y32388336D01*
X48473256Y32521084D01*
X48534353Y32668586D01*
X48565500Y32825173D01*
X48565500Y32984827D01*
X48534353Y33141414D01*
X48473256Y33288916D01*
X48384557Y33421664D01*
X48271664Y33534557D01*
X48195393Y33585520D01*
X48138915Y33623257D01*
X47991418Y33684352D01*
X47991407Y33684355D01*
X47873443Y33707819D01*
X47834827Y33715500D01*
X47675173Y33715500D01*
X47644196Y33709339D01*
X47518592Y33684355D01*
X47518581Y33684352D01*
X47371084Y33623257D01*
X47238336Y33534558D01*
X47238335Y33534556D01*
X47125444Y33421665D01*
X47125442Y33421664D01*
X47036743Y33288916D01*
X46975648Y33141419D01*
X46975645Y33141408D01*
X46944500Y32984827D01*
X46715000Y32984827D01*
X46715000Y33023054D01*
X46678065Y33256249D01*
X46678062Y33256262D01*
X46605107Y33480793D01*
X46497915Y33691172D01*
X46363270Y33876494D01*
X45682332Y33195557D01*
X45655110Y33242708D01*
X45552708Y33345110D01*
X45505554Y33372334D01*
X46186492Y34053272D01*
X46001171Y34187916D01*
X45790792Y34295108D01*
X45566261Y34368063D01*
X45566248Y34368066D01*
X45333054Y34405000D01*
X45096946Y34405000D01*
X44863751Y34368066D01*
X44863738Y34368063D01*
X44639207Y34295108D01*
X44428828Y34187916D01*
X44243506Y34053271D01*
X44924444Y33372333D01*
X44877292Y33345110D01*
X44774890Y33242708D01*
X44747667Y33195556D01*
X44066729Y33876494D01*
X43932084Y33691172D01*
X43824892Y33480793D01*
X43751937Y33256262D01*
X43751934Y33256249D01*
X43715000Y33023054D01*
X28424725Y33023054D01*
X28425499Y33025941D01*
X28425500Y33025941D01*
X28425500Y33184059D01*
X28425499Y33184060D01*
X28409784Y33242708D01*
X28384577Y33336784D01*
X28305520Y33473716D01*
X28193716Y33585520D01*
X28056784Y33664577D01*
X28056781Y33664578D01*
X28056779Y33664579D01*
X27904059Y33705500D01*
X27904057Y33705500D01*
X27745943Y33705500D01*
X27745941Y33705500D01*
X27593220Y33664579D01*
X27593214Y33664576D01*
X27456283Y33585520D01*
X27344480Y33473717D01*
X27265424Y33336786D01*
X27265421Y33336780D01*
X27224500Y33184060D01*
X13210783Y33184060D01*
X13279577Y33303216D01*
X13320499Y33455941D01*
X13320500Y33455941D01*
X13320500Y33614059D01*
X13320499Y33614060D01*
X13312342Y33644501D01*
X13279577Y33766784D01*
X13200520Y33903716D01*
X13088716Y34015520D01*
X12951784Y34094577D01*
X12951781Y34094578D01*
X12951779Y34094579D01*
X12799059Y34135500D01*
X12799057Y34135500D01*
X12640943Y34135500D01*
X12640941Y34135500D01*
X12488220Y34094579D01*
X12488214Y34094576D01*
X12351283Y34015520D01*
X12239480Y33903717D01*
X12160424Y33766786D01*
X12160421Y33766780D01*
X12119500Y33614060D01*
X500500Y33614060D01*
X500500Y34324060D01*
X2174500Y34324060D01*
X2174500Y34165941D01*
X2215421Y34013221D01*
X2215422Y34013219D01*
X2215423Y34013216D01*
X2294480Y33876284D01*
X2406284Y33764480D01*
X2543216Y33685423D01*
X2695940Y33644501D01*
X2695941Y33644500D01*
X2695943Y33644500D01*
X2854059Y33644500D01*
X2854059Y33644501D01*
X3006784Y33685423D01*
X3143716Y33764480D01*
X3255520Y33876284D01*
X3334577Y34013216D01*
X3375499Y34165941D01*
X3375500Y34165941D01*
X3375500Y34324059D01*
X3375499Y34324060D01*
X3363708Y34368063D01*
X3334577Y34476784D01*
X3255520Y34613716D01*
X3143716Y34725520D01*
X3006784Y34804577D01*
X3006781Y34804578D01*
X3006779Y34804579D01*
X2854059Y34845500D01*
X2854057Y34845500D01*
X2695943Y34845500D01*
X2695941Y34845500D01*
X2543220Y34804579D01*
X2543214Y34804576D01*
X2406283Y34725520D01*
X2294480Y34613717D01*
X2215424Y34476786D01*
X2215421Y34476780D01*
X2174500Y34324060D01*
X500500Y34324060D01*
X500500Y36584060D01*
X31424500Y36584060D01*
X31424500Y36425941D01*
X31465421Y36273221D01*
X31465422Y36273219D01*
X31465423Y36273216D01*
X31544480Y36136284D01*
X31656284Y36024480D01*
X31793216Y35945423D01*
X31945940Y35904501D01*
X31945941Y35904500D01*
X31945943Y35904500D01*
X32104059Y35904500D01*
X32104059Y35904501D01*
X32256784Y35945423D01*
X32393716Y36024480D01*
X32505520Y36136284D01*
X32584577Y36273216D01*
X32625499Y36425941D01*
X32625500Y36425941D01*
X32625500Y36584059D01*
X32625499Y36584060D01*
X32584578Y36736780D01*
X32584577Y36736784D01*
X32505520Y36873716D01*
X32393716Y36985520D01*
X32256784Y37064577D01*
X32256781Y37064578D01*
X32256779Y37064579D01*
X32104059Y37105500D01*
X32104057Y37105500D01*
X31945943Y37105500D01*
X31945941Y37105500D01*
X31793220Y37064579D01*
X31793214Y37064576D01*
X31656283Y36985520D01*
X31544480Y36873717D01*
X31465424Y36736786D01*
X31465421Y36736780D01*
X31424500Y36584060D01*
X500500Y36584060D01*
X500500Y37894060D01*
X1024500Y37894060D01*
X1024500Y37735941D01*
X1065421Y37583221D01*
X1065422Y37583219D01*
X1065423Y37583216D01*
X1144480Y37446284D01*
X1256284Y37334480D01*
X1393216Y37255423D01*
X1545940Y37214501D01*
X1545941Y37214500D01*
X1545943Y37214500D01*
X1704059Y37214500D01*
X1704059Y37214501D01*
X1856784Y37255423D01*
X1993716Y37334480D01*
X2105520Y37446284D01*
X2184577Y37583216D01*
X2225499Y37735941D01*
X2225500Y37735941D01*
X2225500Y37894059D01*
X2225499Y37894060D01*
X2184578Y38046780D01*
X2184577Y38046784D01*
X2105520Y38183716D01*
X1993716Y38295520D01*
X1856784Y38374577D01*
X1856781Y38374578D01*
X1856779Y38374579D01*
X1704059Y38415500D01*
X1704057Y38415500D01*
X1545943Y38415500D01*
X1545941Y38415500D01*
X1393220Y38374579D01*
X1393214Y38374576D01*
X1256283Y38295520D01*
X1144480Y38183717D01*
X1065424Y38046786D01*
X1065421Y38046780D01*
X1024500Y37894060D01*
X500500Y37894060D01*
X500500Y50604827D01*
X6424500Y50604827D01*
X6424500Y50445174D01*
X6455645Y50288593D01*
X6455648Y50288582D01*
X6516743Y50141085D01*
X6516744Y50141084D01*
X6605443Y50008336D01*
X6718336Y49895443D01*
X6851084Y49806744D01*
X6998586Y49745647D01*
X7155173Y49714500D01*
X7155174Y49714500D01*
X7314826Y49714500D01*
X7314827Y49714500D01*
X7471414Y49745647D01*
X7618916Y49806744D01*
X7751664Y49895443D01*
X7864557Y50008336D01*
X7953256Y50141084D01*
X8014353Y50288586D01*
X8045500Y50445173D01*
X8045500Y50604827D01*
X8014353Y50761414D01*
X7953256Y50908916D01*
X7864557Y51041664D01*
X7751664Y51154557D01*
X7618916Y51243256D01*
X7618917Y51243256D01*
X7618915Y51243257D01*
X7471418Y51304352D01*
X7471407Y51304355D01*
X7353443Y51327819D01*
X7314827Y51335500D01*
X7155173Y51335500D01*
X7124196Y51329339D01*
X6998592Y51304355D01*
X6998581Y51304352D01*
X6851084Y51243257D01*
X6718336Y51154558D01*
X6718335Y51154556D01*
X6605444Y51041665D01*
X6605442Y51041664D01*
X6516743Y50908916D01*
X6455648Y50761419D01*
X6455645Y50761408D01*
X6424500Y50604827D01*
X500500Y50604827D01*
X500500Y53144827D01*
X6424500Y53144827D01*
X6424500Y52985174D01*
X6455645Y52828593D01*
X6455648Y52828582D01*
X6516743Y52681085D01*
X6516744Y52681084D01*
X6605443Y52548336D01*
X6718336Y52435443D01*
X6851084Y52346744D01*
X6998586Y52285647D01*
X7155173Y52254500D01*
X7155174Y52254500D01*
X7314826Y52254500D01*
X7314827Y52254500D01*
X7471414Y52285647D01*
X7618916Y52346744D01*
X7751664Y52435443D01*
X7864557Y52548336D01*
X7953256Y52681084D01*
X8014353Y52828586D01*
X8045500Y52985173D01*
X8045500Y53144827D01*
X8014353Y53301414D01*
X7953256Y53448916D01*
X7864557Y53581664D01*
X7751664Y53694557D01*
X7618916Y53783256D01*
X7618917Y53783256D01*
X7618915Y53783257D01*
X7471418Y53844352D01*
X7471407Y53844355D01*
X7353443Y53867819D01*
X7314827Y53875500D01*
X7155173Y53875500D01*
X7124196Y53869339D01*
X6998592Y53844355D01*
X6998581Y53844352D01*
X6851084Y53783257D01*
X6718336Y53694558D01*
X6718335Y53694556D01*
X6605444Y53581665D01*
X6605442Y53581664D01*
X6516743Y53448916D01*
X6455648Y53301419D01*
X6455645Y53301408D01*
X6424500Y53144827D01*
X500500Y53144827D01*
X500500Y53958106D01*
X8374500Y53958106D01*
X8374500Y52171897D01*
X8374501Y52171895D01*
X8385121Y52083442D01*
X8385122Y52083438D01*
X8440638Y51942658D01*
X8440639Y51942657D01*
X8532077Y51822077D01*
X8652657Y51730639D01*
X8793435Y51675123D01*
X8881897Y51664500D01*
X10668102Y51664501D01*
X10668103Y51664501D01*
X10668103Y51664502D01*
X10738907Y51673003D01*
X10756558Y51675122D01*
X10756559Y51675123D01*
X10756565Y51675123D01*
X10897343Y51730639D01*
X11017923Y51822077D01*
X11109361Y51942657D01*
X11164877Y52083435D01*
X11175500Y52171897D01*
X11175499Y53958102D01*
X11164877Y54046565D01*
X11109361Y54187343D01*
X11017923Y54307923D01*
X10897343Y54399361D01*
X10897342Y54399362D01*
X10812080Y54432985D01*
X10756565Y54454877D01*
X10727077Y54458418D01*
X10668105Y54465500D01*
X8881896Y54465500D01*
X8881894Y54465499D01*
X8793441Y54454879D01*
X8793437Y54454878D01*
X8652657Y54399362D01*
X8532077Y54307924D01*
X8532076Y54307923D01*
X8440638Y54187343D01*
X8385123Y54046565D01*
X8374500Y53958106D01*
X500500Y53958106D01*
X500500Y56275500D01*
X522174Y56327826D01*
X574500Y56349500D01*
X48930500Y56349500D01*
X48982826Y56327826D01*
G37*
%TD.AperFunction*%
%TD*%
M02*
