%TF.GenerationSoftware,KiCad,Pcbnew,10.0.6*%
%TF.CreationDate,2026-09-30T18:09:34+05:30*%
%TF.ProjectId,BLE-CAN-module,42797465-6265-4616-9d2d-424c452d4341,A*%
%TF.SameCoordinates,PX60de958PY69dcd48*%
%TF.FileFunction,Legend,Top*%
%TF.FilePolarity,Positive*%
%FSLAX46Y46*%
G04 Gerber Fmt 4.6, Leading zero omitted, Abs format (unit mm)*
G04 Created by KiCad (PCBNEW 10.0.6) date 2026-09-30 18:09:34*
%MOMM*%
%LPD*%
G01*
G04 APERTURE LIST*
%ADD10C,0.100000*%
%ADD11C,0.187500*%
%ADD12C,0.300000*%
%ADD13C,0.200000*%
%ADD14C,0.150000*%
%ADD15C,0.120000*%
%ADD16C,0.310000*%
%ADD17C,0.250000*%
%ADD18C,0.180000*%
G04 APERTURE END LIST*
D10*
X37529836Y39748105D02*
X37529836Y40281439D01*
X37529836Y40205248D02*
X37553646Y40243343D01*
X37553646Y40243343D02*
X37601265Y40281439D01*
X37601265Y40281439D02*
X37672693Y40281439D01*
X37672693Y40281439D02*
X37720312Y40243343D01*
X37720312Y40243343D02*
X37744122Y40167153D01*
X37744122Y40167153D02*
X37744122Y39748105D01*
X37744122Y40167153D02*
X37767931Y40243343D01*
X37767931Y40243343D02*
X37815550Y40281439D01*
X37815550Y40281439D02*
X37886979Y40281439D01*
X37886979Y40281439D02*
X37934598Y40243343D01*
X37934598Y40243343D02*
X37958408Y40167153D01*
X37958408Y40167153D02*
X37958408Y39748105D01*
X38267932Y39748105D02*
X38220313Y39786200D01*
X38220313Y39786200D02*
X38196503Y39824296D01*
X38196503Y39824296D02*
X38172694Y39900486D01*
X38172694Y39900486D02*
X38172694Y40129058D01*
X38172694Y40129058D02*
X38196503Y40205248D01*
X38196503Y40205248D02*
X38220313Y40243343D01*
X38220313Y40243343D02*
X38267932Y40281439D01*
X38267932Y40281439D02*
X38339360Y40281439D01*
X38339360Y40281439D02*
X38386979Y40243343D01*
X38386979Y40243343D02*
X38410789Y40205248D01*
X38410789Y40205248D02*
X38434598Y40129058D01*
X38434598Y40129058D02*
X38434598Y39900486D01*
X38434598Y39900486D02*
X38410789Y39824296D01*
X38410789Y39824296D02*
X38386979Y39786200D01*
X38386979Y39786200D02*
X38339360Y39748105D01*
X38339360Y39748105D02*
X38267932Y39748105D01*
X38863170Y39748105D02*
X38863170Y40548105D01*
X38863170Y39786200D02*
X38815551Y39748105D01*
X38815551Y39748105D02*
X38720313Y39748105D01*
X38720313Y39748105D02*
X38672694Y39786200D01*
X38672694Y39786200D02*
X38648884Y39824296D01*
X38648884Y39824296D02*
X38625075Y39900486D01*
X38625075Y39900486D02*
X38625075Y40129058D01*
X38625075Y40129058D02*
X38648884Y40205248D01*
X38648884Y40205248D02*
X38672694Y40243343D01*
X38672694Y40243343D02*
X38720313Y40281439D01*
X38720313Y40281439D02*
X38815551Y40281439D01*
X38815551Y40281439D02*
X38863170Y40243343D01*
X39315551Y40281439D02*
X39315551Y39748105D01*
X39101265Y40281439D02*
X39101265Y39862391D01*
X39101265Y39862391D02*
X39125075Y39786200D01*
X39125075Y39786200D02*
X39172694Y39748105D01*
X39172694Y39748105D02*
X39244122Y39748105D01*
X39244122Y39748105D02*
X39291741Y39786200D01*
X39291741Y39786200D02*
X39315551Y39824296D01*
X39625075Y39748105D02*
X39577456Y39786200D01*
X39577456Y39786200D02*
X39553646Y39862391D01*
X39553646Y39862391D02*
X39553646Y40548105D01*
X40006027Y39786200D02*
X39958408Y39748105D01*
X39958408Y39748105D02*
X39863170Y39748105D01*
X39863170Y39748105D02*
X39815551Y39786200D01*
X39815551Y39786200D02*
X39791742Y39862391D01*
X39791742Y39862391D02*
X39791742Y40167153D01*
X39791742Y40167153D02*
X39815551Y40243343D01*
X39815551Y40243343D02*
X39863170Y40281439D01*
X39863170Y40281439D02*
X39958408Y40281439D01*
X39958408Y40281439D02*
X40006027Y40243343D01*
X40006027Y40243343D02*
X40029837Y40167153D01*
X40029837Y40167153D02*
X40029837Y40090962D01*
X40029837Y40090962D02*
X39791742Y40014772D01*
D11*
X34375497Y41304036D02*
X34589783Y41232608D01*
X34589783Y41232608D02*
X34661212Y41161179D01*
X34661212Y41161179D02*
X34732640Y41018322D01*
X34732640Y41018322D02*
X34732640Y40804036D01*
X34732640Y40804036D02*
X34661212Y40661179D01*
X34661212Y40661179D02*
X34589783Y40589750D01*
X34589783Y40589750D02*
X34446926Y40518322D01*
X34446926Y40518322D02*
X33875497Y40518322D01*
X33875497Y40518322D02*
X33875497Y42018322D01*
X33875497Y42018322D02*
X34375497Y42018322D01*
X34375497Y42018322D02*
X34518355Y41946893D01*
X34518355Y41946893D02*
X34589783Y41875465D01*
X34589783Y41875465D02*
X34661212Y41732608D01*
X34661212Y41732608D02*
X34661212Y41589750D01*
X34661212Y41589750D02*
X34589783Y41446893D01*
X34589783Y41446893D02*
X34518355Y41375465D01*
X34518355Y41375465D02*
X34375497Y41304036D01*
X34375497Y41304036D02*
X33875497Y41304036D01*
X36089783Y40518322D02*
X35375497Y40518322D01*
X35375497Y40518322D02*
X35375497Y42018322D01*
X36589783Y41304036D02*
X37089783Y41304036D01*
X37304069Y40518322D02*
X36589783Y40518322D01*
X36589783Y40518322D02*
X36589783Y42018322D01*
X36589783Y42018322D02*
X37304069Y42018322D01*
X37946926Y41089750D02*
X39089784Y41089750D01*
X40661212Y40661179D02*
X40589784Y40589750D01*
X40589784Y40589750D02*
X40375498Y40518322D01*
X40375498Y40518322D02*
X40232641Y40518322D01*
X40232641Y40518322D02*
X40018355Y40589750D01*
X40018355Y40589750D02*
X39875498Y40732608D01*
X39875498Y40732608D02*
X39804069Y40875465D01*
X39804069Y40875465D02*
X39732641Y41161179D01*
X39732641Y41161179D02*
X39732641Y41375465D01*
X39732641Y41375465D02*
X39804069Y41661179D01*
X39804069Y41661179D02*
X39875498Y41804036D01*
X39875498Y41804036D02*
X40018355Y41946893D01*
X40018355Y41946893D02*
X40232641Y42018322D01*
X40232641Y42018322D02*
X40375498Y42018322D01*
X40375498Y42018322D02*
X40589784Y41946893D01*
X40589784Y41946893D02*
X40661212Y41875465D01*
X41232641Y40946893D02*
X41946927Y40946893D01*
X41089784Y40518322D02*
X41589784Y42018322D01*
X41589784Y42018322D02*
X42089784Y40518322D01*
X42589783Y40518322D02*
X42589783Y42018322D01*
X42589783Y42018322D02*
X43446926Y40518322D01*
X43446926Y40518322D02*
X43446926Y42018322D01*
D12*
X31788082Y37895600D02*
X32002368Y37824172D01*
X32002368Y37824172D02*
X32359510Y37824172D01*
X32359510Y37824172D02*
X32502368Y37895600D01*
X32502368Y37895600D02*
X32573796Y37967029D01*
X32573796Y37967029D02*
X32645225Y38109886D01*
X32645225Y38109886D02*
X32645225Y38252743D01*
X32645225Y38252743D02*
X32573796Y38395600D01*
X32573796Y38395600D02*
X32502368Y38467029D01*
X32502368Y38467029D02*
X32359510Y38538458D01*
X32359510Y38538458D02*
X32073796Y38609886D01*
X32073796Y38609886D02*
X31930939Y38681315D01*
X31930939Y38681315D02*
X31859510Y38752743D01*
X31859510Y38752743D02*
X31788082Y38895600D01*
X31788082Y38895600D02*
X31788082Y39038458D01*
X31788082Y39038458D02*
X31859510Y39181315D01*
X31859510Y39181315D02*
X31930939Y39252743D01*
X31930939Y39252743D02*
X32073796Y39324172D01*
X32073796Y39324172D02*
X32430939Y39324172D01*
X32430939Y39324172D02*
X32645225Y39252743D01*
X33288081Y37824172D02*
X33288081Y39324172D01*
X33288081Y38609886D02*
X34145224Y38609886D01*
X34145224Y37824172D02*
X34145224Y39324172D01*
X34859510Y37824172D02*
X34859510Y39324172D01*
X35359511Y39324172D02*
X35859511Y37824172D01*
X35859511Y37824172D02*
X36359511Y39324172D01*
X36788082Y38252743D02*
X37502368Y38252743D01*
X36645225Y37824172D02*
X37145225Y39324172D01*
X37145225Y39324172D02*
X37645225Y37824172D01*
X38145224Y37824172D02*
X38145224Y39324172D01*
X38145224Y39324172D02*
X38645224Y38252743D01*
X38645224Y38252743D02*
X39145224Y39324172D01*
X39145224Y39324172D02*
X39145224Y37824172D01*
X40788082Y39324172D02*
X41645225Y39324172D01*
X41216653Y37824172D02*
X41216653Y39324172D01*
X42145224Y37824172D02*
X42145224Y39324172D01*
X42716653Y39324172D02*
X43073796Y37824172D01*
X43073796Y37824172D02*
X43359510Y38895600D01*
X43359510Y38895600D02*
X43645225Y37824172D01*
X43645225Y37824172D02*
X44002368Y39324172D01*
X44502368Y38252743D02*
X45216654Y38252743D01*
X44359511Y37824172D02*
X44859511Y39324172D01*
X44859511Y39324172D02*
X45359511Y37824172D01*
X46716653Y37824172D02*
X46216653Y38538458D01*
X45859510Y37824172D02*
X45859510Y39324172D01*
X45859510Y39324172D02*
X46430939Y39324172D01*
X46430939Y39324172D02*
X46573796Y39252743D01*
X46573796Y39252743D02*
X46645225Y39181315D01*
X46645225Y39181315D02*
X46716653Y39038458D01*
X46716653Y39038458D02*
X46716653Y38824172D01*
X46716653Y38824172D02*
X46645225Y38681315D01*
X46645225Y38681315D02*
X46573796Y38609886D01*
X46573796Y38609886D02*
X46430939Y38538458D01*
X46430939Y38538458D02*
X45859510Y38538458D01*
X47359510Y37824172D02*
X47359510Y39324172D01*
D13*
X11647857Y41637400D02*
X12562143Y41637400D01*
X12105000Y41180258D02*
X12105000Y42094543D01*
D14*
X35079819Y28055953D02*
X35079819Y27579763D01*
X35079819Y27579763D02*
X34079819Y27579763D01*
X34079819Y28294049D02*
X34079819Y28913096D01*
X34079819Y28913096D02*
X34460771Y28579763D01*
X34460771Y28579763D02*
X34460771Y28722620D01*
X34460771Y28722620D02*
X34508390Y28817858D01*
X34508390Y28817858D02*
X34556009Y28865477D01*
X34556009Y28865477D02*
X34651247Y28913096D01*
X34651247Y28913096D02*
X34889342Y28913096D01*
X34889342Y28913096D02*
X34984580Y28865477D01*
X34984580Y28865477D02*
X35032200Y28817858D01*
X35032200Y28817858D02*
X35079819Y28722620D01*
X35079819Y28722620D02*
X35079819Y28436906D01*
X35079819Y28436906D02*
X35032200Y28341668D01*
X35032200Y28341668D02*
X34984580Y28294049D01*
X34079819Y29532144D02*
X34079819Y29627382D01*
X34079819Y29627382D02*
X34127438Y29722620D01*
X34127438Y29722620D02*
X34175057Y29770239D01*
X34175057Y29770239D02*
X34270295Y29817858D01*
X34270295Y29817858D02*
X34460771Y29865477D01*
X34460771Y29865477D02*
X34698866Y29865477D01*
X34698866Y29865477D02*
X34889342Y29817858D01*
X34889342Y29817858D02*
X34984580Y29770239D01*
X34984580Y29770239D02*
X35032200Y29722620D01*
X35032200Y29722620D02*
X35079819Y29627382D01*
X35079819Y29627382D02*
X35079819Y29532144D01*
X35079819Y29532144D02*
X35032200Y29436906D01*
X35032200Y29436906D02*
X34984580Y29389287D01*
X34984580Y29389287D02*
X34889342Y29341668D01*
X34889342Y29341668D02*
X34698866Y29294049D01*
X34698866Y29294049D02*
X34460771Y29294049D01*
X34460771Y29294049D02*
X34270295Y29341668D01*
X34270295Y29341668D02*
X34175057Y29389287D01*
X34175057Y29389287D02*
X34127438Y29436906D01*
X34127438Y29436906D02*
X34079819Y29532144D01*
X35079819Y30817858D02*
X35079819Y30246430D01*
X35079819Y30532144D02*
X34079819Y30532144D01*
X34079819Y30532144D02*
X34222676Y30436906D01*
X34222676Y30436906D02*
X34317914Y30341668D01*
X34317914Y30341668D02*
X34365533Y30246430D01*
%TO.C,C215*%
D15*
X24055000Y13472836D02*
X24055000Y13257164D01*
X24775000Y13472836D02*
X24775000Y13257164D01*
%TO.C,C101*%
X2555000Y47985000D02*
X2555000Y45035000D01*
X2555000Y39285000D02*
X2555000Y42235000D01*
X11255000Y47985000D02*
X2555000Y47985000D01*
X11255000Y45035000D02*
X11255000Y47985000D01*
X11255000Y42235000D02*
X11255000Y39285000D01*
X11255000Y39285000D02*
X2555000Y39285000D01*
%TO.C,R305*%
X24477258Y32117500D02*
X24002742Y32117500D01*
X24477258Y31072500D02*
X24002742Y31072500D01*
%TO.C,TP103*%
X9495000Y16825000D02*
G75*
G02*
X7095000Y16825000I-1200000J0D01*
G01*
X7095000Y16825000D02*
G75*
G02*
X9495000Y16825000I1200000J0D01*
G01*
%TO.C,R105*%
X3397742Y38337500D02*
X3872258Y38337500D01*
X3397742Y37292500D02*
X3872258Y37292500D01*
%TO.C,X202*%
X37145000Y18405000D02*
X37145000Y15585000D01*
X39565000Y18405000D02*
X37145000Y18405000D01*
%TO.C,R103*%
X13487258Y30787500D02*
X13012742Y30787500D01*
X13487258Y29742500D02*
X13012742Y29742500D01*
%TO.C,D301*%
X38715000Y30755000D02*
X40235000Y30755000D01*
X38715000Y30705000D02*
X38715000Y30755000D01*
X38715000Y28805000D02*
X38715000Y29585000D01*
X38715000Y27635000D02*
X38715000Y27685000D01*
X40235000Y30755000D02*
X40235000Y29755000D01*
X40235000Y28635000D02*
X40235000Y27635000D01*
X40235000Y27635000D02*
X38715000Y27635000D01*
X38175000Y29575000D02*
X38415000Y29245000D01*
X37935000Y29245000D01*
X38175000Y29575000D01*
G36*
X38415000Y29245000D02*
G01*
X37935000Y29245000D01*
X38175000Y29575000D01*
X38415000Y29245000D01*
G37*
%TO.C,R107*%
X3357742Y35867500D02*
X3832258Y35867500D01*
X3357742Y34822500D02*
X3832258Y34822500D01*
%TO.C,TP102*%
X18055000Y19165000D02*
G75*
G02*
X15655000Y19165000I-1200000J0D01*
G01*
X15655000Y19165000D02*
G75*
G02*
X18055000Y19165000I1200000J0D01*
G01*
%TO.C,C302*%
X31194420Y32775000D02*
X31475580Y32775000D01*
X31194420Y31755000D02*
X31475580Y31755000D01*
%TO.C,C216*%
X39357500Y19907164D02*
X39357500Y20122836D01*
X40077500Y19907164D02*
X40077500Y20122836D01*
%TO.C,C106*%
X13210000Y34496252D02*
X13210000Y33973748D01*
X14680000Y34496252D02*
X14680000Y33973748D01*
%TO.C,C207*%
X31817164Y16855000D02*
X32032836Y16855000D01*
X31817164Y16135000D02*
X32032836Y16135000D01*
%TO.C,R401*%
X17962258Y3007500D02*
X17487742Y3007500D01*
X17962258Y1962500D02*
X17487742Y1962500D01*
%TO.C,R310*%
X29677742Y25787500D02*
X30152258Y25787500D01*
X29677742Y24742500D02*
X30152258Y24742500D01*
%TO.C,C105*%
X15435000Y33196252D02*
X15435000Y31773748D01*
X17255000Y33196252D02*
X17255000Y31773748D01*
%TO.C,C214*%
X36357500Y19867164D02*
X36357500Y20082836D01*
X37077500Y19867164D02*
X37077500Y20082836D01*
%TO.C,C304*%
X18985000Y27805580D02*
X18985000Y27524420D01*
X20005000Y27805580D02*
X20005000Y27524420D01*
%TO.C,R106*%
X6897742Y38337500D02*
X7372258Y38337500D01*
X6897742Y37292500D02*
X7372258Y37292500D01*
%TO.C,J201*%
X44480000Y20965000D02*
X44480000Y20325000D01*
X44480000Y20325000D02*
X43850000Y20325000D01*
X44480000Y18165000D02*
X44480000Y18805000D01*
X47200000Y20915000D02*
X47200000Y18215000D01*
%TO.C,C407*%
X32181252Y8825000D02*
X30758748Y8825000D01*
X32181252Y6105000D02*
X30758748Y6105000D01*
%TO.C,J301*%
X41995000Y34525000D02*
X48435000Y34525000D01*
X41995000Y26205000D02*
X41995000Y34525000D01*
X42515000Y26205000D02*
X42515000Y34525000D01*
X47815000Y33935000D02*
X47815000Y34525000D01*
X47815000Y31395000D02*
X47815000Y31875000D01*
X47815000Y28855000D02*
X47815000Y29335000D01*
X47815000Y26205000D02*
X47815000Y26795000D01*
X48435000Y34525000D02*
X48435000Y33935000D01*
X48435000Y31875000D02*
X48435000Y31395000D01*
X48435000Y29335000D02*
X48435000Y28855000D01*
X48435000Y26795000D02*
X48435000Y26205000D01*
X48435000Y26205000D02*
X41995000Y26205000D01*
X48785000Y27825000D02*
X49395000Y28265000D01*
X49395000Y27385000D01*
X48785000Y27825000D01*
G36*
X49395000Y27385000D02*
G01*
X48785000Y27825000D01*
X49395000Y28265000D01*
X49395000Y27385000D01*
G37*
%TO.C,C111*%
X7425000Y21986252D02*
X7425000Y20563748D01*
X10145000Y21986252D02*
X10145000Y20563748D01*
%TO.C,C308*%
X26515000Y33144420D02*
X26515000Y33425580D01*
X27535000Y33144420D02*
X27535000Y33425580D01*
%TO.C,C107*%
X3835000Y33140580D02*
X3835000Y32859420D01*
X4855000Y33140580D02*
X4855000Y32859420D01*
%TO.C,U401*%
X16913248Y5775000D02*
X18247500Y5775000D01*
X18247500Y3555000D02*
X16777500Y3555000D01*
X16622500Y5785000D02*
X16482500Y5975000D01*
X16762500Y5975000D01*
X16622500Y5785000D01*
G36*
X16622500Y5785000D02*
G01*
X16482500Y5975000D01*
X16762500Y5975000D01*
X16622500Y5785000D01*
G37*
%TO.C,C104*%
X16903748Y36975000D02*
X18326252Y36975000D01*
X16903748Y35155000D02*
X18326252Y35155000D01*
%TO.C,R307*%
X30342258Y23457500D02*
X29867742Y23457500D01*
X30342258Y22412500D02*
X29867742Y22412500D01*
%TO.C,C406*%
X21215000Y7955580D02*
X21215000Y7674420D01*
X22235000Y7955580D02*
X22235000Y7674420D01*
%TO.C,D103*%
X17705000Y34735000D02*
X17705000Y31075000D01*
X19605000Y34735000D02*
X17705000Y34735000D01*
X19605000Y34735000D02*
X19605000Y31075000D01*
%TO.C,C102*%
X16653748Y41845000D02*
X18076252Y41845000D01*
X16653748Y40025000D02*
X18076252Y40025000D01*
%TO.C,J401*%
X5870000Y12305000D02*
X5870000Y11385000D01*
X5870000Y11385000D02*
X7470000Y11385000D01*
X5870000Y7105000D02*
X5870000Y6185000D01*
X5870000Y6185000D02*
X13690000Y6185000D01*
X7470000Y12305000D02*
X7470000Y11385000D01*
X7470000Y11385000D02*
X7470000Y11105000D01*
X7470000Y7385000D02*
X6255000Y7385000D01*
X7470000Y7385000D02*
X7470000Y7105000D01*
X7470000Y7105000D02*
X5870000Y7105000D01*
X7470000Y6185000D02*
X7470000Y7105000D01*
X9330000Y9745000D02*
X13690000Y9745000D01*
X9330000Y8745000D02*
X9330000Y9745000D01*
X11430000Y7945000D02*
X13690000Y7945000D01*
X11430000Y7445000D02*
X13690000Y7445000D01*
X13690000Y12305000D02*
X5870000Y12305000D01*
X13690000Y8745000D02*
X9330000Y8745000D01*
X13690000Y6185000D02*
X13690000Y12305000D01*
X9830000Y11545000D02*
X11430000Y11545000D01*
X11430000Y10545000D01*
X9830000Y10545000D01*
X9830000Y11545000D01*
X9830000Y7945000D02*
X11430000Y7945000D01*
X11430000Y6945000D01*
X9830000Y6945000D01*
X9830000Y7945000D01*
%TO.C,C204*%
X33337164Y19195000D02*
X33552836Y19195000D01*
X33337164Y18475000D02*
X33552836Y18475000D01*
%TO.C,FLT201*%
D10*
X40642500Y20037500D02*
X40642500Y19837500D01*
X40642500Y19837500D02*
X40642500Y19787500D01*
X40642500Y19787500D02*
X40642500Y19887500D01*
X40642500Y19037500D02*
X40642500Y19287500D01*
X40642500Y19037500D02*
X40842500Y19037500D01*
X40642500Y19037500D02*
X40842500Y19037500D01*
X40842500Y20037500D02*
X40642500Y20037500D01*
X40842500Y20037500D02*
X42842500Y20037500D01*
X40842500Y19037500D02*
X40642500Y19037500D01*
X40842500Y19037500D02*
X40642500Y19037500D01*
X40842500Y19037500D02*
X40742500Y19037500D01*
X42842500Y20037500D02*
X42842500Y19037500D01*
X42842500Y19037500D02*
X40842500Y19037500D01*
X40742500Y19537500D02*
G75*
G02*
X40542500Y19537500I-100000J0D01*
G01*
X40542500Y19537500D02*
G75*
G02*
X40742500Y19537500I100000J0D01*
G01*
%TO.C,R306*%
D15*
X33832258Y26477500D02*
X33357742Y26477500D01*
X33832258Y25432500D02*
X33357742Y25432500D01*
%TO.C,C310*%
X25716252Y37895000D02*
X24293748Y37895000D01*
X25716252Y35175000D02*
X24293748Y35175000D01*
%TO.C,C110*%
X3725000Y21916252D02*
X3725000Y20493748D01*
X6445000Y21916252D02*
X6445000Y20493748D01*
%TO.C,U403*%
X29790748Y5655000D02*
X31125000Y5655000D01*
X31125000Y3435000D02*
X29655000Y3435000D01*
X29500000Y5665000D02*
X29360000Y5855000D01*
X29640000Y5855000D01*
X29500000Y5665000D01*
G36*
X29500000Y5665000D02*
G01*
X29360000Y5855000D01*
X29640000Y5855000D01*
X29500000Y5665000D01*
G37*
%TO.C,C309*%
X38684420Y23065000D02*
X38965580Y23065000D01*
X38684420Y22045000D02*
X38965580Y22045000D01*
%TO.C,C201*%
X26262836Y21945000D02*
X26047164Y21945000D01*
X26262836Y21225000D02*
X26047164Y21225000D01*
%TO.C,L201*%
X30795000Y13402221D02*
X30795000Y13727779D01*
X31815000Y13402221D02*
X31815000Y13727779D01*
%TO.C,TP402*%
X23225000Y11935000D02*
G75*
G02*
X20825000Y11935000I-1200000J0D01*
G01*
X20825000Y11935000D02*
G75*
G02*
X23225000Y11935000I1200000J0D01*
G01*
%TO.C,R102*%
X16782258Y29112500D02*
X16307742Y29112500D01*
X16782258Y28067500D02*
X16307742Y28067500D01*
%TO.C,R309*%
X25972258Y25687500D02*
X25497742Y25687500D01*
X25972258Y24642500D02*
X25497742Y24642500D01*
%TO.C,R104*%
X11422258Y38337500D02*
X10947742Y38337500D01*
X11422258Y37292500D02*
X10947742Y37292500D01*
%TO.C,U101*%
D16*
X11810000Y30990000D02*
G75*
G02*
X11500000Y30990000I-155000J0D01*
G01*
X11500000Y30990000D02*
G75*
G02*
X11810000Y30990000I155000J0D01*
G01*
%TO.C,U402*%
D15*
X23410000Y5637500D02*
X25230000Y5637500D01*
X23410000Y5587500D02*
X23410000Y5637500D01*
X23410000Y2517500D02*
X23410000Y2567500D01*
X25230000Y5637500D02*
X25230000Y5587500D01*
X25230000Y4467500D02*
X25230000Y3687500D01*
X25230000Y2567500D02*
X25230000Y2517500D01*
X25230000Y2517500D02*
X23410000Y2517500D01*
X22870000Y5587500D02*
X22630000Y5917500D01*
X23110000Y5917500D01*
X22870000Y5587500D01*
G36*
X22870000Y5587500D02*
G01*
X22630000Y5917500D01*
X23110000Y5917500D01*
X22870000Y5587500D01*
G37*
%TO.C,X201*%
X25835000Y11335000D02*
X28355000Y11335000D01*
X28355000Y13055000D02*
X25835000Y13055000D01*
X28355000Y11335000D02*
X28355000Y13055000D01*
%TO.C,C103*%
X16743748Y39355000D02*
X18166252Y39355000D01*
X16743748Y37535000D02*
X18166252Y37535000D01*
%TO.C,F401*%
X7857221Y5445000D02*
X8182779Y5445000D01*
X7857221Y4425000D02*
X8182779Y4425000D01*
%TO.C,C306*%
X23850580Y33825000D02*
X23569420Y33825000D01*
X23850580Y32805000D02*
X23569420Y32805000D01*
%TO.C,C213*%
X25952836Y14295000D02*
X25737164Y14295000D01*
X25952836Y13575000D02*
X25737164Y13575000D01*
%TO.C,C404*%
X19470580Y10455000D02*
X19189420Y10455000D01*
X19470580Y9435000D02*
X19189420Y9435000D01*
%TO.C,R201*%
X23541359Y15345000D02*
X23848641Y15345000D01*
X23541359Y14585000D02*
X23848641Y14585000D01*
%TO.C,J202*%
X38185000Y9705000D02*
X38185000Y10340000D01*
X38820000Y9705000D02*
X38185000Y9705000D01*
%TO.C,C109*%
X14315000Y24673748D02*
X14315000Y26096252D01*
X17035000Y24673748D02*
X17035000Y26096252D01*
%TO.C,C403*%
X20435000Y4466252D02*
X20435000Y3943748D01*
X21905000Y4466252D02*
X21905000Y3943748D01*
%TO.C,F101*%
X16485000Y54045000D02*
X22585000Y54045000D01*
X16485000Y50825000D02*
X22585000Y50825000D01*
%TO.C,C301*%
X32788748Y36085000D02*
X34211252Y36085000D01*
X32788748Y33365000D02*
X34211252Y33365000D01*
%TO.C,R311*%
X24852500Y27902258D02*
X24852500Y27427742D01*
X25897500Y27902258D02*
X25897500Y27427742D01*
%TO.C,C401*%
X9830000Y4295580D02*
X9830000Y4014420D01*
X10850000Y4295580D02*
X10850000Y4014420D01*
%TO.C,X301*%
X20435000Y26255000D02*
X22855000Y26255000D01*
X22855000Y26255000D02*
X22855000Y29075000D01*
%TO.C,R301*%
X33582258Y24707500D02*
X33107742Y24707500D01*
X33582258Y23662500D02*
X33107742Y23662500D01*
%TO.C,U102*%
D16*
X15682500Y21855000D02*
G75*
G02*
X15372500Y21855000I-155000J0D01*
G01*
X15372500Y21855000D02*
G75*
G02*
X15682500Y21855000I155000J0D01*
G01*
%TO.C,U201*%
D14*
X25465001Y20635000D02*
X25465001Y20359999D01*
X25465001Y20635000D02*
X25740002Y20635000D01*
X25465001Y15810001D02*
X25465001Y15535000D01*
X25465001Y15535000D02*
X25740002Y15535000D01*
X30290000Y20635000D02*
X30565001Y20635000D01*
X30290000Y15535000D02*
X30565001Y15535000D01*
X30565001Y20635000D02*
X30565001Y20359999D01*
X30565001Y15810001D02*
X30565001Y15535000D01*
D17*
X29940001Y21335001D02*
G75*
G02*
X29689999Y21335001I-125001J0D01*
G01*
X29689999Y21335001D02*
G75*
G02*
X29940001Y21335001I125001J0D01*
G01*
%TO.C,C405*%
D15*
X26765000Y4336252D02*
X26765000Y3813748D01*
X28235000Y4336252D02*
X28235000Y3813748D01*
%TO.C,C202*%
X24145000Y17102836D02*
X24145000Y16887164D01*
X24865000Y17102836D02*
X24865000Y16887164D01*
%TO.C,R404*%
X19567258Y8937500D02*
X19092742Y8937500D01*
X19567258Y7892500D02*
X19092742Y7892500D01*
%TO.C,C108*%
X10915000Y24613748D02*
X10915000Y26036252D01*
X13635000Y24613748D02*
X13635000Y26036252D01*
%TO.C,C210*%
X39815000Y16627164D02*
X39815000Y16842836D01*
X40535000Y16627164D02*
X40535000Y16842836D01*
%TO.C,C205*%
X22516252Y18230000D02*
X21993748Y18230000D01*
X22516252Y16760000D02*
X21993748Y16760000D01*
%TO.C,R402*%
X12392742Y5387500D02*
X12867258Y5387500D01*
X12392742Y4342500D02*
X12867258Y4342500D01*
%TO.C,TP401*%
X16955000Y8565000D02*
G75*
G02*
X14555000Y8565000I-1200000J0D01*
G01*
X14555000Y8565000D02*
G75*
G02*
X16955000Y8565000I1200000J0D01*
G01*
%TO.C,TP101*%
X20045000Y23895000D02*
G75*
G02*
X17645000Y23895000I-1200000J0D01*
G01*
X17645000Y23895000D02*
G75*
G02*
X20045000Y23895000I1200000J0D01*
G01*
%TO.C,C303*%
X23375000Y27504420D02*
X23375000Y27785580D01*
X24395000Y27504420D02*
X24395000Y27785580D01*
%TO.C,C112*%
X13826252Y16035000D02*
X12403748Y16035000D01*
X13826252Y13315000D02*
X12403748Y13315000D01*
%TO.C,C211*%
X36155000Y17382836D02*
X36155000Y17167164D01*
X36875000Y17382836D02*
X36875000Y17167164D01*
%TO.C,R304*%
X34917742Y32667500D02*
X35392258Y32667500D01*
X34917742Y31622500D02*
X35392258Y31622500D01*
%TO.C,R405*%
X27077500Y8222258D02*
X27077500Y7747742D01*
X28122500Y8222258D02*
X28122500Y7747742D01*
%TO.C,U404*%
X24058248Y9285000D02*
X25392500Y9285000D01*
X25392500Y7065000D02*
X23922500Y7065000D01*
X23767500Y9295000D02*
X23627500Y9485000D01*
X23907500Y9485000D01*
X23767500Y9295000D01*
G36*
X23767500Y9295000D02*
G01*
X23627500Y9485000D01*
X23907500Y9485000D01*
X23767500Y9295000D01*
G37*
%TO.C,R101*%
X14815000Y48252064D02*
X14815000Y43897936D01*
X18235000Y48252064D02*
X18235000Y43897936D01*
%TO.C,C209*%
X29225000Y13235580D02*
X29225000Y12954420D01*
X30245000Y13235580D02*
X30245000Y12954420D01*
%TO.C,C307*%
X29344420Y35115000D02*
X29625580Y35115000D01*
X29344420Y34095000D02*
X29625580Y34095000D01*
%TO.C,U301*%
X26750000Y28825000D02*
X26750000Y29525000D01*
X31350000Y28825000D02*
X31350000Y29525000D01*
D18*
X26590000Y27125000D02*
G75*
G02*
X26410000Y27125000I-90000J0D01*
G01*
X26410000Y27125000D02*
G75*
G02*
X26590000Y27125000I90000J0D01*
G01*
%TO.C,J101*%
D15*
X6555000Y54685000D02*
X12995000Y54685000D01*
X6555000Y54095000D02*
X6555000Y54685000D01*
X6555000Y51555000D02*
X6555000Y52035000D01*
X6555000Y48905000D02*
X6555000Y49495000D01*
X7175000Y54685000D02*
X7175000Y54095000D01*
X7175000Y52035000D02*
X7175000Y51555000D01*
X7175000Y49495000D02*
X7175000Y48905000D01*
X12475000Y54685000D02*
X12475000Y48905000D01*
X12995000Y54685000D02*
X12995000Y48905000D01*
X12995000Y48905000D02*
X6555000Y48905000D01*
X6205000Y53065000D02*
X5595000Y52625000D01*
X5595000Y53505000D01*
X6205000Y53065000D01*
G36*
X6205000Y53065000D02*
G01*
X5595000Y52625000D01*
X5595000Y53505000D01*
X6205000Y53065000D01*
G37*
%TO.C,D102*%
X18775000Y49485000D02*
X18775000Y47585000D01*
X18775000Y49485000D02*
X22435000Y49485000D01*
X18775000Y47585000D02*
X22435000Y47585000D01*
%TO.C,C402*%
X14430000Y4380580D02*
X14430000Y4099420D01*
X15450000Y4380580D02*
X15450000Y4099420D01*
%TO.C,TP403*%
X19045000Y12695000D02*
G75*
G02*
X16645000Y12695000I-1200000J0D01*
G01*
X16645000Y12695000D02*
G75*
G02*
X19045000Y12695000I1200000J0D01*
G01*
%TO.C,C305*%
X27545000Y37143748D02*
X27545000Y38566252D01*
X30265000Y37143748D02*
X30265000Y38566252D01*
%TO.C,C208*%
X31973748Y11710000D02*
X32496252Y11710000D01*
X31973748Y10240000D02*
X32496252Y10240000D01*
%TO.C,L301*%
X32265000Y31335000D02*
X36985000Y31335000D01*
X36985000Y27015000D02*
X32265000Y27015000D01*
X31965000Y30305000D02*
X31635000Y30065000D01*
X31635000Y30545000D01*
X31965000Y30305000D01*
G36*
X31965000Y30305000D02*
G01*
X31635000Y30065000D01*
X31635000Y30545000D01*
X31965000Y30305000D01*
G37*
%TO.C,C408*%
X32510000Y4365580D02*
X32510000Y4084420D01*
X33530000Y4365580D02*
X33530000Y4084420D01*
%TO.C,R308*%
X22562258Y24157500D02*
X22087742Y24157500D01*
X22562258Y23112500D02*
X22087742Y23112500D01*
%TO.C,L101*%
D16*
X10562500Y30595000D02*
G75*
G02*
X10252500Y30595000I-155000J0D01*
G01*
X10252500Y30595000D02*
G75*
G02*
X10562500Y30595000I155000J0D01*
G01*
%TO.C,C206*%
D15*
X31135000Y20872836D02*
X31135000Y20657164D01*
X31855000Y20872836D02*
X31855000Y20657164D01*
%TO.C,R302*%
X39390000Y25382064D02*
X39390000Y24927936D01*
X40860000Y25382064D02*
X40860000Y24927936D01*
%TO.C,R303*%
X36790000Y25382064D02*
X36790000Y24927936D01*
X38260000Y25382064D02*
X38260000Y24927936D01*
%TO.C,C203*%
X31827164Y15895000D02*
X32042836Y15895000D01*
X31827164Y15175000D02*
X32042836Y15175000D01*
%TO.C,R403*%
X19187742Y7327500D02*
X19662258Y7327500D01*
X19187742Y6282500D02*
X19662258Y6282500D01*
%TO.C,C212*%
X28152836Y14265000D02*
X27937164Y14265000D01*
X28152836Y13545000D02*
X27937164Y13545000D01*
%TD*%
M02*
