%TF.GenerationSoftware,KiCad,Pcbnew,10.0.6*%
%TF.CreationDate,2026-09-30T18:09:34+05:30*%
%TF.ProjectId,BLE-CAN-module,42797465-6265-4616-9d2d-424c452d4341,A*%
%TF.SameCoordinates,PX60de958PY69dcd48*%
%TF.FileFunction,Soldermask,Top*%
%TF.FilePolarity,Negative*%
%FSLAX46Y46*%
G04 Gerber Fmt 4.6, Leading zero omitted, Abs format (unit mm)*
G04 Created by KiCad (PCBNEW 10.0.6) date 2026-09-30 18:09:34*
%MOMM*%
%LPD*%
G01*
G04 APERTURE LIST*
G04 Aperture macros list*
%AMRoundRect*
0 Rectangle with rounded corners*
0 $1 Rounding radius*
0 $2 $3 $4 $5 $6 $7 $8 $9 X,Y pos of 4 corners*
0 Add a 4 corners polygon primitive as box body*
4,1,4,$2,$3,$4,$5,$6,$7,$8,$9,$2,$3,0*
0 Add four circle primitives for the rounded corners*
1,1,$1+$1,$2,$3*
1,1,$1+$1,$4,$5*
1,1,$1+$1,$6,$7*
1,1,$1+$1,$8,$9*
0 Add four rect primitives between the rounded corners*
20,1,$1+$1,$2,$3,$4,$5,0*
20,1,$1+$1,$4,$5,$6,$7,0*
20,1,$1+$1,$6,$7,$8,$9,0*
20,1,$1+$1,$8,$9,$2,$3,0*%
G04 Aperture macros list end*
%ADD10RoundRect,0.140000X-0.170000X0.140000X-0.170000X-0.140000X0.170000X-0.140000X0.170000X0.140000X0*%
%ADD11R,4.000000X2.000000*%
%ADD12RoundRect,0.200000X0.200000X0.275000X-0.200000X0.275000X-0.200000X-0.275000X0.200000X-0.275000X0*%
%ADD13C,2.000000*%
%ADD14RoundRect,0.200000X-0.200000X-0.275000X0.200000X-0.275000X0.200000X0.275000X-0.200000X0.275000X0*%
%ADD15RoundRect,0.200000X-0.200000X0.250000X-0.200000X-0.250000X0.200000X-0.250000X0.200000X0.250000X0*%
%ADD16RoundRect,0.150000X-0.587500X-0.150000X0.587500X-0.150000X0.587500X0.150000X-0.587500X0.150000X0*%
%ADD17RoundRect,0.225000X-0.225000X-0.250000X0.225000X-0.250000X0.225000X0.250000X-0.225000X0.250000X0*%
%ADD18RoundRect,0.140000X0.170000X-0.140000X0.170000X0.140000X-0.170000X0.140000X-0.170000X-0.140000X0*%
%ADD19R,2.150000X2.600000*%
%ADD20R,9.800000X10.700000*%
%ADD21RoundRect,0.250000X-0.475000X0.250000X-0.475000X-0.250000X0.475000X-0.250000X0.475000X0.250000X0*%
%ADD22RoundRect,0.140000X-0.140000X-0.170000X0.140000X-0.170000X0.140000X0.170000X-0.140000X0.170000X0*%
%ADD23RoundRect,0.250000X-0.650000X0.325000X-0.650000X-0.325000X0.650000X-0.325000X0.650000X0.325000X0*%
%ADD24RoundRect,0.225000X-0.250000X0.225000X-0.250000X-0.225000X0.250000X-0.225000X0.250000X0.225000X0*%
%ADD25RoundRect,0.250000X-0.275000X-0.250000X0.275000X-0.250000X0.275000X0.250000X-0.275000X0.250000X0*%
%ADD26RoundRect,0.250000X-0.850000X-0.275000X0.850000X-0.275000X0.850000X0.275000X-0.850000X0.275000X0*%
%ADD27RoundRect,0.250000X0.325000X1.100000X-0.325000X1.100000X-0.325000X-1.100000X0.325000X-1.100000X0*%
%ADD28C,1.100000*%
%ADD29RoundRect,0.249999X0.850001X-0.850001X0.850001X0.850001X-0.850001X0.850001X-0.850001X-0.850001X0*%
%ADD30C,2.200000*%
%ADD31RoundRect,0.250000X-1.100000X0.325000X-1.100000X-0.325000X1.100000X-0.325000X1.100000X0.325000X0*%
%ADD32RoundRect,0.225000X0.250000X-0.225000X0.250000X0.225000X-0.250000X0.225000X-0.250000X-0.225000X0*%
%ADD33RoundRect,0.100000X-0.562500X-0.100000X0.562500X-0.100000X0.562500X0.100000X-0.562500X0.100000X0*%
%ADD34RoundRect,0.250000X-0.325000X-0.650000X0.325000X-0.650000X0.325000X0.650000X-0.325000X0.650000X0*%
%ADD35C,0.700000*%
%ADD36C,4.400000*%
%ADD37R,1.200000X1.200000*%
%ADD38RoundRect,0.250000X0.625000X-0.350000X0.625000X0.350000X-0.625000X0.350000X-0.625000X-0.350000X0*%
%ADD39O,1.750000X1.200000*%
%ADD40RoundRect,0.068750X-0.068750X-0.281250X0.068750X-0.281250X0.068750X0.281250X-0.068750X0.281250X0*%
%ADD41RoundRect,0.061250X-0.163750X-0.061250X0.163750X-0.061250X0.163750X0.061250X-0.163750X0.061250X0*%
%ADD42RoundRect,0.140000X0.140000X0.170000X-0.140000X0.170000X-0.140000X-0.170000X0.140000X-0.170000X0*%
%ADD43RoundRect,0.218750X0.256250X-0.218750X0.256250X0.218750X-0.256250X0.218750X-0.256250X-0.218750X0*%
%ADD44R,2.710000X3.400000*%
%ADD45R,1.550000X0.600000*%
%ADD46RoundRect,0.150000X-0.512500X-0.150000X0.512500X-0.150000X0.512500X0.150000X-0.512500X0.150000X0*%
%ADD47RoundRect,0.150000X0.150000X0.400000X-0.150000X0.400000X-0.150000X-0.400000X0.150000X-0.400000X0*%
%ADD48RoundRect,0.218750X-0.218750X-0.256250X0.218750X-0.256250X0.218750X0.256250X-0.218750X0.256250X0*%
%ADD49RoundRect,0.225000X0.225000X0.250000X-0.225000X0.250000X-0.225000X-0.250000X0.225000X-0.250000X0*%
%ADD50RoundRect,0.135000X-0.135000X-0.185000X0.135000X-0.185000X0.135000X0.185000X-0.135000X0.185000X0*%
%ADD51C,2.374900*%
%ADD52C,0.990600*%
%ADD53C,0.787400*%
%ADD54RoundRect,0.250000X1.100000X-0.325000X1.100000X0.325000X-1.100000X0.325000X-1.100000X-0.325000X0*%
%ADD55RoundRect,0.250000X-0.750000X-1.625000X0.750000X-1.625000X0.750000X1.625000X-0.750000X1.625000X0*%
%ADD56RoundRect,0.250000X-0.325000X-1.100000X0.325000X-1.100000X0.325000X1.100000X-0.325000X1.100000X0*%
%ADD57RoundRect,0.200000X-0.275000X0.200000X-0.275000X-0.200000X0.275000X-0.200000X0.275000X0.200000X0*%
%ADD58RoundRect,0.200000X0.200000X-0.250000X0.200000X0.250000X-0.200000X0.250000X-0.200000X-0.250000X0*%
%ADD59R,1.890000X1.570000*%
%ADD60R,0.450000X1.400000*%
%ADD61RoundRect,0.050000X-0.050000X0.249999X-0.050000X-0.249999X0.050000X-0.249999X0.050000X0.249999X0*%
%ADD62RoundRect,0.050000X-0.249999X-0.050000X0.249999X-0.050000X0.249999X0.050000X-0.249999X0.050000X0*%
%ADD63RoundRect,0.050000X-1.700000X1.700000X-1.700000X-1.700000X1.700000X-1.700000X1.700000X1.700000X0*%
%ADD64RoundRect,0.147500X-0.147500X-0.172500X0.147500X-0.172500X0.147500X0.172500X-0.147500X0.172500X0*%
%ADD65RoundRect,0.250000X0.250000X0.475000X-0.250000X0.475000X-0.250000X-0.475000X0.250000X-0.475000X0*%
%ADD66RoundRect,0.250000X-1.425000X0.362500X-1.425000X-0.362500X1.425000X-0.362500X1.425000X0.362500X0*%
%ADD67R,3.050000X2.050000*%
%ADD68RoundRect,0.048000X0.252000X-0.072000X0.252000X0.072000X-0.252000X0.072000X-0.252000X-0.072000X0*%
%ADD69RoundRect,0.048000X0.072000X-0.252000X0.072000X0.252000X-0.072000X0.252000X-0.072000X-0.252000X0*%
%ADD70RoundRect,0.249999X-0.850001X0.850001X-0.850001X-0.850001X0.850001X-0.850001X0.850001X0.850001X0*%
%ADD71RoundRect,0.250000X-0.250000X-0.475000X0.250000X-0.475000X0.250000X0.475000X-0.250000X0.475000X0*%
%ADD72RoundRect,0.250000X-0.325000X-0.525000X0.325000X-0.525000X0.325000X0.525000X-0.325000X0.525000X0*%
%ADD73R,5.500000X1.430000*%
%ADD74RoundRect,0.250000X-0.450000X0.262500X-0.450000X-0.262500X0.450000X-0.262500X0.450000X0.262500X0*%
G04 APERTURE END LIST*
%TO.C,J201*%
G36*
X44850000Y20505000D02*
G01*
X46940000Y20505000D01*
X46940000Y18625000D01*
X44850000Y18625000D01*
X44850000Y20505000D01*
G37*
%TD*%
D10*
%TO.C,C215*%
X24415000Y13845000D03*
X24415000Y12885000D03*
%TD*%
D11*
%TO.C,C101*%
X10455000Y43635000D03*
X3355000Y43635000D03*
%TD*%
D12*
%TO.C,R305*%
X25065000Y31595000D03*
X23415000Y31595000D03*
%TD*%
D13*
%TO.C,TP103*%
X8295000Y16825000D03*
%TD*%
D14*
%TO.C,R105*%
X2810000Y37815000D03*
X4460000Y37815000D03*
%TD*%
D15*
%TO.C,X202*%
X37805000Y17695000D03*
X37805000Y16295000D03*
X38905000Y16295000D03*
X38905000Y17695000D03*
%TD*%
D12*
%TO.C,R103*%
X14075000Y30265000D03*
X12425000Y30265000D03*
%TD*%
D16*
%TO.C,D301*%
X38537500Y30145000D03*
X38537500Y28245000D03*
X40412500Y29195000D03*
%TD*%
D14*
%TO.C,R107*%
X2770000Y35345000D03*
X4420000Y35345000D03*
%TD*%
D13*
%TO.C,TP102*%
X16855000Y19165000D03*
%TD*%
D17*
%TO.C,C302*%
X30560000Y32265000D03*
X32110000Y32265000D03*
%TD*%
D18*
%TO.C,C216*%
X39717500Y19535000D03*
X39717500Y20495000D03*
%TD*%
D19*
%TO.C,D101*%
X40720000Y48345000D03*
D20*
X31395000Y48345000D03*
%TD*%
D21*
%TO.C,C106*%
X13945000Y35185000D03*
X13945000Y33285000D03*
%TD*%
D22*
%TO.C,C207*%
X31445000Y16495000D03*
X32405000Y16495000D03*
%TD*%
D12*
%TO.C,R401*%
X18550000Y2485000D03*
X16900000Y2485000D03*
%TD*%
D14*
%TO.C,R310*%
X29090000Y25265000D03*
X30740000Y25265000D03*
%TD*%
D23*
%TO.C,C105*%
X16345000Y33960000D03*
X16345000Y31010000D03*
%TD*%
D18*
%TO.C,C214*%
X36717500Y19495000D03*
X36717500Y20455000D03*
%TD*%
D24*
%TO.C,C304*%
X19495000Y28440000D03*
X19495000Y26890000D03*
%TD*%
D14*
%TO.C,R106*%
X6310000Y37815000D03*
X7960000Y37815000D03*
%TD*%
D25*
%TO.C,J201*%
X44315000Y19565000D03*
D26*
X45840000Y21040000D03*
X45840000Y18090000D03*
%TD*%
D27*
%TO.C,C407*%
X32945000Y7465000D03*
X29995000Y7465000D03*
%TD*%
D28*
%TO.C,J301*%
X47755000Y27825000D03*
X47755000Y30365000D03*
X47755000Y32905000D03*
D29*
X45215000Y27825000D03*
D30*
X45215000Y30365000D03*
X45215000Y32905000D03*
%TD*%
D31*
%TO.C,C111*%
X8785000Y22750000D03*
X8785000Y19800000D03*
%TD*%
D32*
%TO.C,C308*%
X27025000Y32510000D03*
X27025000Y34060000D03*
%TD*%
D24*
%TO.C,C107*%
X4345000Y33775000D03*
X4345000Y32225000D03*
%TD*%
D33*
%TO.C,U401*%
X16625000Y5315000D03*
X16625000Y4665000D03*
X16625000Y4015000D03*
X18400000Y4015000D03*
X18400000Y4665000D03*
X18400000Y5315000D03*
%TD*%
D34*
%TO.C,C104*%
X16140000Y36065000D03*
X19090000Y36065000D03*
%TD*%
D12*
%TO.C,R307*%
X30930000Y22935000D03*
X29280000Y22935000D03*
%TD*%
D24*
%TO.C,C406*%
X21725000Y8590000D03*
X21725000Y7040000D03*
%TD*%
D35*
%TO.C,H1*%
X1585000Y53515000D03*
X2068274Y54681726D03*
X2068274Y52348274D03*
X3235000Y55165000D03*
D36*
X3235000Y53515000D03*
D35*
X3235000Y51865000D03*
X4401726Y54681726D03*
X4401726Y52348274D03*
X4885000Y53515000D03*
%TD*%
D37*
%TO.C,D103*%
X18655000Y33875000D03*
X18655000Y31075000D03*
%TD*%
D34*
%TO.C,C102*%
X15890000Y40935000D03*
X18840000Y40935000D03*
%TD*%
D38*
%TO.C,J401*%
X7330000Y8245000D03*
D39*
X7330000Y10245000D03*
%TD*%
D22*
%TO.C,C204*%
X32965000Y18835000D03*
X33925000Y18835000D03*
%TD*%
D40*
%TO.C,FLT201*%
X41230000Y19537500D03*
D41*
X41842500Y19310000D03*
D40*
X42455000Y19537500D03*
D41*
X41842500Y19765000D03*
%TD*%
D12*
%TO.C,R306*%
X34420000Y25955000D03*
X32770000Y25955000D03*
%TD*%
D27*
%TO.C,C310*%
X26480000Y36535000D03*
X23530000Y36535000D03*
%TD*%
D31*
%TO.C,C110*%
X5085000Y22680000D03*
X5085000Y19730000D03*
%TD*%
D33*
%TO.C,U403*%
X29502500Y5195000D03*
X29502500Y4545000D03*
X29502500Y3895000D03*
X31277500Y3895000D03*
X31277500Y4545000D03*
X31277500Y5195000D03*
%TD*%
D17*
%TO.C,C309*%
X38050000Y22555000D03*
X39600000Y22555000D03*
%TD*%
D42*
%TO.C,C201*%
X26635000Y21585000D03*
X25675000Y21585000D03*
%TD*%
D43*
%TO.C,L201*%
X31305000Y12777500D03*
X31305000Y14352500D03*
%TD*%
D13*
%TO.C,TP402*%
X22025000Y11935000D03*
%TD*%
D12*
%TO.C,R102*%
X17370000Y28590000D03*
X15720000Y28590000D03*
%TD*%
%TO.C,R309*%
X26560000Y25165000D03*
X24910000Y25165000D03*
%TD*%
%TO.C,R104*%
X12010000Y37815000D03*
X10360000Y37815000D03*
%TD*%
D44*
%TO.C,U101*%
X8955000Y34190000D03*
D45*
X11655000Y32285000D03*
X11655000Y33555000D03*
X11655000Y34825000D03*
X11655000Y36095000D03*
X6255000Y36095000D03*
X6255000Y34825000D03*
X6255000Y33555000D03*
X6255000Y32285000D03*
%TD*%
D46*
%TO.C,U402*%
X23182500Y5027500D03*
X23182500Y4077500D03*
X23182500Y3127500D03*
X25457500Y3127500D03*
X25457500Y5027500D03*
%TD*%
D47*
%TO.C,X201*%
X27795000Y12195000D03*
X26395000Y12195000D03*
%TD*%
D34*
%TO.C,C103*%
X15980000Y38445000D03*
X18930000Y38445000D03*
%TD*%
D48*
%TO.C,F401*%
X7232500Y4935000D03*
X8807500Y4935000D03*
%TD*%
D49*
%TO.C,C306*%
X24485000Y33315000D03*
X22935000Y33315000D03*
%TD*%
D13*
%TO.C,FM2*%
X45905000Y48865000D03*
%TD*%
D42*
%TO.C,C213*%
X26325000Y13935000D03*
X25365000Y13935000D03*
%TD*%
D49*
%TO.C,C404*%
X20105000Y9945000D03*
X18555000Y9945000D03*
%TD*%
D50*
%TO.C,R201*%
X23185000Y14965000D03*
X24205000Y14965000D03*
%TD*%
D51*
%TO.C,J202*%
X37550000Y13515000D03*
D52*
X37550000Y10975000D03*
D51*
X37550000Y8435000D03*
X40725000Y13515000D03*
X40725000Y8435000D03*
D52*
X42630000Y11991000D03*
X42630000Y9959000D03*
D53*
X38820000Y10340000D03*
X38820000Y11610000D03*
X40090000Y10340000D03*
X40090000Y11610000D03*
X41360000Y10340000D03*
X41360000Y11610000D03*
%TD*%
D13*
%TO.C,FM1*%
X3425000Y49545000D03*
%TD*%
D54*
%TO.C,C109*%
X15675000Y23910000D03*
X15675000Y26860000D03*
%TD*%
D21*
%TO.C,C403*%
X21170000Y5155000D03*
X21170000Y3255000D03*
%TD*%
D35*
%TO.C,H2*%
X44315000Y52945000D03*
X44798274Y54111726D03*
X44798274Y51778274D03*
X45965000Y54595000D03*
D36*
X45965000Y52945000D03*
D35*
X45965000Y51295000D03*
X47131726Y54111726D03*
X47131726Y51778274D03*
X47615000Y52945000D03*
%TD*%
D55*
%TO.C,F101*%
X15285000Y52435000D03*
X23785000Y52435000D03*
%TD*%
D56*
%TO.C,C301*%
X32025000Y34725000D03*
X34975000Y34725000D03*
%TD*%
D57*
%TO.C,R311*%
X25375000Y28490000D03*
X25375000Y26840000D03*
%TD*%
D24*
%TO.C,C401*%
X10340000Y4930000D03*
X10340000Y3380000D03*
%TD*%
D58*
%TO.C,X301*%
X22195000Y26965000D03*
X22195000Y28365000D03*
X21095000Y28365000D03*
X21095000Y26965000D03*
%TD*%
D35*
%TO.C,H3*%
X44315000Y3775000D03*
X44798274Y4941726D03*
X44798274Y2608274D03*
X45965000Y5425000D03*
D36*
X45965000Y3775000D03*
D35*
X45965000Y2125000D03*
X47131726Y4941726D03*
X47131726Y2608274D03*
X47615000Y3775000D03*
%TD*%
D12*
%TO.C,R301*%
X34170000Y24185000D03*
X32520000Y24185000D03*
%TD*%
D59*
%TO.C,U102*%
X13327500Y19655000D03*
D60*
X14302500Y21855000D03*
X13652500Y21855000D03*
X13002500Y21855000D03*
X12352500Y21855000D03*
X12352500Y17455000D03*
X13002500Y17455000D03*
X13652500Y17455000D03*
X14302500Y17455000D03*
%TD*%
D61*
%TO.C,U201*%
X29815000Y20485000D03*
X29415001Y20485000D03*
X29015002Y20485000D03*
X28615000Y20485000D03*
X28215001Y20485000D03*
X27815001Y20485000D03*
X27415002Y20485000D03*
X27015000Y20485000D03*
X26615001Y20485000D03*
X26215002Y20485000D03*
D62*
X25615001Y19884999D03*
X25615001Y19485000D03*
X25615001Y19085001D03*
X25615001Y18684999D03*
X25615001Y18285000D03*
X25615001Y17885000D03*
X25615001Y17485001D03*
X25615001Y17084999D03*
X25615001Y16685000D03*
X25615001Y16285001D03*
D61*
X26215002Y15685000D03*
X26615001Y15685000D03*
X27015000Y15685000D03*
X27415002Y15685000D03*
X27815001Y15685000D03*
X28215001Y15685000D03*
X28615000Y15685000D03*
X29015002Y15685000D03*
X29415001Y15685000D03*
X29815000Y15685000D03*
D62*
X30415001Y16285001D03*
X30415001Y16685000D03*
X30415001Y17084999D03*
X30415001Y17485001D03*
X30415001Y17885000D03*
X30415001Y18285000D03*
X30415001Y18684999D03*
X30415001Y19085001D03*
X30415001Y19485000D03*
X30415001Y19884999D03*
D63*
X28015001Y18085000D03*
%TD*%
D64*
%TO.C,L202*%
X37732500Y19535000D03*
X38702500Y19535000D03*
%TD*%
D21*
%TO.C,C405*%
X27500000Y5025000D03*
X27500000Y3125000D03*
%TD*%
D10*
%TO.C,C202*%
X24505000Y17475000D03*
X24505000Y16515000D03*
%TD*%
D12*
%TO.C,R404*%
X20155000Y8415000D03*
X18505000Y8415000D03*
%TD*%
D54*
%TO.C,C108*%
X12275000Y23850000D03*
X12275000Y26800000D03*
%TD*%
D18*
%TO.C,C210*%
X40175000Y16255000D03*
X40175000Y17215000D03*
%TD*%
D65*
%TO.C,C205*%
X23205000Y17495000D03*
X21305000Y17495000D03*
%TD*%
D14*
%TO.C,R402*%
X11805000Y4865000D03*
X13455000Y4865000D03*
%TD*%
D13*
%TO.C,TP401*%
X15755000Y8565000D03*
%TD*%
%TO.C,TP101*%
X18845000Y23895000D03*
%TD*%
D32*
%TO.C,C303*%
X23885000Y26870000D03*
X23885000Y28420000D03*
%TD*%
D27*
%TO.C,C112*%
X14590000Y14675000D03*
X11640000Y14675000D03*
%TD*%
D10*
%TO.C,C211*%
X36515000Y17755000D03*
X36515000Y16795000D03*
%TD*%
D14*
%TO.C,R304*%
X34330000Y32145000D03*
X35980000Y32145000D03*
%TD*%
D13*
%TO.C,FM3*%
X46375000Y7775000D03*
%TD*%
D57*
%TO.C,R405*%
X27600000Y8810000D03*
X27600000Y7160000D03*
%TD*%
D33*
%TO.C,U404*%
X23770000Y8825000D03*
X23770000Y8175000D03*
X23770000Y7525000D03*
X25545000Y7525000D03*
X25545000Y8175000D03*
X25545000Y8825000D03*
%TD*%
D66*
%TO.C,R101*%
X16525000Y49037500D03*
X16525000Y43112500D03*
%TD*%
D35*
%TO.C,H4*%
X1715000Y3805000D03*
X2198274Y4971726D03*
X2198274Y2638274D03*
X3365000Y5455000D03*
D36*
X3365000Y3805000D03*
D35*
X3365000Y2155000D03*
X4531726Y4971726D03*
X4531726Y2638274D03*
X5015000Y3805000D03*
%TD*%
D24*
%TO.C,C209*%
X29735000Y13870000D03*
X29735000Y12320000D03*
%TD*%
D17*
%TO.C,C307*%
X28710000Y34605000D03*
X30260000Y34605000D03*
%TD*%
D67*
%TO.C,U301*%
X29050000Y29175000D03*
D68*
X26900000Y28425000D03*
D69*
X27300000Y27525000D03*
X27800000Y27525000D03*
X28300000Y27525000D03*
X28800000Y27525000D03*
X29300000Y27525000D03*
X29800000Y27525000D03*
X30300000Y27525000D03*
X30800000Y27525000D03*
D68*
X31200000Y28425000D03*
X31200000Y29925000D03*
D69*
X30800000Y30825000D03*
X30300000Y30825000D03*
X29800000Y30825000D03*
X29300000Y30825000D03*
X28800000Y30825000D03*
X28300000Y30825000D03*
X27800000Y30825000D03*
X27300000Y30825000D03*
D68*
X26900000Y29925000D03*
%TD*%
D28*
%TO.C,J101*%
X7235000Y53065000D03*
X7235000Y50525000D03*
D70*
X9775000Y53065000D03*
D30*
X9775000Y50525000D03*
%TD*%
D37*
%TO.C,D102*%
X19635000Y48535000D03*
X22435000Y48535000D03*
%TD*%
D24*
%TO.C,C402*%
X14940000Y5015000D03*
X14940000Y3465000D03*
%TD*%
D13*
%TO.C,TP403*%
X17845000Y12695000D03*
%TD*%
D54*
%TO.C,C305*%
X28905000Y36380000D03*
X28905000Y39330000D03*
%TD*%
D71*
%TO.C,C208*%
X31285000Y10975000D03*
X33185000Y10975000D03*
%TD*%
D72*
%TO.C,L301*%
X32800000Y30300000D03*
X32800000Y28050000D03*
X36450000Y28050000D03*
X36450000Y30300000D03*
%TD*%
D24*
%TO.C,C408*%
X33020000Y5000000D03*
X33020000Y3450000D03*
%TD*%
D12*
%TO.C,R308*%
X23150000Y23635000D03*
X21500000Y23635000D03*
%TD*%
D73*
%TO.C,L101*%
X6507500Y29415000D03*
X6507500Y25375000D03*
%TD*%
D10*
%TO.C,C206*%
X31495000Y21245000D03*
X31495000Y20285000D03*
%TD*%
D74*
%TO.C,R302*%
X40125000Y26067500D03*
X40125000Y24242500D03*
%TD*%
%TO.C,R303*%
X37525000Y26067500D03*
X37525000Y24242500D03*
%TD*%
D22*
%TO.C,C203*%
X31455000Y15535000D03*
X32415000Y15535000D03*
%TD*%
D14*
%TO.C,R403*%
X18600000Y6805000D03*
X20250000Y6805000D03*
%TD*%
D42*
%TO.C,C212*%
X28525000Y13905000D03*
X27565000Y13905000D03*
%TD*%
M02*
