%TF.GenerationSoftware,KiCad,Pcbnew,10.0.6*%
%TF.CreationDate,2026-09-30T18:09:34+05:30*%
%TF.ProjectId,BLE-CAN-module,42797465-6265-4616-9d2d-424c452d4341,A*%
%TF.SameCoordinates,PX60de958PY69dcd48*%
%TF.FileFunction,Legend,Bot*%
%TF.FilePolarity,Positive*%
%FSLAX46Y46*%
G04 Gerber Fmt 4.6, Leading zero omitted, Abs format (unit mm)*
G04 Created by KiCad (PCBNEW 10.0.6) date 2026-09-30 18:09:34*
%MOMM*%
%LPD*%
G01*
G04 APERTURE LIST*
%ADD10C,0.130000*%
G04 APERTURE END LIST*
D10*
X39732331Y23298713D02*
X39618045Y23260618D01*
X39618045Y23260618D02*
X39579950Y23222522D01*
X39579950Y23222522D02*
X39541854Y23146332D01*
X39541854Y23146332D02*
X39541854Y23032046D01*
X39541854Y23032046D02*
X39579950Y22955856D01*
X39579950Y22955856D02*
X39618045Y22917760D01*
X39618045Y22917760D02*
X39694235Y22879665D01*
X39694235Y22879665D02*
X39998997Y22879665D01*
X39998997Y22879665D02*
X39998997Y23679665D01*
X39998997Y23679665D02*
X39732331Y23679665D01*
X39732331Y23679665D02*
X39656140Y23641570D01*
X39656140Y23641570D02*
X39618045Y23603475D01*
X39618045Y23603475D02*
X39579950Y23527284D01*
X39579950Y23527284D02*
X39579950Y23451094D01*
X39579950Y23451094D02*
X39618045Y23374903D01*
X39618045Y23374903D02*
X39656140Y23336808D01*
X39656140Y23336808D02*
X39732331Y23298713D01*
X39732331Y23298713D02*
X39998997Y23298713D01*
X38818045Y22879665D02*
X39198997Y22879665D01*
X39198997Y22879665D02*
X39198997Y23679665D01*
X38551378Y23298713D02*
X38284712Y23298713D01*
X38170426Y22879665D02*
X38551378Y22879665D01*
X38551378Y22879665D02*
X38551378Y23679665D01*
X38551378Y23679665D02*
X38170426Y23679665D01*
X36760901Y22955856D02*
X36798997Y22917760D01*
X36798997Y22917760D02*
X36913282Y22879665D01*
X36913282Y22879665D02*
X36989473Y22879665D01*
X36989473Y22879665D02*
X37103759Y22917760D01*
X37103759Y22917760D02*
X37179949Y22993951D01*
X37179949Y22993951D02*
X37218044Y23070141D01*
X37218044Y23070141D02*
X37256140Y23222522D01*
X37256140Y23222522D02*
X37256140Y23336808D01*
X37256140Y23336808D02*
X37218044Y23489189D01*
X37218044Y23489189D02*
X37179949Y23565380D01*
X37179949Y23565380D02*
X37103759Y23641570D01*
X37103759Y23641570D02*
X36989473Y23679665D01*
X36989473Y23679665D02*
X36913282Y23679665D01*
X36913282Y23679665D02*
X36798997Y23641570D01*
X36798997Y23641570D02*
X36760901Y23603475D01*
X36303759Y22879665D02*
X36379949Y22917760D01*
X36379949Y22917760D02*
X36418044Y22955856D01*
X36418044Y22955856D02*
X36456140Y23032046D01*
X36456140Y23032046D02*
X36456140Y23260618D01*
X36456140Y23260618D02*
X36418044Y23336808D01*
X36418044Y23336808D02*
X36379949Y23374903D01*
X36379949Y23374903D02*
X36303759Y23412999D01*
X36303759Y23412999D02*
X36189473Y23412999D01*
X36189473Y23412999D02*
X36113282Y23374903D01*
X36113282Y23374903D02*
X36075187Y23336808D01*
X36075187Y23336808D02*
X36037092Y23260618D01*
X36037092Y23260618D02*
X36037092Y23032046D01*
X36037092Y23032046D02*
X36075187Y22955856D01*
X36075187Y22955856D02*
X36113282Y22917760D01*
X36113282Y22917760D02*
X36189473Y22879665D01*
X36189473Y22879665D02*
X36303759Y22879665D01*
X35694234Y23412999D02*
X35694234Y22879665D01*
X35694234Y23336808D02*
X35656139Y23374903D01*
X35656139Y23374903D02*
X35579949Y23412999D01*
X35579949Y23412999D02*
X35465663Y23412999D01*
X35465663Y23412999D02*
X35389472Y23374903D01*
X35389472Y23374903D02*
X35351377Y23298713D01*
X35351377Y23298713D02*
X35351377Y22879665D01*
X35084710Y23412999D02*
X34779948Y23412999D01*
X34970424Y23679665D02*
X34970424Y22993951D01*
X34970424Y22993951D02*
X34932329Y22917760D01*
X34932329Y22917760D02*
X34856139Y22879665D01*
X34856139Y22879665D02*
X34779948Y22879665D01*
X34513281Y22879665D02*
X34513281Y23412999D01*
X34513281Y23260618D02*
X34475186Y23336808D01*
X34475186Y23336808D02*
X34437091Y23374903D01*
X34437091Y23374903D02*
X34360900Y23412999D01*
X34360900Y23412999D02*
X34284710Y23412999D01*
X33903758Y22879665D02*
X33979948Y22917760D01*
X33979948Y22917760D02*
X34018043Y22955856D01*
X34018043Y22955856D02*
X34056139Y23032046D01*
X34056139Y23032046D02*
X34056139Y23260618D01*
X34056139Y23260618D02*
X34018043Y23336808D01*
X34018043Y23336808D02*
X33979948Y23374903D01*
X33979948Y23374903D02*
X33903758Y23412999D01*
X33903758Y23412999D02*
X33789472Y23412999D01*
X33789472Y23412999D02*
X33713281Y23374903D01*
X33713281Y23374903D02*
X33675186Y23336808D01*
X33675186Y23336808D02*
X33637091Y23260618D01*
X33637091Y23260618D02*
X33637091Y23032046D01*
X33637091Y23032046D02*
X33675186Y22955856D01*
X33675186Y22955856D02*
X33713281Y22917760D01*
X33713281Y22917760D02*
X33789472Y22879665D01*
X33789472Y22879665D02*
X33903758Y22879665D01*
X33179948Y22879665D02*
X33256138Y22917760D01*
X33256138Y22917760D02*
X33294233Y22993951D01*
X33294233Y22993951D02*
X33294233Y23679665D01*
X32760900Y22879665D02*
X32837090Y22917760D01*
X32837090Y22917760D02*
X32875185Y22993951D01*
X32875185Y22993951D02*
X32875185Y23679665D01*
X32151375Y22917760D02*
X32227566Y22879665D01*
X32227566Y22879665D02*
X32379947Y22879665D01*
X32379947Y22879665D02*
X32456137Y22917760D01*
X32456137Y22917760D02*
X32494233Y22993951D01*
X32494233Y22993951D02*
X32494233Y23298713D01*
X32494233Y23298713D02*
X32456137Y23374903D01*
X32456137Y23374903D02*
X32379947Y23412999D01*
X32379947Y23412999D02*
X32227566Y23412999D01*
X32227566Y23412999D02*
X32151375Y23374903D01*
X32151375Y23374903D02*
X32113280Y23298713D01*
X32113280Y23298713D02*
X32113280Y23222522D01*
X32113280Y23222522D02*
X32494233Y23146332D01*
X31770423Y22879665D02*
X31770423Y23412999D01*
X31770423Y23260618D02*
X31732328Y23336808D01*
X31732328Y23336808D02*
X31694233Y23374903D01*
X31694233Y23374903D02*
X31618042Y23412999D01*
X31618042Y23412999D02*
X31541852Y23412999D01*
X18191667Y10310713D02*
X18077381Y10272618D01*
X18077381Y10272618D02*
X18039286Y10234522D01*
X18039286Y10234522D02*
X18001190Y10158332D01*
X18001190Y10158332D02*
X18001190Y10044046D01*
X18001190Y10044046D02*
X18039286Y9967856D01*
X18039286Y9967856D02*
X18077381Y9929760D01*
X18077381Y9929760D02*
X18153571Y9891665D01*
X18153571Y9891665D02*
X18458333Y9891665D01*
X18458333Y9891665D02*
X18458333Y10691665D01*
X18458333Y10691665D02*
X18191667Y10691665D01*
X18191667Y10691665D02*
X18115476Y10653570D01*
X18115476Y10653570D02*
X18077381Y10615475D01*
X18077381Y10615475D02*
X18039286Y10539284D01*
X18039286Y10539284D02*
X18039286Y10463094D01*
X18039286Y10463094D02*
X18077381Y10386903D01*
X18077381Y10386903D02*
X18115476Y10348808D01*
X18115476Y10348808D02*
X18191667Y10310713D01*
X18191667Y10310713D02*
X18458333Y10310713D01*
X17315476Y9891665D02*
X17315476Y10310713D01*
X17315476Y10310713D02*
X17353571Y10386903D01*
X17353571Y10386903D02*
X17429762Y10424999D01*
X17429762Y10424999D02*
X17582143Y10424999D01*
X17582143Y10424999D02*
X17658333Y10386903D01*
X17315476Y9929760D02*
X17391667Y9891665D01*
X17391667Y9891665D02*
X17582143Y9891665D01*
X17582143Y9891665D02*
X17658333Y9929760D01*
X17658333Y9929760D02*
X17696429Y10005951D01*
X17696429Y10005951D02*
X17696429Y10082141D01*
X17696429Y10082141D02*
X17658333Y10158332D01*
X17658333Y10158332D02*
X17582143Y10196427D01*
X17582143Y10196427D02*
X17391667Y10196427D01*
X17391667Y10196427D02*
X17315476Y10234522D01*
X16591666Y9929760D02*
X16667857Y9891665D01*
X16667857Y9891665D02*
X16820238Y9891665D01*
X16820238Y9891665D02*
X16896428Y9929760D01*
X16896428Y9929760D02*
X16934523Y9967856D01*
X16934523Y9967856D02*
X16972619Y10044046D01*
X16972619Y10044046D02*
X16972619Y10272618D01*
X16972619Y10272618D02*
X16934523Y10348808D01*
X16934523Y10348808D02*
X16896428Y10386903D01*
X16896428Y10386903D02*
X16820238Y10424999D01*
X16820238Y10424999D02*
X16667857Y10424999D01*
X16667857Y10424999D02*
X16591666Y10386903D01*
X16248809Y9891665D02*
X16248809Y10691665D01*
X16172619Y10196427D02*
X15944047Y9891665D01*
X15944047Y10424999D02*
X16248809Y10120237D01*
X15601190Y10196427D02*
X14991667Y10196427D01*
X14267857Y10424999D02*
X14267857Y9891665D01*
X14610714Y10424999D02*
X14610714Y10005951D01*
X14610714Y10005951D02*
X14572619Y9929760D01*
X14572619Y9929760D02*
X14496429Y9891665D01*
X14496429Y9891665D02*
X14382143Y9891665D01*
X14382143Y9891665D02*
X14305952Y9929760D01*
X14305952Y9929760D02*
X14267857Y9967856D01*
X13886904Y10424999D02*
X13886904Y9624999D01*
X13886904Y10386903D02*
X13810714Y10424999D01*
X13810714Y10424999D02*
X13658333Y10424999D01*
X13658333Y10424999D02*
X13582142Y10386903D01*
X13582142Y10386903D02*
X13544047Y10348808D01*
X13544047Y10348808D02*
X13505952Y10272618D01*
X13505952Y10272618D02*
X13505952Y10044046D01*
X13505952Y10044046D02*
X13544047Y9967856D01*
X13544047Y9967856D02*
X13582142Y9929760D01*
X13582142Y9929760D02*
X13658333Y9891665D01*
X13658333Y9891665D02*
X13810714Y9891665D01*
X13810714Y9891665D02*
X13886904Y9929760D01*
X12553570Y9891665D02*
X12553570Y10691665D01*
X12553570Y10691665D02*
X12248808Y10691665D01*
X12248808Y10691665D02*
X12172618Y10653570D01*
X12172618Y10653570D02*
X12134523Y10615475D01*
X12134523Y10615475D02*
X12096427Y10539284D01*
X12096427Y10539284D02*
X12096427Y10424999D01*
X12096427Y10424999D02*
X12134523Y10348808D01*
X12134523Y10348808D02*
X12172618Y10310713D01*
X12172618Y10310713D02*
X12248808Y10272618D01*
X12248808Y10272618D02*
X12553570Y10272618D01*
X11639285Y9891665D02*
X11715475Y9929760D01*
X11715475Y9929760D02*
X11753570Y9967856D01*
X11753570Y9967856D02*
X11791666Y10044046D01*
X11791666Y10044046D02*
X11791666Y10272618D01*
X11791666Y10272618D02*
X11753570Y10348808D01*
X11753570Y10348808D02*
X11715475Y10386903D01*
X11715475Y10386903D02*
X11639285Y10424999D01*
X11639285Y10424999D02*
X11524999Y10424999D01*
X11524999Y10424999D02*
X11448808Y10386903D01*
X11448808Y10386903D02*
X11410713Y10348808D01*
X11410713Y10348808D02*
X11372618Y10272618D01*
X11372618Y10272618D02*
X11372618Y10044046D01*
X11372618Y10044046D02*
X11410713Y9967856D01*
X11410713Y9967856D02*
X11448808Y9929760D01*
X11448808Y9929760D02*
X11524999Y9891665D01*
X11524999Y9891665D02*
X11639285Y9891665D01*
X11105951Y10424999D02*
X10953570Y9891665D01*
X10953570Y9891665D02*
X10801189Y10272618D01*
X10801189Y10272618D02*
X10648808Y9891665D01*
X10648808Y9891665D02*
X10496427Y10424999D01*
X9886903Y9929760D02*
X9963094Y9891665D01*
X9963094Y9891665D02*
X10115475Y9891665D01*
X10115475Y9891665D02*
X10191665Y9929760D01*
X10191665Y9929760D02*
X10229761Y10005951D01*
X10229761Y10005951D02*
X10229761Y10310713D01*
X10229761Y10310713D02*
X10191665Y10386903D01*
X10191665Y10386903D02*
X10115475Y10424999D01*
X10115475Y10424999D02*
X9963094Y10424999D01*
X9963094Y10424999D02*
X9886903Y10386903D01*
X9886903Y10386903D02*
X9848808Y10310713D01*
X9848808Y10310713D02*
X9848808Y10234522D01*
X9848808Y10234522D02*
X10229761Y10158332D01*
X9505951Y9891665D02*
X9505951Y10424999D01*
X9505951Y10272618D02*
X9467856Y10348808D01*
X9467856Y10348808D02*
X9429761Y10386903D01*
X9429761Y10386903D02*
X9353570Y10424999D01*
X9353570Y10424999D02*
X9277380Y10424999D01*
X22655952Y42891665D02*
X22655952Y43691665D01*
X22655952Y43691665D02*
X22351190Y43691665D01*
X22351190Y43691665D02*
X22275000Y43653570D01*
X22275000Y43653570D02*
X22236905Y43615475D01*
X22236905Y43615475D02*
X22198809Y43539284D01*
X22198809Y43539284D02*
X22198809Y43424999D01*
X22198809Y43424999D02*
X22236905Y43348808D01*
X22236905Y43348808D02*
X22275000Y43310713D01*
X22275000Y43310713D02*
X22351190Y43272618D01*
X22351190Y43272618D02*
X22655952Y43272618D01*
X21741667Y42891665D02*
X21817857Y42929760D01*
X21817857Y42929760D02*
X21855952Y42967856D01*
X21855952Y42967856D02*
X21894048Y43044046D01*
X21894048Y43044046D02*
X21894048Y43272618D01*
X21894048Y43272618D02*
X21855952Y43348808D01*
X21855952Y43348808D02*
X21817857Y43386903D01*
X21817857Y43386903D02*
X21741667Y43424999D01*
X21741667Y43424999D02*
X21627381Y43424999D01*
X21627381Y43424999D02*
X21551190Y43386903D01*
X21551190Y43386903D02*
X21513095Y43348808D01*
X21513095Y43348808D02*
X21475000Y43272618D01*
X21475000Y43272618D02*
X21475000Y43044046D01*
X21475000Y43044046D02*
X21513095Y42967856D01*
X21513095Y42967856D02*
X21551190Y42929760D01*
X21551190Y42929760D02*
X21627381Y42891665D01*
X21627381Y42891665D02*
X21741667Y42891665D01*
X21208333Y43424999D02*
X21055952Y42891665D01*
X21055952Y42891665D02*
X20903571Y43272618D01*
X20903571Y43272618D02*
X20751190Y42891665D01*
X20751190Y42891665D02*
X20598809Y43424999D01*
X19989285Y42929760D02*
X20065476Y42891665D01*
X20065476Y42891665D02*
X20217857Y42891665D01*
X20217857Y42891665D02*
X20294047Y42929760D01*
X20294047Y42929760D02*
X20332143Y43005951D01*
X20332143Y43005951D02*
X20332143Y43310713D01*
X20332143Y43310713D02*
X20294047Y43386903D01*
X20294047Y43386903D02*
X20217857Y43424999D01*
X20217857Y43424999D02*
X20065476Y43424999D01*
X20065476Y43424999D02*
X19989285Y43386903D01*
X19989285Y43386903D02*
X19951190Y43310713D01*
X19951190Y43310713D02*
X19951190Y43234522D01*
X19951190Y43234522D02*
X20332143Y43158332D01*
X19608333Y42891665D02*
X19608333Y43424999D01*
X19608333Y43272618D02*
X19570238Y43348808D01*
X19570238Y43348808D02*
X19532143Y43386903D01*
X19532143Y43386903D02*
X19455952Y43424999D01*
X19455952Y43424999D02*
X19379762Y43424999D01*
X18503571Y42891665D02*
X18503571Y43691665D01*
X18122619Y43424999D02*
X18122619Y42891665D01*
X18122619Y43348808D02*
X18084524Y43386903D01*
X18084524Y43386903D02*
X18008334Y43424999D01*
X18008334Y43424999D02*
X17894048Y43424999D01*
X17894048Y43424999D02*
X17817857Y43386903D01*
X17817857Y43386903D02*
X17779762Y43310713D01*
X17779762Y43310713D02*
X17779762Y42891665D01*
X17398809Y43424999D02*
X17398809Y42624999D01*
X17398809Y43386903D02*
X17322619Y43424999D01*
X17322619Y43424999D02*
X17170238Y43424999D01*
X17170238Y43424999D02*
X17094047Y43386903D01*
X17094047Y43386903D02*
X17055952Y43348808D01*
X17055952Y43348808D02*
X17017857Y43272618D01*
X17017857Y43272618D02*
X17017857Y43044046D01*
X17017857Y43044046D02*
X17055952Y42967856D01*
X17055952Y42967856D02*
X17094047Y42929760D01*
X17094047Y42929760D02*
X17170238Y42891665D01*
X17170238Y42891665D02*
X17322619Y42891665D01*
X17322619Y42891665D02*
X17398809Y42929760D01*
X16332142Y43424999D02*
X16332142Y42891665D01*
X16674999Y43424999D02*
X16674999Y43005951D01*
X16674999Y43005951D02*
X16636904Y42929760D01*
X16636904Y42929760D02*
X16560714Y42891665D01*
X16560714Y42891665D02*
X16446428Y42891665D01*
X16446428Y42891665D02*
X16370237Y42929760D01*
X16370237Y42929760D02*
X16332142Y42967856D01*
X16065475Y43424999D02*
X15760713Y43424999D01*
X15951189Y43691665D02*
X15951189Y43005951D01*
X15951189Y43005951D02*
X15913094Y42929760D01*
X15913094Y42929760D02*
X15836904Y42891665D01*
X15836904Y42891665D02*
X15760713Y42891665D01*
X14846427Y42891665D02*
X14694046Y42891665D01*
X14694046Y42891665D02*
X14617856Y42929760D01*
X14617856Y42929760D02*
X14579760Y42967856D01*
X14579760Y42967856D02*
X14503570Y43082141D01*
X14503570Y43082141D02*
X14465475Y43234522D01*
X14465475Y43234522D02*
X14465475Y43539284D01*
X14465475Y43539284D02*
X14503570Y43615475D01*
X14503570Y43615475D02*
X14541665Y43653570D01*
X14541665Y43653570D02*
X14617856Y43691665D01*
X14617856Y43691665D02*
X14770237Y43691665D01*
X14770237Y43691665D02*
X14846427Y43653570D01*
X14846427Y43653570D02*
X14884522Y43615475D01*
X14884522Y43615475D02*
X14922618Y43539284D01*
X14922618Y43539284D02*
X14922618Y43348808D01*
X14922618Y43348808D02*
X14884522Y43272618D01*
X14884522Y43272618D02*
X14846427Y43234522D01*
X14846427Y43234522D02*
X14770237Y43196427D01*
X14770237Y43196427D02*
X14617856Y43196427D01*
X14617856Y43196427D02*
X14541665Y43234522D01*
X14541665Y43234522D02*
X14503570Y43272618D01*
X14503570Y43272618D02*
X14465475Y43348808D01*
X14122617Y43196427D02*
X13513094Y43196427D01*
X13208332Y43691665D02*
X12713094Y43691665D01*
X12713094Y43691665D02*
X12979760Y43386903D01*
X12979760Y43386903D02*
X12865475Y43386903D01*
X12865475Y43386903D02*
X12789284Y43348808D01*
X12789284Y43348808D02*
X12751189Y43310713D01*
X12751189Y43310713D02*
X12713094Y43234522D01*
X12713094Y43234522D02*
X12713094Y43044046D01*
X12713094Y43044046D02*
X12751189Y42967856D01*
X12751189Y42967856D02*
X12789284Y42929760D01*
X12789284Y42929760D02*
X12865475Y42891665D01*
X12865475Y42891665D02*
X13094046Y42891665D01*
X13094046Y42891665D02*
X13170237Y42929760D01*
X13170237Y42929760D02*
X13208332Y42967856D01*
X12027379Y43691665D02*
X12179760Y43691665D01*
X12179760Y43691665D02*
X12255951Y43653570D01*
X12255951Y43653570D02*
X12294046Y43615475D01*
X12294046Y43615475D02*
X12370236Y43501189D01*
X12370236Y43501189D02*
X12408332Y43348808D01*
X12408332Y43348808D02*
X12408332Y43044046D01*
X12408332Y43044046D02*
X12370236Y42967856D01*
X12370236Y42967856D02*
X12332141Y42929760D01*
X12332141Y42929760D02*
X12255951Y42891665D01*
X12255951Y42891665D02*
X12103570Y42891665D01*
X12103570Y42891665D02*
X12027379Y42929760D01*
X12027379Y42929760D02*
X11989284Y42967856D01*
X11989284Y42967856D02*
X11951189Y43044046D01*
X11951189Y43044046D02*
X11951189Y43234522D01*
X11951189Y43234522D02*
X11989284Y43310713D01*
X11989284Y43310713D02*
X12027379Y43348808D01*
X12027379Y43348808D02*
X12103570Y43386903D01*
X12103570Y43386903D02*
X12255951Y43386903D01*
X12255951Y43386903D02*
X12332141Y43348808D01*
X12332141Y43348808D02*
X12370236Y43310713D01*
X12370236Y43310713D02*
X12408332Y43234522D01*
X11113093Y43691665D02*
X10846426Y42891665D01*
X10846426Y42891665D02*
X10579760Y43691665D01*
X39391665Y37467856D02*
X39429761Y37429760D01*
X39429761Y37429760D02*
X39544046Y37391665D01*
X39544046Y37391665D02*
X39620237Y37391665D01*
X39620237Y37391665D02*
X39734523Y37429760D01*
X39734523Y37429760D02*
X39810713Y37505951D01*
X39810713Y37505951D02*
X39848808Y37582141D01*
X39848808Y37582141D02*
X39886904Y37734522D01*
X39886904Y37734522D02*
X39886904Y37848808D01*
X39886904Y37848808D02*
X39848808Y38001189D01*
X39848808Y38001189D02*
X39810713Y38077380D01*
X39810713Y38077380D02*
X39734523Y38153570D01*
X39734523Y38153570D02*
X39620237Y38191665D01*
X39620237Y38191665D02*
X39544046Y38191665D01*
X39544046Y38191665D02*
X39429761Y38153570D01*
X39429761Y38153570D02*
X39391665Y38115475D01*
X39086904Y37620237D02*
X38705951Y37620237D01*
X39163094Y37391665D02*
X38896427Y38191665D01*
X38896427Y38191665D02*
X38629761Y37391665D01*
X38363094Y37391665D02*
X38363094Y38191665D01*
X38363094Y38191665D02*
X37905951Y37391665D01*
X37905951Y37391665D02*
X37905951Y38191665D01*
X36915475Y37391665D02*
X36915475Y38191665D01*
X36534523Y37924999D02*
X36534523Y37391665D01*
X36534523Y37848808D02*
X36496428Y37886903D01*
X36496428Y37886903D02*
X36420238Y37924999D01*
X36420238Y37924999D02*
X36305952Y37924999D01*
X36305952Y37924999D02*
X36229761Y37886903D01*
X36229761Y37886903D02*
X36191666Y37810713D01*
X36191666Y37810713D02*
X36191666Y37391665D01*
X35924999Y37924999D02*
X35620237Y37924999D01*
X35810713Y38191665D02*
X35810713Y37505951D01*
X35810713Y37505951D02*
X35772618Y37429760D01*
X35772618Y37429760D02*
X35696428Y37391665D01*
X35696428Y37391665D02*
X35620237Y37391665D01*
X35048808Y37429760D02*
X35124999Y37391665D01*
X35124999Y37391665D02*
X35277380Y37391665D01*
X35277380Y37391665D02*
X35353570Y37429760D01*
X35353570Y37429760D02*
X35391666Y37505951D01*
X35391666Y37505951D02*
X35391666Y37810713D01*
X35391666Y37810713D02*
X35353570Y37886903D01*
X35353570Y37886903D02*
X35277380Y37924999D01*
X35277380Y37924999D02*
X35124999Y37924999D01*
X35124999Y37924999D02*
X35048808Y37886903D01*
X35048808Y37886903D02*
X35010713Y37810713D01*
X35010713Y37810713D02*
X35010713Y37734522D01*
X35010713Y37734522D02*
X35391666Y37658332D01*
X34667856Y37391665D02*
X34667856Y37924999D01*
X34667856Y37772618D02*
X34629761Y37848808D01*
X34629761Y37848808D02*
X34591666Y37886903D01*
X34591666Y37886903D02*
X34515475Y37924999D01*
X34515475Y37924999D02*
X34439285Y37924999D01*
X34286904Y37924999D02*
X33982142Y37924999D01*
X34172618Y37391665D02*
X34172618Y38077380D01*
X34172618Y38077380D02*
X34134523Y38153570D01*
X34134523Y38153570D02*
X34058333Y38191665D01*
X34058333Y38191665D02*
X33982142Y38191665D01*
X33372618Y37391665D02*
X33372618Y37810713D01*
X33372618Y37810713D02*
X33410713Y37886903D01*
X33410713Y37886903D02*
X33486904Y37924999D01*
X33486904Y37924999D02*
X33639285Y37924999D01*
X33639285Y37924999D02*
X33715475Y37886903D01*
X33372618Y37429760D02*
X33448809Y37391665D01*
X33448809Y37391665D02*
X33639285Y37391665D01*
X33639285Y37391665D02*
X33715475Y37429760D01*
X33715475Y37429760D02*
X33753571Y37505951D01*
X33753571Y37505951D02*
X33753571Y37582141D01*
X33753571Y37582141D02*
X33715475Y37658332D01*
X33715475Y37658332D02*
X33639285Y37696427D01*
X33639285Y37696427D02*
X33448809Y37696427D01*
X33448809Y37696427D02*
X33372618Y37734522D01*
X32648808Y37429760D02*
X32724999Y37391665D01*
X32724999Y37391665D02*
X32877380Y37391665D01*
X32877380Y37391665D02*
X32953570Y37429760D01*
X32953570Y37429760D02*
X32991665Y37467856D01*
X32991665Y37467856D02*
X33029761Y37544046D01*
X33029761Y37544046D02*
X33029761Y37772618D01*
X33029761Y37772618D02*
X32991665Y37848808D01*
X32991665Y37848808D02*
X32953570Y37886903D01*
X32953570Y37886903D02*
X32877380Y37924999D01*
X32877380Y37924999D02*
X32724999Y37924999D01*
X32724999Y37924999D02*
X32648808Y37886903D01*
X32001189Y37429760D02*
X32077380Y37391665D01*
X32077380Y37391665D02*
X32229761Y37391665D01*
X32229761Y37391665D02*
X32305951Y37429760D01*
X32305951Y37429760D02*
X32344047Y37505951D01*
X32344047Y37505951D02*
X32344047Y37810713D01*
X32344047Y37810713D02*
X32305951Y37886903D01*
X32305951Y37886903D02*
X32229761Y37924999D01*
X32229761Y37924999D02*
X32077380Y37924999D01*
X32077380Y37924999D02*
X32001189Y37886903D01*
X32001189Y37886903D02*
X31963094Y37810713D01*
X31963094Y37810713D02*
X31963094Y37734522D01*
X31963094Y37734522D02*
X32344047Y37658332D01*
M02*
